SplineFontDB: 3.0
FontName: ETBembo-Italic
FullName: ETBembo Italic
FamilyName: ETBembo
Weight: Normal
Copyright: ETBembo Italic designed for Eward Tufte / Graphics Press (c) 2004 Dmitry Krasny / Deka Design
Version: 001.001
ItalicAngle: 0
UnderlinePosition: -111
UnderlineWidth: 50
Ascent: 800
Descent: 200
InvalidEm: 0
LayerCount: 2
Layer: 0 0 "Back" 1
Layer: 1 0 "Fore" 0
UniqueID: 4029352
OS2Version: 0
OS2_WeightWidthSlopeOnly: 0
OS2_UseTypoMetrics: 0
CreationTime: 1444759070
ModificationTime: 1444759070
OS2TypoAscent: 0
OS2TypoAOffset: 1
OS2TypoDescent: 0
OS2TypoDOffset: 1
OS2TypoLinegap: 0
OS2WinAscent: 0
OS2WinAOffset: 1
OS2WinDescent: 0
OS2WinDOffset: 1
HheadAscent: 0
HheadAOffset: 1
HheadDescent: 0
HheadDOffset: 1
OS2Vendor: 'PfEd'
DEI: 91125
Encoding: AdobeStandard
UnicodeInterp: none
NameList: AGL For New Fonts
DisplaySize: -48
AntiAlias: 1
FitToEm: 0
BeginPrivate: 8
BlueValues 34 [ -22 -1 427 430 645 662 754 758 ]
OtherBlues 13 [ -279 -272 ]
BlueScale 7 0.04801
BlueShift 1 7
BlueFuzz 1 1
StdHW 8 [ 1000 ]
StdVW 8 [ 1000 ]
ForceBold 5 false
EndPrivate
BeginChars: 340 232

StartChar: Eth
Encoding: 256 208 1
Width: 773
Flags: W
HStem: -4 21G<40 43> -3 38<344 354 286.5 388> 290 65<66 172 85 151 293 410> 614 32<165 201>
VStem: 679 102<293 412>
LayerCount: 2
Fore
SplineSet
781 357 m 0xb8
 781 155 608 -2 388 -3 c 0x78
 300 -3 127 -5 43 -4 c 0
 37 -4 29 -1 31 8 c 0
 35 28 34 30 51 30 c 0
 109 30 122 41 139 128 c 2
 166 269 l 2
 169 285 165 290 151 290 c 2
 74 290 l 2
 58 290 57 297 60 309 c 2
 67 341 l 2
 68 350 66 355 85 355 c 2
 172 355 l 2
 186 355 185 361 188 374 c 2
 219 532 l 2
 228 579 234 614 168 614 c 0
 162 614 132 609 135 623 c 2
 138 638 l 2
 140 646 147 646 156 646 c 2
 444 646 l 2
 646 646 781 533 781 357 c 0xb8
679 363 m 0
 679 461 634 538 552 579 c 0
 507 602 464 609 375 609 c 0
 338 609 327 612 323 594 c 2
 279 376 l 2
 276 361 276 355 293 355 c 2
 422 355 l 2
 437 355 436 349 434 339 c 2
 428 306 l 2
 425 289 420 290 410 290 c 2
 279 290 l 2
 261 290 262 284 259 273 c 0
 249 231 225 130 225 88 c 0
 225 48 245 35 328 35 c 0
 380 35 434 42 468 53 c 0
 591 94 679 223 679 363 c 0
EndSplineSet
EndChar

StartChar: eth
Encoding: 257 240 2
Width: 424
Flags: MW
HStem: -13 49<168 188> 379 50<209.5 295.5>
VStem: 46 76<118.5 197.5> 308 85<201 374>
LayerCount: 2
Fore
SplineSet
421 588 m 0
 422 582 420 574 415 572 c 2
 361 554 l 2
 354 552 350 545 355 536 c 0
 371 506 376 486 384 447 c 0
 390 417 393 388 393 360 c 0
 393 308 382 223 370 187 c 0
 344 111 232 -13 144 -13 c 0
 88 -13 46 63 46 151 c 0
 46 244 95 327 183 387 c 0
 223 414 260 429 288 429 c 0
 303 429 317 416 314 442 c 0
 311 472 305 496 295 520 c 0
 292 527 283 529 273 526 c 2
 191 501 l 2
 182 498 176 504 174 513 c 0
 172 520 174 524 181 526 c 2
 263 551 l 2
 271 553 275 559 271 566 c 0
 257 590 245 602 207 630 c 0
 203 633 200 642 202 650 c 2
 209 659 l 2
 217 664 221 663 227 661 c 0
 266 644 298 618 324 583 c 0
 330 575 341 577 346 579 c 2
 409 599 l 2
 416 601 419 596 421 588 c 0
308 263 m 0
 308 329 274 379 238 379 c 0
 181 379 122 275 122 155 c 0
 122 82 151 36 185 36 c 0
 247 36 308 139 308 263 c 0
EndSplineSet
EndChar

StartChar: Lslash
Encoding: 232 321 3
Width: 593
Flags: MW
HStem: -4 47<273 389 389 416.5 273 544> 615 33<164 203 374 406 406 410>
LayerCount: 2
Fore
SplineSet
623 130 m 2
 587 20 l 2
 582 6 558 -4 544 -4 c 0
 423 -3 136 -2 54 -4 c 0
 36 -4 35 9 36 17 c 0
 39 33 47 35 56 35 c 0
 107 35 126 52 142 130 c 2
 162 228 l 2
 164 238 166 254 153 243 c 0
 129 221 104 200 79 179 c 0
 76 175 67 175 71 191 c 2
 89 261 l 2
 94 280 98 283 104 287 c 2
 180 351 l 2
 186 356 189 367 192 380 c 2
 222 532 l 2
 231 578 237 615 169 615 c 0
 146 615 146 617 149 637 c 0
 150 645 156 648 164 648 c 0
 223 646 344 646 406 648 c 0
 423 648 425 644 422 632 c 0
 419 617 418 615 402 615 c 0
 346 615 327 600 313 529 c 2
 303 479 l 2
 299 461 298 449 307 456 c 0
 334 480 362 503 390 527 c 0
 400 536 405 532 402 520 c 2
 383 448 l 2
 381 440 376 429 366 420 c 2
 286 353 l 2
 283 350 276 343 272 324 c 2
 232 121 l 2
 229 107 228 93 228 82 c 0
 228 55 241 43 273 43 c 2
 389 43 l 2
 444 43 483 52 517 72 c 0
 544 87 562 103 587 134 c 0
 595 144 595 150 608 150 c 2
 614 150 l 2
 622 150 627 142 623 130 c 2
EndSplineSet
EndChar

StartChar: lslash
Encoding: 248 322 4
Width: 233
Flags: MW
HStem: -15 21G<77.5 115.5>
LayerCount: 2
Fore
SplineSet
306 487 m 2
 291 432 l 2
 287 418 283 412 274 404 c 2
 201 342 l 2
 194 336 187 323 185 311 c 2
 136 60 l 2
 135 57 131 38 138 38 c 0
 146 38 165 55 207 103 c 0
 214 110 231 93 222 78 c 0
 171 16 131 -15 100 -15 c 0
 55 -15 60 45 66 75 c 2
 95 225 l 2
 100 251 100 259 91 250 c 0
 69 231 58 221 36 202 c 0
 29 196 9 184 14 204 c 2
 27 259 l 2
 31 274 41 285 46 290 c 2
 108 343 l 2
 116 350 119 355 124 369 c 2
 172 616 l 2
 174 625 167 628 153 621 c 0
 145 617 135 612 123 605 c 0
 117 602 110 600 107 607 c 2
 103 614 l 2
 100 619 100 626 106 630 c 2
 197 683 l 2
 226 700 265 718 254 662 c 2
 213 455 l 2
 211 447 210 427 217 433 c 0
 243 457 269 480 296 502 c 0
 303 509 309 499 306 487 c 2
EndSplineSet
EndChar

StartChar: Scaron
Encoding: 258 352 5
Width: 517
Flags: MW
HStem: -18 37<201 287.5 185.5 308.5> 616 37<287 339 268.5 371>
VStem: 126 78<501 529.5> 389 83<114.5 166.5>
LayerCount: 2
Fore
SplineSet
510 641 m 0
 505 590 496 517 488 474 c 0
 486 467 477 465 472 465 c 0
 465 465 456 468 456 474 c 0
 456 567 415 616 327 616 c 0
 247 616 204 576 204 520 c 0
 204 482 215 453 286 401 c 0
 356 350 392 321 414 299 c 0
 447 266 472 217 472 170 c 0
 472 59 380 -18 237 -18 c 0
 165 -18 87 7 17 46 c 0
 15 48 12 60 13 66 c 0
 18 102 32 156 46 198 c 0
 50 211 78 209 76 196 c 0
 76 184 75 180 75 174 c 0
 75 77 131 19 240 19 c 0
 335 19 389 66 389 133 c 0
 389 200 315 252 262 290 c 0
 156 365 126 418 126 482 c 0
 126 577 210 653 327 653 c 0
 351 653 373 648 393 643 c 0
 412 639 430 634 450 634 c 0
 461 634 471 637 479 645 c 0
 485 657 511 653 510 641 c 0
529 843 m 2
 386 699 l 2
 380 695 369 692 355 692 c 2
 313 692 l 2
 303 690 299 700 297 703 c 2
 260 855 l 2
 258 864 276 864 280 855 c 2
 354 766 l 2
 359 761 366 763 374 768 c 2
 512 855 l 2
 521 860 550 865 529 843 c 2
EndSplineSet
EndChar

StartChar: scaron
Encoding: 259 353 6
Width: 320
Flags: W
HStem: -12 44<71 172> 318 111<219.5 289.5> 387 42<190.5 253.5>
LayerCount: 2
Fore
SplineSet
313 357 m 0xa0
 313 336 299 318 280 318 c 0xc0
 267 318 257 328 249 341 c 0
 239 358 222 387 203 387 c 0
 178 387 148 350 148 324 c 0
 148 291 194 245 215 221 c 0
 245 186 258 155 258 122 c 0
 258 40 194 -12 95 -12 c 0
 47 -12 10 6 14 41 c 0
 20 90 63 78 86 64 c 0
 108 50 131 32 158 32 c 0
 186 32 207 53 207 79 c 0
 207 123 156 173 130 205 c 0
 78 268 78 318 136 378 c 0
 166 410 203 429 236 429 c 0
 271 429 313 390 313 357 c 0xa0
415 629 m 2
 272 485 l 2
 266 481 255 478 241 478 c 2
 199 478 l 2
 189 476 185 486 183 489 c 2
 146 641 l 2
 144 650 162 650 166 641 c 2
 240 552 l 2
 245 547 252 549 260 554 c 2
 398 641 l 2
 407 646 436 651 415 629 c 2
EndSplineSet
EndChar

StartChar: Yacute
Encoding: 260 221 7
Width: 653
Flags: MW
HStem: -3 40<186 186 186 463> 626 20G<116 334 334 337 589 753>
LayerCount: 2
Fore
SplineSet
562 857 m 0
 526 801 470 743 447 720 c 0
 439 710 422 714 426 727 c 0
 436 759 459 823 466 865 c 0
 470 874 480 876 492 877 c 2
 549 880 l 2
 561 882 569 868 562 857 c 0
764 633 m 0
 761 622 755 618 754 618 c 0
 713 602 701 596 660 549 c 2
 410 261 l 1
 380 114 l 2
 377 97 370 75 377 59 c 0
 383 45 400 35 442 36 c 0
 450 36 465 39 472 34 c 0
 481 28 475 -3 463 -3 c 0
 394 0 249 1 166 -3 c 0
 153 -1 157 35 171 36 c 2
 186 37 l 2
 200 38 213 39 224 40 c 0
 234 42 243 45 250 49 c 0
 264 59 275 76 283 116 c 2
 314 264 l 1
 191 545 l 2
 167 599 153 611 123 614 c 0
 111 615 101 614 104 632 c 0
 105 637 110 647 116 646 c 0
 167 644 275 642 334 646 c 0
 340 646 345 640 342 629 c 0
 340 621 337 614 330 615 c 0
 275 610 266 609 293 547 c 2
 392 320 l 2
 393 316 403 317 408 323 c 2
 586 529 l 2
 616 564 623 574 623 586 c 0
 623 603 608 613 565 615 c 0
 553 617 557 649 569 647 c 0
 576 648 583 648 589 646 c 0
 639 645 707 645 753 646 c 0
 761 647 766 639 764 633 c 0
EndSplineSet
EndChar

StartChar: yacute
Encoding: 261 253 8
Width: 437
Flags: W
HStem: -276 37<-29.5 -11> 360 68<136.5 137.5> 409 20G<368 394>
VStem: 163 59 335 91<374.5 388.5 357.5 395>
LayerCount: 2
Fore
SplineSet
374 638 m 0xb8
 338 582 282 524 259 501 c 0
 251 491 234 495 238 508 c 0
 248 540 271 604 278 646 c 0
 282 655 292 657 304 658 c 2
 361 661 l 2
 373 664 381 649 374 638 c 0xb8
426 372 m 0
 426 343 417 319 391 271 c 0
 370 231 337 184 306 140 c 0
 275 95 247 53 233 22 c 0
 201 -51 175 -119 143 -192 c 0
 132 -216 124 -241 174 -241 c 2
 187 -241 l 2
 202 -239 195 -279 176 -278 c 0
 119 -275 28 -274 -22 -276 c 0
 -37 -276 -31 -239 -11 -239 c 0
 39 -238 48 -224 61 -197 c 0
 90 -140 117 -81 132 -39 c 0
 144 -4 160 31 163 69 c 0
 172 191 154 360 121 360 c 0
 106 360 84 333 75 320 c 0
 69 312 63 304 57 295 c 0
 48 282 26 303 37 320 c 0
 83 389 123 428 150 428 c 0xd8
 218 428 227 174 222 83 c 0
 221 69 226 75 232 85 c 0
 270 149 355 291 348 344 c 0
 346 359 335 367 335 382 c 0
 335 408 356 429 380 429 c 0
 408 429 426 405 426 372 c 0
EndSplineSet
EndChar

StartChar: Thorn
Encoding: 262 222 9
Width: 573
Flags: W
HStem: -4 35<265 287> 122 32<326 374 308 399> 485 37<328.5 371.5 328.5 373> 617 30 629 20G<394 396>
VStem: 504 96<297.5 370 263.5 417>
LayerCount: 2
Fore
SplineSet
600 341 m 0xf4
 600 186 465 122 333 122 c 0
 319 122 272 124 277 144 c 0
 281 163 301 154 315 154 c 0
 433 154 504 241 504 354 c 0
 504 480 422 485 324 485 c 0
 315 485 302 477 301 473 c 0
 275 341 243 200 224 78 c 0
 219 46 242 31 288 31 c 0
 302 31 308 27 307 18 c 2
 306 11 l 2
 303 5 297 -4 287 -4 c 0
 233 -2 107 1 59 -4 c 0
 45 -4 43 10 44 16 c 0
 47 31 53 31 64 32 c 0
 110 38 127 57 141 128 c 0
 171 277 201 428 227 574 c 0
 231 599 208 614 169 614 c 0
 157 614 150 619 151 628 c 2
 152 635 l 2
 154 642 162 647 169 647 c 0xf4
 240 645 333 647 394 649 c 0xec
 398 649 401 648 406 646 c 0
 417 640 408 617 399 617 c 0
 348 614 326 592 314 540 c 0
 312 530 321 522 336 522 c 0
 407 522 474 525 533 480 c 0
 577 447 600 399 600 341 c 0xf4
EndSplineSet
EndChar

StartChar: thorn
Encoding: 263 254 10
Width: 446
Flags: MW
HStem: -16 36<194 240.5 194 248> 680 20G<226.5 258.5>
VStem: 355 75<203 293 199 297.5>
LayerCount: 2
Fore
SplineSet
430 272 m 0
 430 126 311 -16 185 -16 c 0
 171 -16 159 -15 147 -12 c 0
 142 -11 132 -24 129 -39 c 2
 114 -117 l 2
 111 -135 104 -159 104 -178 c 0
 104 -200 110 -205 158 -209 c 0
 174 -210 185 -211 181 -229 c 0
 177 -238 172 -244 160 -243 c 0
 105 -241 4 -239 -48 -243 c 0
 -61 -244 -68 -231 -63 -219 c 0
 -60 -214 -55 -211 -43 -212 c 0
 -38 -212 -32 -211 -27 -210 c 0
 10 -204 27 -184 36 -136 c 0
 41 -111 14 -246 178 583 c 0
 180 594 186 636 156 600 c 2
 124 561 l 2
 116 551 108 549 101 556 c 0
 91 566 95 571 99 577 c 0
 154 646 213 700 240 700 c 0
 277 700 260 623 256 603 c 2
 205 348 l 2
 198 311 199 288 204 295 c 0
 239 341 262 365 294 393 c 0
 335 428 370 446 401 390 c 0
 419 357 430 314 430 272 c 0
355 268 m 0
 355 327 336 364 317 364 c 0
 300 364 249 314 194 237 c 0
 182 220 179 216 175 194 c 2
 149 61 l 2
 144 37 186 20 202 20 c 0
 279 20 355 138 355 268 c 0
EndSplineSet
EndChar

StartChar: Zcaron
Encoding: 264 381 11
Width: 687
Flags: MW
HStem: -2 43<436 469 436 585> 605 41<339.5 389 389 557>
LayerCount: 2
Fore
SplineSet
723 616 m 1
 555 459 281 179 164 56 c 0
 154 46 177 42 186 42 c 2
 436 41 l 2
 502 41 519 50 553 81 c 0
 581 106 603 136 632 186 c 0
 637 189 652 191 657 189 c 0
 661 188 662 182 660 175 c 0
 649 118 631 64 614 10 c 0
 611 4 594 -2 585 -2 c 2
 11 -2 l 2
 7 -1 6 6 6 13 c 0
 6 24 16 36 23 43 c 0
 162 186 405 432 573 594 c 0
 580 601 563 605 557 605 c 2
 389 605 l 2
 290 605 239 568 201 468 c 0
 199 459 165 458 167 471 c 0
 174 513 193 595 207 637 c 0
 209 643 224 646 228 646 c 0
 352 644 577 645 704 646 c 0
 728 649 728 633 723 616 c 1
654 843 m 2
 511 699 l 2
 505 695 494 692 480 692 c 2
 438 692 l 2
 428 690 424 700 422 703 c 2
 385 855 l 2
 383 864 401 864 405 855 c 2
 479 766 l 2
 484 761 491 763 499 768 c 2
 637 855 l 2
 646 860 675 865 654 843 c 2
EndSplineSet
EndChar

StartChar: zcaron
Encoding: 265 382 12
Width: 488
Flags: MW
HStem: -11 61<315.5 327> 65 45<92 209.5> 370 57<188.5 208>
LayerCount: 2
Fore
SplineSet
496 403 m 0
 496 331 360 239 309 212 c 0
 245 178 175 152 117 108 c 0
 114 106 107 98 117 101 c 0
 134 107 149 110 171 110 c 0
 248 110 290 50 341 50 c 0
 367 50 391 62 415 99 c 0
 428 114 442 92 436 83 c 0
 397 25 347 -11 307 -11 c 0
 245 -11 193 65 113 65 c 0
 71 65 68 48 68 31 c 0
 68 22 69 12 66 3 c 0
 58 -18 17 -19 17 10 c 0
 17 26 32 58 50 81 c 0
 110 160 218 220 301 263 c 0
 341 284 368 298 388 310 c 0
 400 318 406 321 414 328 c 0
 419 332 423 340 412 335 c 0
 278 279 249 370 167 370 c 0
 112 370 111 303 82 319 c 0
 76 323 70 330 76 338 c 0
 121 399 164 427 213 427 c 0
 286 427 334 363 394 363 c 0
 425 363 446 373 451 396 c 0
 454 411 453 424 474 425 c 0
 488 426 496 416 496 403 c 0
504 629 m 2
 361 485 l 2
 355 481 344 478 330 478 c 2
 288 478 l 2
 278 476 274 486 272 489 c 2
 235 641 l 2
 233 650 251 650 255 641 c 2
 329 552 l 2
 334 547 341 549 349 554 c 2
 487 641 l 2
 496 646 525 651 504 629 c 2
EndSplineSet
EndChar

StartChar: onehalf
Encoding: 266 189 13
Width: 837
Flags: W
HStem: 1 51<641 726 726 744> 1 82<564 782> 313 38<696.5 742>
LayerCount: 2
Fore
SplineSet
830 269 m 0xa0
 830 232 800 192 729 138 c 0
 700 116 673 93 644 70 c 0
 636 64 621 52 641 52 c 2
 726 52 l 2xa0
 773 52 748 83 775 83 c 0x60
 789 83 793 81 790 65 c 2
 780 13 l 2
 778 4 765 0 744 1 c 0
 707 3 616 3 564 1 c 0
 558 1 543 1 541 9 c 0
 541 12 540 18 548 26 c 0
 576 50 612 80 653 117 c 0
 694 155 731 194 748 224 c 0
 771 264 771 313 713 313 c 0
 680 313 654 297 635 261 c 0
 629 250 626 248 612 248 c 0
 602 248 599 254 603 266 c 0
 620 319 666 351 724 351 c 0
 786 351 830 318 830 269 c 0xa0
798 655 m 2
 185 -31 l 1
 176 -34 165 -31 160 -26 c 0
 147 -23 150 -6 159 4 c 2
 754 669 l 2
 765 686 773 690 788 683 c 0
 793 682 804 667 798 655 c 2
327 644 m 2
 262 365 l 2
 257 344 268 341 290 340 c 0
 298 339 306 336 304 326 c 0
 303 323 299 311 287 312 c 0
 255 313 192 315 160 313 c 0
 150 312 136 309 141 327 c 0
 144 338 147 339 158 340 c 0
 161 340 166 340 171 340 c 0
 192 340 196 353 199 366 c 2
 247 573 l 2
 250 586 243 584 239 582 c 0
 211 565 194 557 167 548 c 0
 157 545 151 546 153 557 c 2
 155 567 l 2
 157 575 160 576 165 578 c 0
 208 595 255 622 284 657 c 0
 289 662 293 666 300 666 c 2
 316 666 l 2
 326 666 330 658 327 644 c 2
EndSplineSet
EndChar

StartChar: onequarter
Encoding: 267 188 14
Width: 837
Flags: MW
HStem: -10 21G<703.5 708 708 736> 98 43<645 704 796 822> 310 38
LayerCount: 2
Fore
SplineSet
840 126 m 0
 838 119 842 118 836 106 c 0
 833 99 826 98 822 98 c 2
 788 98 l 1
 781 94 777 89 775 81 c 0
 768 53 762 29 756 2 c 0
 754 -7 746 -10 736 -10 c 2
 708 -10 l 2
 699 -10 691 -4 694 10 c 2
 712 85 l 2
 714 95 707 97 704 98 c 0
 676 96 624 97 599 98 c 0
 590 98 579 99 576 110 c 0
 572 118 578 128 587 137 c 2
 791 336 l 2
 802 347 808 348 824 348 c 0
 836 348 836 337 832 321 c 2
 792 155 l 2
 790 146 793 142 796 141 c 2
 829 141 l 2
 835 141 839 137 840 126 c 0
829 652 m 2
 216 -34 l 1
 204 -38 195 -33 191 -29 c 0
 175 -25 182 -9 185 -5 c 2
 785 666 l 2
 797 683 804 687 819 680 c 0
 837 675 835 664 829 652 c 2
358 641 m 2
 294 362 l 2
 289 341 299 338 321 337 c 0
 329 336 337 333 335 323 c 0
 334 320 330 308 319 309 c 0
 294 310 229 312 191 310 c 0
 181 309 167 306 172 324 c 0
 175 335 179 338 189 339 c 0
 193 339 197 339 203 339 c 0
 223 339 227 350 230 363 c 2
 278 565 l 2
 279 577 274 581 270 579 c 0
 242 562 225 554 198 545 c 0
 188 542 182 543 184 554 c 2
 187 564 l 2
 189 571 196 575 201 577 c 0
 243 594 287 620 316 654 c 0
 320 659 325 663 332 663 c 2
 348 663 l 2
 358 663 361 655 358 641 c 2
755 251 m 2
 754 254 752 257 746 251 c 2
 645 149 l 2
 642 145 639 142 645 141 c 0
 667 139 700 141 717 141 c 0
 724 141 725 144 728 154 c 2
 755 251 l 2
EndSplineSet
EndChar

StartChar: onesuperior
Encoding: 268 185 15
Width: 318
Flags: MW
HStem: 315 29<156 159> 648 20G<299 315 315 320>
LayerCount: 2
Fore
SplineSet
326 646 m 2
 261 367 l 2
 256 346 268 345 290 344 c 0
 298 343 305 338 302 328 c 0
 302 325 298 313 286 314 c 0
 261 315 196 317 159 315 c 0
 148 315 135 312 139 329 c 0
 143 340 146 344 156 344 c 0
 160 344 164 344 170 344 c 0
 191 344 195 355 198 368 c 2
 246 568 l 2
 249 581 245 587 237 582 c 0
 209 565 192 559 165 551 c 0
 156 548 150 548 152 559 c 2
 154 569 l 2
 156 577 163 580 169 582 c 0
 210 599 254 626 283 659 c 0
 287 664 292 668 299 668 c 2
 315 668 l 2
 325 668 329 660 326 646 c 2
EndSplineSet
EndChar

StartChar: threequarters
Encoding: 269 190 16
Width: 837
Flags: W
HStem: -10 21G<701.5 706 706 733> 98 43<794 820> 628 34<280 291>
VStem: 297 68<442 481.5> 314 66<591 607>
LayerCount: 2
Fore
SplineSet
840 127 m 0xe8
 838 120 840 118 834 106 c 0
 831 99 824 98 820 98 c 2
 786 98 l 1
 778 94 776 94 773 81 c 0
 766 53 760 29 754 2 c 0
 752 -7 744 -10 733 -10 c 2
 706 -10 l 2
 697 -10 689 -4 692 10 c 2
 710 85 l 2
 712 95 705 96 702 97 c 0
 674 95 622 97 597 98 c 0
 588 98 577 99 574 110 c 0
 570 118 576 128 585 137 c 2
 789 336 l 2
 800 347 806 348 821 348 c 0
 834 348 834 337 830 321 c 2
 790 155 l 2
 788 146 791 142 794 141 c 2
 827 141 l 2
 833 141 839 138 840 127 c 0xe8
827 652 m 2
 214 -34 l 1
 201 -38 193 -33 189 -29 c 0
 173 -25 180 -9 183 -5 c 2
 783 666 l 2
 794 683 802 687 817 680 c 0
 835 675 833 664 827 652 c 2
380 604 m 0
 380 578 366 558 322 538 c 0
 317 536 318 532 323 530 c 0
 355 518 365 498 365 468 c 0
 365 404 303 340 220 315 c 0
 198 309 115 297 115 336 c 0
 115 351 129 361 145 361 c 0
 155 361 165 356 173 352 c 0
 183 347 194 343 207 343 c 0
 229 343 252 356 270 381 c 0
 288 404 297 430 297 454 c 0xf0
 297 509 254 500 220 485 c 0
 207 479 203 482 199 493 c 1
 202 507 202 507 214 515 c 0
 297 557 314 577 314 599 c 0
 314 615 301 628 281 628 c 0
 263 628 251 621 230 601 c 0
 222 593 218 587 206 595 c 0
 195 603 199 610 205 617 c 0
 231 648 262 662 298 662 c 0
 343 662 380 639 380 604 c 0
754 254 m 2
 753 257 750 257 744 251 c 2
 643 149 l 2
 640 145 637 142 643 141 c 0
 665 139 698 141 715 141 c 0
 721 141 723 144 726 154 c 2
 754 254 l 2
EndSplineSet
EndChar

StartChar: threesuperior
Encoding: 270 179 17
Width: 318
Flags: W
HStem: 626 34<251.5 262>
VStem: 269 68<440 479.5> 286 65<589 605>
LayerCount: 2
Fore
SplineSet
351 602 m 0xa0
 351 576 338 556 294 536 c 0
 289 534 289 530 294 528 c 0
 326 516 337 496 337 466 c 0
 337 402 274 337 192 313 c 0
 169 306 86 295 86 334 c 0
 86 349 100 359 117 359 c 0
 126 359 136 354 145 350 c 0
 155 345 166 341 179 341 c 0
 201 341 223 354 242 379 c 0
 259 402 269 428 269 452 c 0xc0
 269 507 225 498 192 483 c 0
 179 477 175 480 170 491 c 1
 173 505 173 505 185 513 c 0
 268 555 286 575 286 597 c 0xa0
 286 613 272 626 252 626 c 0
 235 626 222 619 201 599 c 0
 193 591 189 584 178 593 c 0
 167 601 171 608 177 615 c 0
 202 646 234 660 269 660 c 0xc0
 315 660 351 637 351 602 c 0xa0
EndSplineSet
EndChar

StartChar: twosuperior
Encoding: 271 178 18
Width: 318
Flags: W
HStem: 315 50<180 265 265 284> 315 82<103 321.5> 627 38<235.5 281>
LayerCount: 2
Fore
SplineSet
370 583 m 0xa0
 370 545 341 504 270 451 c 0
 241 429 212 406 184 384 c 0
 176 378 160 365 180 365 c 2
 265 365 l 2xa0
 312 365 287 397 315 397 c 0x60
 328 397 333 395 330 379 c 2
 319 327 l 2
 317 318 304 314 284 315 c 0
 246 317 156 317 103 315 c 0
 97 315 82 314 81 323 c 0
 80 326 80 332 87 340 c 0
 116 364 150 395 190 432 c 0
 231 469 271 508 288 538 c 0
 310 578 310 627 252 627 c 0
 219 627 193 611 175 575 c 0
 169 564 166 562 152 562 c 0
 142 562 138 568 142 580 c 0
 159 633 205 665 263 665 c 0
 325 665 370 632 370 583 c 0xa0
EndSplineSet
EndChar

StartChar: brokenbar
Encoding: 272 166 19
Width: 519
Flags: MW
HStem: -19 21G<230 288 230 230> 825 20G<230 288 288 288>
VStem: 230 58<-19 354 472 845>
LayerCount: 2
Fore
SplineSet
288 472 m 1
 230 472 l 1
 230 845 l 1
 288 845 l 1
 288 472 l 1
288 -19 m 1
 230 -19 l 1
 230 354 l 1
 288 354 l 1
 288 -19 l 1
EndSplineSet
EndChar

StartChar: minus
Encoding: 273 8722 20
Width: 679
Flags: MW
HStem: 306 57<86 588 86 589 79 588>
LayerCount: 2
Fore
SplineSet
604 317 m 2
 604 308 597 307 589 306 c 2
 79 306 l 2
 73 309 69 310 69 323 c 1
 69 322 69 346 69 346 c 2
 71 354 78 361 86 363 c 2
 588 363 l 2
 601 361 603 356 604 351 c 2
 604 317 l 2
EndSplineSet
EndChar

StartChar: multiply
Encoding: 274 215 21
Width: 680
Flags: MW
HStem: 81 21G<137 137 542 542> 568 20G<136 136 544 544>
LayerCount: 2
Fore
SplineSet
589 541 m 1
 385 333 l 1
 587 127 l 1
 542 81 l 1
 341 287 l 1
 137 81 l 1
 92 127 l 1
 295 333 l 1
 92 541 l 1
 136 588 l 1
 340 379 l 1
 544 588 l 1
 589 541 l 1
EndSplineSet
EndChar

StartChar: exclam
Encoding: 33 33 22
Width: 297
Flags: MW
HStem: -14 117<126 146> 642 20G<253 259 259 273>
LayerCount: 2
Fore
SplineSet
292 601 m 2
 175 177 l 2
 168 164 146 163 146 179 c 2
 203 621 l 2
 207 653 225 662 253 662 c 1
 242 662 259 662 259 662 c 2
 287 662 306 651 292 601 c 2
184 49 m 0
 184 13 161 -14 131 -14 c 0
 102 -14 76 20 86 48 c 1
 90 80 112 103 140 103 c 0
 166 103 184 79 184 49 c 0
EndSplineSet
EndChar

StartChar: quotedbl
Encoding: 34 34 23
Width: 424
Flags: MW
HStem: 642 20G<238.5 278.5 422 469>
LayerCount: 2
Fore
SplineSet
478 587 m 0
 453 511 379 364 379 364 c 2
 370 348 344 352 346 371 c 0
 363 540 360 504 365 563 c 0
 371 622 400 662 444 662 c 0
 494 662 488 619 478 587 c 0
309 621 m 0
 309 584 200 364 200 364 c 2
 190 348 169 354 169 370 c 2
 183 515 l 2
 194 625 211 662 266 662 c 0
 291 662 309 646 309 621 c 0
EndSplineSet
EndChar

StartChar: numbersign
Encoding: 35 35 24
Width: 680
Flags: W
HStem: 180 64<70 140> 407 20G<67 67 276 446 548 617 548 548> 426 65
LayerCount: 2
Fore
SplineSet
640 481 m 1xa0
 636 442 l 2
 633 430 623 427 617 427 c 2
 548 427 l 2xc0
 532 425 526 419 518 402 c 1
 490 265 l 2
 485 241 505 244 507 244 c 0
 534 242 589 244 616 246 c 0
 629 243 637 233 634 215 c 1
 635 201 l 2
 636 182 611 182 611 182 c 1
 582 180 524 179 495 180 c 0
 487 180 475 169 466 144 c 2
 437 0 l 2
 433 -20 424 -26 414 -26 c 2
 389 -25 l 2
 385 -23 369 -18 373 -1 c 2
 403 144 l 2
 407 164 413 178 401 180 c 0
 352 176 262 177 219 180 c 0
 212 179 205 175 202 158 c 2
 169 -5 l 2
 166 -21 158 -28 150 -27 c 2
 122 -25 l 2
 109 -22 104 -13 104 -8 c 2
 140 161 l 2
 139 173 130 180 121 180 c 2
 70 180 l 2
 53 182 46 189 44 194 c 2
 44 227 l 2
 44 233 48 245 69 245 c 2
 134 244 l 2
 146 244 157 252 160 260 c 2
 190 406 l 2
 193 419 187 424 170 426 c 2xa0
 67 427 l 2xc0
 56 429 45 436 44 446 c 2
 44 478 l 1
 48 490 54 492 67 492 c 2
 191 490 l 2
 208 490 212 511 212 511 c 1
 244 668 l 2
 249 691 248 700 269 696 c 1
 294 696 l 2
 316 693 306 683 307 670 c 2
 274 512 l 2
 272 500 281 493 292 491 c 0
 337 488 407 490 448 491 c 0
 469 492 475 506 478 513 c 2
 511 674 l 2
 511 682 513 698 528 696 c 2
 560 699 l 2
 566 702 578 696 573 673 c 2
 540 513 l 2
 537 503 540 491 555 491 c 2
 624 492 l 2
 633 492 637 492 640 481 c 1xa0
456 404 m 2
 457 419 460 428 446 427 c 0
 399 425 315 424 276 427 c 1
 262 424 257 418 252 406 c 2
 222 259 l 2
 221 253 228 246 241 245 c 0
 281 243 351 243 405 245 c 0
 418 247 423 254 427 264 c 2
 456 404 l 2
EndSplineSet
EndChar

StartChar: dollar
Encoding: 36 36 25
Width: 472
Flags: W
HStem: -99 21G<224.5 231.5> -16 21G<215 221> 658 20G<314 317.5>
VStem: 69 78<68.5 122> 154 61<460.5 487> 341 72<101.5 135> 401 73<474 481.5>
LayerCount: 2
Fore
SplineSet
474 490 m 0xfa
 474 458 463 432 437 432 c 0
 414 432 401 451 401 475 c 0xfa
 401 488 405 500 407 513 c 0
 408 517 408 520 408 524 c 0
 408 539 401 552 386 562 c 0
 382 565 378 563 376 554 c 0
 365 487 342 378 329 322 c 0
 326 310 328 302 338 292 c 0
 389 240 413 193 413 143 c 0xfc
 413 60 359 2 273 -13 c 0
 266 -15 260 -14 257 -29 c 2
 245 -90 l 2
 244 -96 235 -99 228 -99 c 0
 221 -99 214 -89 216 -81 c 2
 226 -30 l 2
 226 -23 226 -18 221 -16 c 0
 209 -16 210 -18 197 -15 c 0
 193 -16 190 -13 186 -31 c 2
 175 -83 l 1
 168 -96 140 -90 145 -79 c 2
 155 -31 l 2
 159 -13 159 -5 149 -1 c 0
 102 20 69 60 69 107 c 0
 69 137 88 158 113 158 c 0
 135 158 151 140 151 117 c 0
 151 103 147 90 147 76 c 0
 147 61 152 49 161 39 c 0
 167 32 169 39 172 53 c 0
 189 123 209 215 218 275 c 0
 221 292 216 303 211 309 c 0
 172 353 154 394 154 446 c 0
 154 528 201 587 278 605 c 0
 280 605 284 609 286 617 c 2
 296 666 l 2
 298 674 307 677 314 678 c 0
 321 678 329 674 327 664 c 2
 318 617 l 2
 316 611 319 609 327 609 c 0
 334 609 341 609 347 609 c 0
 355 608 357 612 359 620 c 2
 367 657 l 2
 367 666 377 669 382 669 c 0
 388 669 399 666 397 655 c 2
 389 615 l 2
 387 605 389 601 396 599 c 0
 444 581 474 543 474 490 c 0xfa
347 562 m 0
 347 573 342 576 337 577 c 0
 332 577 326 577 320 577 c 0
 313 577 307 569 306 562 c 2
 269 380 l 2
 264 353 271 359 288 341 c 0
 290 339 301 333 305 352 c 0
 317 404 336 499 347 562 c 0
272 548 m 2
 275 563 269 564 265 562 c 0
 233 543 215 511 215 473 c 0
 215 448 219 432 237 404 c 1
 241 409 243 410 246 419 c 2
 272 548 l 2
341 120 m 0xfc
 341 150 336 165 311 198 c 0
 307 203 303 198 301 189 c 2
 271 39 l 2
 268 26 269 21 276 24 c 0
 315 41 341 77 341 120 c 0xfc
277 217 m 2
 279 226 280 236 273 244 c 0
 269 248 265 253 260 258 c 0
 253 265 247 259 243 247 c 0
 233 185 212 88 200 37 c 0
 200 32 197 19 204 18 c 0
 216 16 216 15 228 15 c 0
 233 15 235 24 239 32 c 2
 277 217 l 2
EndSplineSet
EndChar

StartChar: percent
Encoding: 37 37 26
Width: 731
Flags: W
HStem: -26 21G<221 221> 17 33<566 605.5 566 621> 282 33<198.5 238 198.5 253> 343 33<624.5 664> 608 33<257.5 296.5> 624 20G<626 632>
LayerCount: 2
Fore
SplineSet
752 195 m 0xf4
 733 97 660 17 582 17 c 0
 500 17 458 100 477 198 c 0
 496 296 570 376 648 376 c 0
 729 376 771 293 752 195 c 0xf4
654 619 m 2
 239 -10 l 2
 235 -16 229 -23 221 -26 c 1
 196 -22 l 2
 184 -20 186 -6 194 6 c 0
 605 630 542 534 607 630 c 0
 613 639 620 644 632 644 c 2
 648 640 l 2
 663 633 656 622 654 619 c 2
384 460 m 0
 365 362 292 282 214 282 c 0
 133 282 91 366 110 464 c 0
 129 562 203 641 281 641 c 0xf8
 361 641 403 558 384 460 c 0
678 198 m 0
 699 306 683 343 645 343 c 0
 604 343 571 301 551 195 c 0
 530 87 547 50 585 50 c 0
 626 50 658 92 678 198 c 0
311 464 m 0
 332 572 315 608 278 608 c 0
 237 608 204 566 183 460 c 0
 162 352 180 315 217 315 c 0
 259 315 291 358 311 464 c 0
EndSplineSet
EndChar

StartChar: ampersand
Encoding: 38 38 27
Width: 720
Flags: W
HStem: -19 49<326.5 412.5> 288 56 349 41<310.5 320.5> 408 20G<721.5 743> 522 141<342 555> 626 37<369.5 431.5 342 438.5>
VStem: 91 99<154 230.5> 173 92<466.5 523 451 540.5> 609 39<149.5 219 130.5 228.5> 609 156<149.5 401.5>
LayerCount: 2
Fore
SplineSet
765 392 m 0xfa80
 765 333 708 295 621 288 c 0
 615 287 609 285 615 279 c 0
 638 257 648 234 648 204 c 0
 648 57 471 -19 354 -19 c 0
 237 -19 91 41 91 188 c 0xfa80
 91 273 157 345 252 371 c 0
 259 373 262 378 256 381 c 0
 204 403 173 442 173 491 c 0
 173 590 278 663 406 663 c 0
 457 663 584 641 584 559 c 0
 584 539 565 522 545 522 c 0xf980
 511 522 504 555 498 581 c 0
 491 610 464 626 413 626 c 0
 326 626 265 569 265 477 c 0xf580
 265 425 293 390 328 390 c 0
 335 390 350 393 363 392 c 0
 376 391 389 387 389 371 c 0
 389 336 330 349 311 349 c 0
 241 349 190 290 190 208 c 0
 190 100 266 30 387 30 c 0
 479 30 609 96 609 203 c 0
 609 254 576 288 516 288 c 0
 473 288 445 273 445 265 c 0
 445 262 447 259 451 256 c 0
 459 246 467 238 468 225 c 0
 471 179 402 175 397 233 c 0
 395 256 412 284 431 304 c 0
 463 336 498 346 568 346 c 0
 600 346 632 344 664 344 c 0
 700 344 718 356 718 365 c 0
 718 370 713 376 710 380 c 0
 705 386 702 392 701 400 c 0
 700 417 711 428 732 428 c 0
 754 428 765 411 765 392 c 0xfa80
EndSplineSet
EndChar

StartChar: quotesingle
Encoding: 169 39 28
Width: 223
Flags: MW
HStem: 642 20G<229.5 291>
LayerCount: 2
Fore
SplineSet
252 512 m 2
 192 377 l 2
 187 366 176 361 168 363 c 0
 164 363 157 365 157 376 c 0
 173 541 170 506 175 564 c 0
 181 622 209 662 250 662 c 0
 332 662 267 545 252 512 c 2
EndSplineSet
EndChar

StartChar: parenleft
Encoding: 40 40 29
Width: 306
Flags: W
LayerCount: 2
Fore
SplineSet
406 678 m 1
 299 550 230 415 189 253 c 0
 147 88 161 -72 217 -233 c 0
 225 -255 204 -262 191 -245 c 1
 140 -132 100 -3 100 122 c 0
 100 346 236 552 392 703 c 1
 402 707 419 700 406 678 c 1
EndSplineSet
EndChar

StartChar: parenright
Encoding: 41 41 30
Width: 286
Flags: W
LayerCount: 2
Fore
SplineSet
260 334 m 0
 260 110 125 -96 -32 -247 c 1
 -56 -259 -63 -234 -47 -221 c 0
 62 -95 131 41 172 203 c 0
 216 376 197 520 143 689 c 0
 137 703 156 724 169 702 c 0
 216 588 260 463 260 334 c 0
EndSplineSet
EndChar

StartChar: asterisk
Encoding: 42 42 31
Width: 557
Flags: W
HStem: 247 21G<279.5 304.5> 675 20G<279 305>
VStem: 253 78<641.5 662.5> 280 25<433 435.5 433 437>
LayerCount: 2
Fore
SplineSet
487 377 m 0xe0
 487 360 473 340 450 340 c 0
 422 340 408 359 392 378 c 0
 376 398 356 423 315 448 c 0
 306 453 305 438 305 433 c 0
 306 376 312 364 318 346 c 0
 322 336 326 328 328 320 c 0
 331 312 332 304 332 292 c 0
 332 268 317 247 292 247 c 0
 267 247 252 268 252 292 c 0
 252 304 253 312 256 320 c 0
 258 328 262 336 266 346 c 0
 272 363 278 379 280 433 c 0xd0
 280 441 277 453 270 449 c 0
 228 424 208 398 192 378 c 0
 176 359 162 340 134 340 c 0
 111 340 97 360 97 377 c 0
 97 412 116 419 147 426 c 0
 163 429 182 433 203 440 c 0
 220 445 232 449 253 461 c 0xe0
 259 464 265 476 255 481 c 0
 232 493 220 497 202 503 c 0
 181 509 162 513 147 517 c 0
 116 525 97 534 97 566 c 0
 97 575 104 604 138 604 c 0
 161 604 177 581 190 566 c 0
 207 547 225 524 265 499 c 0
 274 494 280 496 280 508 c 0xd0
 278 550 273 571 267 591 c 0
 261 611 253 631 253 652 c 0
 253 673 266 695 292 695 c 0
 318 695 331 673 331 652 c 0
 331 631 323 611 317 591 c 0
 311 571 306 545 304 503 c 0
 304 493 317 500 323 503 c 0
 362 528 377 547 394 566 c 0
 407 581 423 604 446 604 c 0
 480 604 487 575 487 566 c 0
 487 541 470 528 448 520 c 0
 426 512 400 508 382 503 c 0
 364 497 345 490 323 479 c 0
 312 473 321 467 332 461 c 0
 354 448 364 445 381 440 c 0
 400 434 427 431 448 424 c 0
 470 416 487 404 487 377 c 0xe0
EndSplineSet
EndChar

StartChar: plus
Encoding: 43 43 32
Width: 679
Flags: MW
HStem: 60 21G<306 371 306 306> 301 64<69 306 69 306 371 609> 588 20G<306 371 371 371>
VStem: 306 65<60 301 60 301 365 608>
LayerCount: 2
Fore
SplineSet
609 301 m 1
 371 301 l 1
 371 60 l 1
 306 60 l 1
 306 301 l 1
 69 301 l 1
 69 365 l 1
 306 365 l 1
 306 608 l 1
 371 608 l 1
 371 365 l 1
 609 365 l 1
 609 301 l 1
EndSplineSet
EndChar

StartChar: comma
Encoding: 44 44 33
Width: 257
Flags: W
HStem: 69 20G<144.5 172>
VStem: 110 99<22.5 35.5 -22 50.5>
LayerCount: 2
Fore
SplineSet
209 16 m 0
 209 -60 165 -118 73 -172 c 0
 52 -181 48 -158 61 -148 c 0
 92 -123 140 -92 140 -46 c 0xc0
 140 -15 110 8 110 37 c 0
 110 64 132 89 157 89 c 0
 187 89 209 55 209 16 c 0
EndSplineSet
EndChar

StartChar: hyphen
Encoding: 45 45 34
Width: 363
Flags: MW
HStem: 185 65<47 316 70 307>
LayerCount: 2
Fore
SplineSet
330 234 m 0
 328 220 325 202 323 196 c 0
 321 186 311 184 307 185 c 2
 49 185 l 2
 45 185 41 198 42 210 c 0
 44 220 45 232 47 236 c 0
 50 245 53 250 70 250 c 2
 316 250 l 2
 326 250 332 246 330 234 c 0
EndSplineSet
EndChar

StartChar: period
Encoding: 46 46 35
Width: 247
Flags: MW
HStem: -14 110<117 135.5>
LayerCount: 2
Fore
SplineSet
173 46 m 0
 173 13 150 -14 121 -14 c 0
 89 -14 78 15 81 42 c 0
 84 72 104 96 130 96 c 0
 155 96 173 74 173 46 c 0
EndSplineSet
EndChar

StartChar: slash
Encoding: 47 47 36
Width: 349
Flags: W
HStem: -63 21G<41 68> -62 21G<-4.5 1>
LayerCount: 2
Fore
SplineSet
368 584 m 2x40
 68 -42 l 2
 61 -53 54 -63 41 -63 c 2x80
 1 -62 l 2
 -10 -62 -11 -45 -4 -37 c 2
 301 599 l 2
 311 620 323 621 331 620 c 2
 361 617 l 2
 368 616 381 611 368 584 c 2x40
EndSplineSet
EndChar

StartChar: zero
Encoding: 48 48 37
Width: 432
Flags: MW
HStem: -16 54<134.5 237> 397 57<229.5 335.5>
VStem: 60 82<123.5 208> 331 81<254 310>
LayerCount: 2
Fore
SplineSet
412 287 m 0
 412 221 393 160 356 110 c 0
 324 68 270 24 219 1 c 0
 196 -9 175 -16 160 -16 c 0
 109 -16 60 73 60 162 c 0
 60 254 113 345 201 407 c 0
 240 434 284 454 310 454 c 0
 361 454 412 372 412 287 c 0
331 273 m 0
 331 347 296 397 258 397 c 0
 201 397 142 289 142 159 c 0
 142 88 174 38 206 38 c 0
 268 38 331 146 331 273 c 0
EndSplineSet
EndChar

StartChar: one
Encoding: 49 49 38
Width: 380
Flags: MW
HStem: -3 33 440 20G<297.5 305.5>
LayerCount: 2
Fore
SplineSet
320 448 m 2
 250 88 l 2
 241 41 241 34 311 30 c 0
 324 29 319 -4 306 -3 c 0
 257 -1 142 -1 81 -3 c 0
 72 -3 72 14 77 24 c 0
 84 39 104 30 117 31 c 0
 144 33 162 41 169 76 c 2
 224 358 l 2
 226 370 231 382 223 380 c 2
 156 350 l 2
 150 347 146 355 146 363 c 0
 146 370 148 379 156 382 c 2
 279 454 l 2
 284 458 294 460 301 460 c 0
 310 460 322 456 320 448 c 2
EndSplineSet
EndChar

StartChar: two
Encoding: 50 50 39
Width: 414
Flags: W
HStem: -4 21G<44 47> -3 73<272.5 273 132 311> 402 53<256.5 280.5>
VStem: 325 84<314.5 367.5>
LayerCount: 2
Fore
SplineSet
409 346 m 0xb0
 409 271 341 224 279 187 c 0
 189 132 162 110 133 82 c 0
 132 81 122 71 132 70 c 0
 166 68 236 68 273 70 c 0
 296 71 316 72 329 94 c 0
 334 103 338 113 347 128 c 0
 354 144 385 138 378 123 c 0
 364 93 351 49 331 11 c 0
 325 3 317 -3 305 -3 c 0x70
 240 -3 109 -2 47 -4 c 0
 41 -4 35 6 36 15 c 0
 36 28 38 23 44 33 c 0
 75 73 117 122 187 180 c 0
 235 221 325 279 325 350 c 0
 325 385 296 402 265 402 c 0
 214 402 177 360 145 323 c 0
 133 310 113 332 120 346 c 0
 154 388 215 455 298 455 c 0
 366 455 409 400 409 346 c 0xb0
EndSplineSet
EndChar

StartChar: three
Encoding: 51 51 40
Width: 427
Flags: W
HStem: -187 52<119.5 134> 399 53<288.5 296.5>
VStem: 300 86<30.5 110.5> 334 52 334 87<333.5 363.5>
LayerCount: 2
Fore
SplineSet
421 365 m 0xd0
 421 302 351 254 304 230 c 0
 296 226 301 221 309 218 c 0
 351 201 386 163 386 116 c 0
 386 -55 196 -187 72 -187 c 0
 21 -187 -1 -165 -1 -140 c 0
 -1 -108 23 -88 52 -100 c 0
 81 -112 103 -135 136 -135 c 0
 205 -135 300 -43 300 83 c 0xe0
 300 138 273 176 232 176 c 0
 213 176 196 171 175 162 c 0
 154 153 152 187 169 195 c 0
 229 222 334 273 334 348 c 0
 334 379 311 399 282 399 c 0
 247 399 202 377 142 316 c 0
 135 309 106 323 118 339 c 0
 197 426 260 452 317 452 c 0
 418 452 421 377 421 365 c 0xd0
EndSplineSet
EndChar

StartChar: four
Encoding: 52 52 41
Width: 448
Flags: MW
HStem: 33 61<359 411> 424 20G<394.5 411.5>
LayerCount: 2
Fore
SplineSet
420 94 m 0
 440 95 428 30 411 33 c 1
 397 31 368 31 352 33 c 0
 342 32 336 29 332 21 c 2
 294 -167 l 2
 291 -181 279 -187 270 -185 c 2
 238 -184 l 2
 225 -184 212 -179 215 -165 c 2
 252 18 l 2
 255 25 248 32 240 33 c 0
 191 30 123 32 82 33 c 0
 72 33 62 42 62 52 c 0
 62 66 61 73 71 85 c 0
 185 227 274 337 373 435 c 0
 382 444 388 444 401 444 c 0
 422 444 412 415 410 404 c 2
 350 108 l 2
 348 97 356 95 359 94 c 0
 375 93 405 94 420 94 c 0
315 310 m 2
 317 320 313 330 308 324 c 0
 237 247 176 167 123 101 c 0
 120 95 130 92 138 90 c 0
 167 89 225 89 255 90 c 0
 257 91 270 91 271 97 c 2
 315 310 l 2
EndSplineSet
EndChar

StartChar: five
Encoding: 53 53 42
Width: 432
Flags: MW
HStem: -172 63<80 186.5>
VStem: 296 69<90.5 128.5>
LayerCount: 2
Fore
SplineSet
387 461 m 2
 365 384 l 2
 356 353 350 360 324 360 c 0
 306 360 226 363 211 363 c 0
 206 363 195 360 193 351 c 2
 181 305 l 2
 178 293 173 288 195 284 c 0
 289 268 365 210 365 109 c 0
 365 72 359 9 291 -66 c 0
 251 -110 170 -172 89 -172 c 0
 71 -172 11 -166 11 -131 c 0
 11 -115 29 -80 53 -80 c 0
 81 -80 115 -109 147 -109 c 0
 226 -109 296 -25 296 73 c 0
 296 184 162 214 148 215 c 0
 128 216 127 227 131 240 c 0
 146 296 157 348 171 408 c 0
 179 441 190 441 221 441 c 0
 237 441 345 438 351 444 c 0
 355 447 358 459 360 464 c 0
 363 472 388 473 387 461 c 2
EndSplineSet
EndChar

StartChar: six
Encoding: 54 54 43
Width: 463
Flags: MW
HStem: -9 54<233.5 265> 385 66<294.5 365.5> 650 20G<483 490.5>
VStem: 86 86<162 213.5 146 277> 357 80<227 294.5>
LayerCount: 2
Fore
SplineSet
484 640 m 0
 368 608 260 520 202 360 c 0
 198 350 198 337 206 346 c 0
 219 362 233 377 251 394 c 0
 288 430 332 451 347 451 c 0
 384 451 437 388 437 302 c 0
 437 152 312 -9 218 -9 c 0
 132 -9 86 112 86 212 c 0
 86 342 153 459 245 548 c 0
 348 649 435 663 483 670 c 0
 498 670 497 642 484 640 c 0
357 258 m 0
 357 331 328 385 305 385 c 0
 284 385 247 349 223 321 c 0
 174 261 172 235 172 192 c 0
 172 100 213 45 254 45 c 0
 306 45 357 142 357 258 c 0
EndSplineSet
EndChar

StartChar: seven
Encoding: 55 55 44
Width: 409
Flags: MW
HStem: 366 75<308.5 332>
LayerCount: 2
Fore
SplineSet
420 424 m 1
 414 407 405 391 396 375 c 2
 127 -125 l 2
 117 -143 112 -173 87 -171 c 2
 59 -169 l 2
 31 -167 51 -136 58 -124 c 2
 339 351 l 2
 342 356 339 366 332 366 c 0
 288 365 229 366 189 366 c 0
 147 366 140 373 127 332 c 2
 108 274 l 2
 105 266 94 266 87 270 c 0
 81 273 82 278 84 287 c 0
 91 321 105 387 116 418 c 0
 124 440 132 441 155 443 c 0
 231 448 279 441 338 441 c 0
 357 441 384 442 409 444 c 0
 421 445 420 437 420 424 c 1
EndSplineSet
EndChar

StartChar: eight
Encoding: 56 56 45
Width: 463
Flags: W
HStem: -12 41<202 215.5> 569 45<290.5 373.5>
VStem: 57 71<146.5 188> 153 69<430 512> 329 62<138.5 197> 379 71<489.5 506>
LayerCount: 2
Fore
SplineSet
450 506 m 0xf4
 450 473 427 422 323 357 c 0
 318 354 315 350 321 345 c 0
 352 314 391 270 391 201 c 0xf8
 391 76 249 -12 182 -12 c 0
 166 -12 136 -10 94 48 c 0
 73 78 57 115 57 147 c 0
 57 229 153 295 205 327 c 0
 209 330 212 337 207 343 c 0
 183 370 153 410 153 450 c 0
 153 477 160 513 231 565 c 0
 241 572 306 614 342 614 c 0
 405 614 450 543 450 506 c 0xf4
379 484 m 0
 379 528 321 569 299 569 c 0
 282 569 222 540 222 484 c 0
 222 443 257 404 286 376 c 0
 291 371 297 377 302 380 c 0
 338 405 379 439 379 484 c 0
329 162 m 0xf8
 329 232 277 280 244 307 c 0
 240 310 235 311 229 307 c 0
 186 278 128 233 128 174 c 0
 128 119 185 29 219 29 c 0
 237 29 329 73 329 162 c 0xf8
EndSplineSet
EndChar

StartChar: nine
Encoding: 57 57 46
Width: 494
Flags: MW
HStem: -1 63<151.5 233> 399 56<266.5 289>
VStem: 86 79<153.5 232.5> 352 88<186.5 283 178.5 300.5>
LayerCount: 2
Fore
SplineSet
440 229 m 0
 440 128 390 7 301 -82 c 0
 229 -153 153 -188 57 -212 c 0
 35 -217 37 -187 46 -182 c 0
 189 -131 263 -56 314 61 c 0
 320 75 321 87 312 78 c 0
 277 43 229 -1 178 -1 c 0
 125 -1 86 56 86 141 c 0
 86 324 231 455 302 455 c 0
 388 455 440 337 440 229 c 0
352 254 m 0
 352 347 307 399 271 399 c 0
 221 399 165 320 165 187 c 0
 165 120 188 62 219 62 c 0
 247 62 352 119 352 254 c 0
EndSplineSet
EndChar

StartChar: colon
Encoding: 58 58 47
Width: 297
Flags: MW
HStem: -14 116<149.5 173> 308 117<210.5 233>
VStem: 112 97<31 53.5>
LayerCount: 2
Fore
SplineSet
272 370 m 0
 272 334 248 308 218 308 c 0
 188 308 171 339 174 368 c 0
 177 395 194 425 227 425 c 0
 253 425 272 400 272 370 c 0
209 49 m 0
 209 13 188 -14 158 -14 c 0
 132 -14 112 9 112 39 c 0
 112 68 133 102 166 102 c 0
 192 102 209 79 209 49 c 0
EndSplineSet
EndChar

StartChar: semicolon
Encoding: 59 59 48
Width: 297
Flags: W
HStem: 308 117<207 227.5 207 227.5>
VStem: 109 101<40.5 43 -17.5 62.5>
LayerCount: 2
Fore
SplineSet
268 371 m 0
 268 335 243 308 212 308 c 0
 196 308 184 323 174 333 c 0
 164 344 166 358 167 371 c 0
 171 403 193 425 221 425 c 0
 234 425 238 420 253 412 c 0
 267 404 268 387 268 371 c 0
210 22 m 0
 210 -57 166 -119 71 -177 c 0
 68 -179 55 -177 54 -172 c 0
 50 -165 48 -155 60 -148 c 0
 94 -127 138 -91 138 -44 c 0xc0
 138 -30 136 -23 124 -2 c 0
 113 19 109 33 109 48 c 0
 109 77 129 101 156 101 c 0
 188 101 210 64 210 22 c 0
EndSplineSet
EndChar

StartChar: less
Encoding: 60 60 49
Width: 679
Flags: MW
HStem: 74 21G<609 609> 574 20G<609 609>
LayerCount: 2
Fore
SplineSet
609 74 m 1
 70 307 l 1
 70 362 l 1
 609 594 l 1
 609 523 l 1
 162 334 l 1
 609 145 l 1
 609 74 l 1
EndSplineSet
EndChar

StartChar: equal
Encoding: 61 61 50
Width: 679
Flags: MW
HStem: 188 65<70 609 70 609> 418 65<70 609 70 609>
LayerCount: 2
Fore
SplineSet
609 418 m 1
 70 418 l 1
 70 483 l 1
 609 483 l 1
 609 418 l 1
609 188 m 1
 70 188 l 1
 70 253 l 1
 609 253 l 1
 609 188 l 1
EndSplineSet
EndChar

StartChar: greater
Encoding: 62 62 51
Width: 679
Flags: MW
HStem: 74 21G<70 70> 574 20G<70 70>
LayerCount: 2
Fore
SplineSet
609 306 m 1
 70 74 l 1
 70 145 l 1
 518 333 l 1
 70 522 l 1
 70 594 l 1
 609 361 l 1
 609 306 l 1
EndSplineSet
EndChar

StartChar: question
Encoding: 63 63 52
Width: 403
Flags: W
HStem: -14 21G<119.5 145.5> 561 101<177.5 294.5> 576 86<262 293>
VStem: 352 44<480 522>
LayerCount: 2
Fore
SplineSet
396 499 m 0xd0
 396 437 377 380 344 348 c 0
 299 305 239 303 208 244 c 0
 195 219 190 208 182 170 c 0
 179 156 150 157 151 176 c 0
 156 256 176 314 201 348 c 0
 223 378 263 395 294 415 c 0
 326 435 352 459 352 501 c 0
 352 543 317 576 269 576 c 0xb0
 255 576 241 572 227 568 c 0
 214 565 201 561 187 561 c 0
 168 561 157 582 157 604 c 0
 157 640 201 662 252 662 c 0
 337 662 396 596 396 499 c 0xd0
192 45 m 0
 191 27 181 14 177 4 c 0
 172 -6 154 -14 137 -14 c 0
 102 -14 91 16 94 45 c 0
 95 61 98 76 109 84 c 0
 120 93 131 103 146 103 c 0
 160 103 176 96 181 84 c 0
 186 72 193 59 192 45 c 0
EndSplineSet
EndChar

StartChar: at
Encoding: 64 64 53
Width: 933
Flags: W
HStem: -214 42<416 615.5 416 625.5> 12 48<658 729> 12 72<363.5 475.5> 457 35<566.5 590.5 550.5 594.5> 684 39<459 666.5>
VStem: 100 58<96 344.5 96 364.5> 297 89<131 178> 888 42<330 469.5>
LayerCount: 2
Fore
SplineSet
969 94 m 0xdf
 907 -102 726 -214 525 -214 c 0
 275 -214 100 -34 100 225 c 0
 100 504 307 723 571 723 c 0
 784 723 930 580 930 372 c 0
 930 175 806 12 652 12 c 0
 599 12 571 38 571 88 c 0
 571 98 579 145 559 121 c 0
 542 99 530 87 509 68 c 0
 470 32 427 12 391 12 c 0
 336 12 297 66 297 135 c 0
 297 221 347 332 422 409 c 0
 473 462 528 492 573 492 c 0
 608 492 633 479 649 453 c 0
 656 441 657 432 661 447 c 0
 671 483 666 477 687 480 c 2
 733 487 l 2
 750 490 757 479 750 454 c 0
 691 249 706 301 670 173 c 0
 662 146 631 60 685 60 c 0
 815 60 888 279 888 381 c 0
 888 558 758 684 575 684 c 0
 343 684 158 477 158 212 c 0
 158 -20 305 -172 527 -172 c 0
 704 -172 854 -85 929 94 c 0
 936 117 972 114 969 94 c 0xdf
634 389 m 0
 634 430 611 457 578 457 c 0
 555 457 526 441 501 412 c 0
 439 338 386 217 386 150 c 0
 386 112 410 84 436 84 c 0xbf
 515 84 591 209 612 277 c 0
 627 326 634 362 634 389 c 0
EndSplineSet
EndChar

StartChar: A
Encoding: 65 65 54
Width: 693
Flags: W
HStem: -4 21G<206 215 371.5 379 379 658> -3 35<-36 -32> 275 53<290.5 470 341 469>
VStem: 488 97<76.5 83 63 107>
LayerCount: 2
Fore
SplineSet
676 12 m 0x70
 675 1 670 -5 658 -4 c 0
 590 -1 450 -3 379 -4 c 0xb0
 364 -4 365 32 383 32 c 0x70
 469 32 488 46 488 107 c 2
 489 262 l 2
 489 267 475 275 469 275 c 0
 415 278 343 278 295 275 c 0
 286 275 274 269 264 259 c 2
 149 104 l 2
 137 88 134 75 134 65 c 0
 134 35 159 35 185 33 c 0
 194 32 203 33 210 33 c 0
 228 33 224 -4 206 -4 c 0xb0
 137 -3 40 -1 -32 -3 c 0
 -48 -3 -47 32 -25 32 c 0
 25 40 47 53 98 120 c 2
 510 656 l 2
 517 666 579 670 579 653 c 2
 585 83 l 2
 585 43 606 36 629 33 c 0
 637 32 647 34 656 34 c 0
 659 34 661 34 663 34 c 0
 673 33 678 23 676 12 c 0x70
490 343 m 2
 490 533 l 2
 490 556 472 538 469 535 c 0
 424 478 370 395 332 347 c 0
 328 343 330 328 341 328 c 0
 378 330 438 329 470 328 c 0
 476 328 490 331 490 343 c 2
EndSplineSet
EndChar

StartChar: B
Encoding: 66 66 55
Width: 646
Flags: W
HStem: -4 41 346 39<296 344 309 338> 609 37 627 20G<148 152>
VStem: 514 103<175.5 229 132.5 248.5> 535 100<489.5 534>
LayerCount: 2
Fore
SplineSet
635 505 m 0xe4
 635 436 585 382 502 362 c 0
 496 360 493 355 500 353 c 0
 573 324 617 264 617 194 c 0
 617 71 511 -6 341 -4 c 0
 269 -3 114 -1 31 -3 c 0
 15 -6 19 36 37 36 c 0
 46 36 53 33 65 36 c 0
 105 42 119 60 133 128 c 2
 216 518 l 2
 226 567 241 610 169 609 c 0xe8
 155 612 135 607 138 630 c 0
 138 637 144 647 152 647 c 0xd8
 216 644 355 644 429 646 c 0
 557 649 635 596 635 505 c 0xe4
535 513 m 0
 535 555 517 585 487 598 c 0
 466 607 437 611 390 611 c 2
 355 611 l 2
 343 611 330 598 328 590 c 2
 293 419 l 2
 290 406 297 385 309 385 c 2
 344 385 l 2
 413 385 443 392 474 409 c 0
 514 432 535 466 535 513 c 0
514 205 m 0xe8
 514 292 449 346 338 346 c 2
 302 346 l 2
 290 346 279 341 271 322 c 2
 233 140 l 2
 217 61 233 37 323 37 c 0
 383 37 413 43 445 65 c 0
 488 95 514 146 514 205 c 0xe8
EndSplineSet
EndChar

StartChar: C
Encoding: 67 67 56
Width: 712
Flags: MW
HStem: -18 40<284 368> 623 40<394 539 368.5 550.5>
VStem: 29 105<191.5 366.5 191.5 386.5>
LayerCount: 2
Fore
SplineSet
727 586 m 0
 721 566 709 529 689 457 c 0
 684 441 653 444 657 460 c 0
 660 472 660 475 660 487 c 0
 660 576 608 623 493 623 c 0
 295 623 134 465 134 268 c 0
 134 115 214 22 354 22 c 0
 460 22 546 73 614 171 c 0
 619 182 649 176 643 159 c 2
 592 4 l 2
 589 -4 578 -5 571 0 c 0
 532 12 521 6 480 -2 c 0
 426 -13 387 -18 349 -18 c 0
 174 -18 29 93 29 278 c 0
 29 495 237 663 500 663 c 0
 578 663 643 648 713 621 c 0
 721 618 733 605 727 586 c 0
EndSplineSet
EndChar

StartChar: D
Encoding: 68 68 57
Width: 793
Flags: MW
HStem: -3 42<262 329 262 363> 607 39<123 423 344.5 350>
VStem: 672 108<293 445 256 455.5>
LayerCount: 2
Fore
SplineSet
780 357 m 0
 780 155 597 -5 363 -3 c 0
 272 -2 96 -1 13 -3 c 0
 -3 -3 -4 21 6 32 c 0
 12 40 25 40 34 40 c 0
 39 40 44 39 53 40 c 0
 98 42 107 51 123 128 c 2
 209 530 l 2
 220 583 223 604 153 606 c 2
 123 607 l 2
 104 608 111 646 128 646 c 0
 198 644 323 645 423 646 c 0
 637 647 780 533 780 357 c 0
672 363 m 0
 672 548 521 614 350 607 c 0
 339 607 323 602 318 588 c 2
 217 115 l 2
 202 44 223 39 301 39 c 0
 357 39 414 46 449 57 c 0
 580 98 672 223 672 363 c 0
EndSplineSet
EndChar

StartChar: E
Encoding: 69 69 58
Width: 662
Flags: MW
HStem: -2 43 308 40<278 359 292 351 351 359 359 403> 608 38<341.5 344 344 496>
LayerCount: 2
Fore
SplineSet
658 618 m 2
 632 501 l 1
 634 487 602 489 604 502 c 0
 605 512 605 514 605 519 c 0
 605 582 576 608 496 608 c 2
 344 608 l 2
 339 608 323 605 317 578 c 2
 272 361 l 2
 271 355 280 348 292 348 c 2
 292 348 334 346 359 348 c 0
 384 350 439 348 439 348 c 2
 496 348 520 362 543 413 c 0
 547 425 579 422 572 407 c 0
 561 365 548 274 535 229 c 0
 534 216 500 215 504 230 c 0
 505 236 505 240 505 245 c 0
 505 293 486 308 403 308 c 2
 403 308 383 310 351 308 c 0
 320 307 283 308 283 308 c 2
 273 308 257 294 256 285 c 2
 216 99 l 2
 202 35 261 38 309 38 c 2
 379 38 l 2
 445 38 485 50 523 78 c 0
 554 100 566 109 593 145 c 0
 598 152 602 153 609 153 c 0
 613 153 623 150 621 141 c 0
 607 107 586 42 575 9 c 1
 566 -1 561 -2 533 -2 c 2
 13 -3 l 2
 -6 -5 2 39 25 40 c 0
 36 41 47 40 55 41 c 0
 99 44 110 55 123 116 c 2
 211 531 l 2
 216 553 217 565 217 572 c 0
 217 598 196 611 155 611 c 2
 129 611 l 2
 111 609 120 650 136 646 c 0
 261 645 506 645 638 646 c 0
 661 646 663 641 658 618 c 2
EndSplineSet
EndChar

StartChar: F
Encoding: 70 70 59
Width: 549
Flags: W
HStem: -4 21G -3 39 307 42<281 283 281 399> 608 38<462 462>
LayerCount: 2
Fore
SplineSet
610 622 m 0x70
 605 590 593 531 585 500 c 0
 584 491 554 485 555 501 c 0
 555 509 556 515 556 519 c 0
 556 587 535 607 462 608 c 2
 340 609 l 2
 327 609 316 593 313 578 c 2
 269 372 l 2
 266 359 272 349 281 349 c 0
 314 350 380 350 413 349 c 0
 461 348 479 365 506 415 c 0
 510 427 541 421 538 412 c 0
 524 362 507 268 501 228 c 0
 498 211 470 213 470 226 c 0
 470 291 454 309 399 307 c 0
 364 306 299 307 267 307 c 0
 264 307 256 304 252 287 c 2
 215 114 l 2
 207 75 198 45 251 37 c 0
 259 36 268 38 278 38 c 0
 290 42 304 32 306 24 c 0
 307 13 302 -3 291 -4 c 0xb0
 222 -1 87 0 21 -3 c 0
 6 -4 8 37 25 35 c 0
 33 35 40 36 48 36 c 0
 90 38 104 52 118 116 c 2
 207 531 l 2
 212 553 213 561 213 570 c 0
 213 594 192 610 152 610 c 2
 135 610 l 2
 121 610 122 648 140 646 c 0
 251 645 453 645 589 646 c 0
 602 646 614 645 610 622 c 0x70
EndSplineSet
EndChar

StartChar: G
Encoding: 71 71 60
Width: 747
Flags: MW
HStem: -18 37<318 433.5 318 444> 625 37<380 516 355.5 533.5>
VStem: 66 102<192 370.5 192 389.5> 573 75
LayerCount: 2
Fore
SplineSet
744 247 m 0
 758 245 754 214 741 213 c 0
 737 213 733 213 729 212 c 0
 689 207 673 201 665 155 c 0
 660 126 648 94 648 65 c 0
 648 57 655 49 680 48 c 0
 691 45 689 22 676 19 c 0
 593 -3 488 -18 400 -18 c 0
 227 -18 66 87 66 285 c 0
 66 494 232 662 479 662 c 0
 553 662 629 645 709 615 c 0
 718 612 720 603 720 586 c 2
 722 473 l 1
 727 456 696 454 693 466 c 0
 668 566 593 625 474 625 c 0
 286 625 168 470 168 271 c 0
 168 113 232 19 404 19 c 0
 463 19 520 36 542 56 c 0
 561 75 573 146 573 173 c 0
 573 204 563 208 518 213 c 2
 509 214 l 2
 491 218 503 247 515 247 c 0
 587 245 687 245 744 247 c 0
EndSplineSet
EndChar

StartChar: H
Encoding: 72 72 61
Width: 773
Flags: W
HStem: -3 38<-11 21 21 21 234 269> -1 21G<690 696.5> 305 45 612 35<566 595>
LayerCount: 2
Fore
SplineSet
830 647 m 0xb0
 846 648 837 613 826 611 c 0
 818 611 808 613 800 612 c 0
 756 608 740 591 724 516 c 2
 639 114 l 2
 636 102 634 90 634 78 c 0
 634 50 649 39 688 37 c 0
 698 36 706 39 716 37 c 0
 725 36 728 14 723 4 c 0
 716 -7 703 -1 690 -1 c 0x70
 616 1 521 -2 437 -3 c 0
 424 -1 422 -2 420 4 c 0
 416 15 422 36 433 35 c 0
 445 38 459 34 472 35 c 0
 515 40 529 56 542 116 c 2
 578 286 l 2
 582 304 563 304 561 304 c 0
 489 307 365 306 268 305 c 0
 260 304 248 298 246 288 c 2
 209 114 l 2
 197 59 199 35 269 35 c 0
 278 37 284 36 293 34 c 0
 312 34 303 -5 291 -3 c 0
 194 -1 102 -1 -5 -3 c 0
 -17 -3 -14 33 1 34 c 2
 21 35 l 2
 77 38 99 50 115 128 c 2
 200 532 l 2
 209 574 215 613 153 609 c 0
 129 608 125 613 117 612 c 0
 103 615 106 649 123 648 c 0
 196 646 338 645 408 648 c 0
 423 650 418 610 406 610 c 0
 393 611 379 611 366 610 c 0
 325 607 309 590 296 529 c 2
 263 370 l 2
 258 358 269 350 274 350 c 0
 361 352 503 352 576 350 c 0
 583 350 594 356 595 362 c 2
 630 532 l 2
 643 596 629 612 561 612 c 0
 549 612 549 647 566 647 c 0
 629 645 759 645 830 647 c 0xb0
EndSplineSet
EndChar

StartChar: I
Encoding: 73 73 62
Width: 356
Flags: MW
HStem: -3 37<34 39 30.5 300> 612 34
LayerCount: 2
Fore
SplineSet
417 646 m 0
 437 646 425 614 415 613 c 0
 412 612 408 611 404 612 c 0
 344 609 331 600 316 529 c 2
 229 114 l 2
 227 103 223 93 223 82 c 0
 223 34 256 32 302 33 c 0
 320 33 314 -2 300 -3 c 0
 215 0 119 0 34 -3 c 0
 15 -4 22 34 39 34 c 0
 104 33 120 55 133 116 c 2
 220 532 l 2
 224 553 226 566 226 574 c 0
 226 599 209 607 167 609 c 0
 163 609 154 609 150 610 c 0
 136 614 140 631 147 640 c 0
 152 647 155 646 165 646 c 0
 240 645 348 644 417 646 c 0
EndSplineSet
EndChar

StartChar: J
Encoding: 74 74 63
Width: 338
Flags: W
HStem: -287 63<-128 1> 626 20G<402 411> 627 20G<133.5 136>
LayerCount: 2
Fore
SplineSet
402 646 m 0xc0
 420 646 410 612 398 610 c 0
 389 610 379 610 370 609 c 0
 329 605 313 589 302 529 c 2
 200 -14 l 2
 182 -111 158 -158 98 -207 c 0
 38 -257 -24 -287 -104 -287 c 0
 -152 -287 -177 -279 -177 -255 c 0
 -177 -247 -171 -227 -161 -214 c 0
 -152 -202 -136 -198 -124 -198 c 0
 -107 -198 -93 -208 -77 -213 c 0
 -59 -219 -43 -224 -23 -224 c 0
 25 -224 53 -200 70 -162 c 0
 77 -145 81 -131 88 -95 c 2
 206 531 l 2
 210 552 211 563 211 571 c 0
 211 595 196 609 164 613 c 0
 154 614 143 611 132 614 c 1
 117 610 115 631 124 641 c 0
 127 644 131 647 136 647 c 0xa0
 200 645 333 644 402 646 c 0xc0
EndSplineSet
EndChar

StartChar: K
Encoding: 75 75 64
Width: 710
Flags: W
HStem: -4 36<241 283 241 287> -3 21G<543.5 548 548 688> 613 33<153 408 153 408 364.5 394> 625 20G<546 554>
LayerCount: 2
Fore
SplineSet
792 637 m 0xa0
 793 630 789 616 782 615 c 0
 766 612 750 608 734 604 c 0
 695 596 637 571 559 511 c 2
 559 511 454 432 378 373 c 0
 368 366 363 354 368 347 c 0
 417 282 515 157 568 93 c 0
 608 44 642 31 687 31 c 2
 694 31 l 2
 710 31 702 -5 688 -3 c 0
 650 -2 591 -1 548 -3 c 0x60
 539 -3 529 0 525 3 c 0
 465 76 363 205 303 284 c 0
 297 293 281 303 274 299 c 0
 258 289 257 289 250 271 c 2
 218 113 l 2
 207 57 202 32 280 32 c 0
 286 32 294 32 298 27 c 0
 301 23 301 20 300 15 c 0
 298 6 297 -1 287 -4 c 0
 219 -2 86 -1 22 -4 c 0
 17 -3 13 -1 11 2 c 0
 5 11 14 27 20 29 c 0
 29 32 37 31 48 32 c 0
 94 35 109 53 122 115 c 2
 209 531 l 2
 213 552 215 565 215 573 c 0
 215 598 200 613 159 613 c 2
 153 613 l 2
 141 611 139 636 150 643 c 0
 156 647 159 647 169 646 c 0
 230 646 346 644 408 646 c 0
 415 646 419 641 420 635 c 0
 421 626 414 612 404 612 c 2
 394 613 l 1xa0
 335 613 319 599 304 528 c 2
 271 372 l 2
 270 364 274 348 283 355 c 0
 381 426 463 492 562 561 c 0
 573 567 582 583 582 591 c 0
 582 599 580 612 552 612 c 2
 546 612 l 2
 532 612 538 645 554 645 c 0x90
 610 643 721 644 775 646 c 0
 781 646 791 646 792 637 c 0xa0
EndSplineSet
EndChar

StartChar: L
Encoding: 76 76 65
Width: 603
Flags: MW
HStem: -1 46<270 363 363 392.5 270 522> 610 36<155 190>
LayerCount: 2
Fore
SplineSet
613 139 m 0
 601 108 581 52 569 14 c 0
 563 -5 539 -1 522 -1 c 0
 348 0 168 -1 35 -1 c 0
 28 -1 18 -5 16 5 c 0
 12 19 20 35 30 37 c 0
 38 41 46 38 55 39 c 0
 101 42 117 58 132 130 c 2
 216 532 l 2
 227 587 220 610 160 610 c 0
 150 610 146 608 136 611 c 0
 129 617 136 646 147 646 c 0
 209 644 343 642 421 646 c 0
 430 646 431 636 430 629 c 0
 428 622 421 608 416 609 c 2
 404 609 l 2
 344 609 327 600 312 529 c 2
 227 123 l 2
 219 83 216 45 270 45 c 2
 363 45 l 2
 422 45 463 54 500 74 c 0
 532 92 553 110 585 151 c 0
 590 157 606 157 612 153 c 0
 616 151 616 142 613 139 c 0
EndSplineSet
EndChar

StartChar: M
Encoding: 77 77 66
Width: 883
Flags: MW
HStem: -3 33 610 36<906 936 936 942>
LayerCount: 2
Fore
SplineSet
957 640 m 0
 958 634 953 609 942 610 c 2
 936 610 l 2
 876 610 858 600 843 529 c 2
 755 114 l 2
 744 64 741 35 807 35 c 0
 812 36 817 35 822 34 c 0
 838 32 828 -5 815 -3 c 0
 753 0 621 0 552 -3 c 0
 543 -5 543 8 544 14 c 0
 545 20 551 33 557 33 c 0
 570 33 583 33 596 35 c 0
 632 42 647 60 659 116 c 2
 745 512 l 2
 746 518 744 534 734 519 c 2
 405 2 l 2
 400 -2 359 -9 355 5 c 2
 285 511 l 2
 283 523 276 529 272 515 c 2
 160 130 l 2
 156 118 153 104 153 90 c 0
 153 51 173 33 222 30 c 0
 235 29 230 -5 217 -3 c 0
 169 -1 65 1 5 -3 c 0
 -11 -4 -3 30 8 31 c 0
 44 36 68 47 84 67 c 0
 97 84 113 124 131 184 c 2
 231 523 l 2
 235 537 239 557 239 569 c 0
 239 606 209 609 178 610 c 0
 164 608 161 608 148 611 c 0
 141 614 141 623 141 629 c 0
 142 635 146 648 155 646 c 0
 201 645 283 646 323 646 c 0
 347 646 355 645 357 634 c 2
 426 146 l 2
 428 132 445 150 454 163 c 2
 766 636 l 2
 770 645 785 646 792 646 c 0
 831 644 901 645 942 646 c 0
 948 647 956 643 957 640 c 0
EndSplineSet
EndChar

StartChar: N
Encoding: 78 78 67
Width: 790
Flags: MW
HStem: 613 33
LayerCount: 2
Fore
SplineSet
858 646 m 0
 877 647 866 616 853 614 c 0
 793 606 767 581 752 512 c 2
 642 -8 l 2
 640 -18 611 -16 605 -10 c 2
 259 513 l 2
 257 516 246 516 242 496 c 2
 172 143 l 2
 169 129 168 114 168 102 c 0
 168 58 183 39 239 32 c 1
 246 32 l 2
 263 32 256 -6 242 -3 c 0
 189 -1 78 0 18 -3 c 0
 2 -4 8 32 22 31 c 0
 84 40 106 60 122 138 c 2
 212 583 l 1
 191 611 158 607 127 611 c 0
 113 611 119 649 132 648 c 0
 168 647 216 645 248 646 c 0
 268 646 278 644 283 636 c 2
 614 144 l 2
 619 137 629 130 632 145 c 2
 711 514 l 2
 714 530 716 542 716 553 c 0
 716 594 694 610 632 613 c 0
 621 614 623 646 638 646 c 0
 695 644 806 644 858 646 c 0
EndSplineSet
EndChar

StartChar: O
Encoding: 79 79 68
Width: 819
Flags: MW
HStem: -18 39<383 383> 623 39<476 476>
VStem: 85 100<201.5 349.5 187.5 389.5> 676 100<283.5 443 253.5 458>
LayerCount: 2
Fore
SplineSet
776 357 m 0
 776 150 600 -18 383 -18 c 0
 209 -18 85 115 85 288 c 0
 85 491 264 662 475 662 c 0
 649 662 776 529 776 357 c 0
676 388 m 0
 676 528 598 624 476 623 c 0
 286 622 185 437 185 262 c 0
 185 113 258 22 384 21 c 0
 546 19 676 179 676 388 c 0
EndSplineSet
EndChar

StartChar: P
Encoding: 80 80 69
Width: 564
Flags: W
HStem: -3 34<244 252> 610 36 627 20G<104 111>
VStem: 488 101<457 494 417 508.5>
LayerCount: 2
Fore
SplineSet
589 465 m 0xd0
 589 369 515 283 413 259 c 0
 372 250 304 242 261 251 c 0
 248 257 249 283 267 281 c 0
 338 271 411 298 451 357 c 0
 475 392 488 435 488 479 c 0
 488 538 461 583 418 597 c 0
 379 610 342 607 301 607 c 0
 294 607 284 605 279 583 c 2
 180 114 l 2
 177 102 175 90 175 78 c 0
 175 46 194 31 244 31 c 2
 258 31 l 2
 276 31 267 -5 252 -3 c 0
 171 -1 72 0 -11 -3 c 0
 -25 -3 -19 30 -6 31 c 0
 51 33 71 50 87 128 c 2
 170 526 l 2
 174 547 177 560 177 569 c 0
 177 593 157 610 116 610 c 1xd0
 106 611 l 1
 88 606 97 647 111 647 c 0xb0
 169 645 278 646 332 646 c 0
 428 646 473 637 519 604 c 0
 565 571 589 523 589 465 c 0xd0
EndSplineSet
EndChar

StartChar: Q
Encoding: 81 81 70
Width: 798
Flags: MW
HStem: -189 21G<595 678> 626 36<369 525.5>
VStem: 61 104<216 346.5 186.5 388> 667 105<282 444 271 457>
LayerCount: 2
Fore
SplineSet
772 357 m 0
 772 185 660 31 483 -9 c 0
 474 -11 475 -22 490 -33 c 0
 523 -57 618 -115 658 -125 c 0
 700 -136 723 -132 751 -118 c 1
 764 -107 781 -137 771 -145 c 0
 738 -173 706 -189 650 -189 c 0
 540 -189 421 -90 333 -32 c 0
 328 -29 307 -14 303 -13 c 0
 163 18 61 145 61 287 c 0
 61 489 236 662 453 662 c 0
 641 662 772 531 772 357 c 0
667 386 m 0
 667 528 589 626 462 626 c 0
 276 626 165 432 165 261 c 0
 165 112 250 16 383 16 c 0
 555 16 667 178 667 386 c 0
EndSplineSet
EndChar

StartChar: R
Encoding: 82 82 71
Width: 644
Flags: W
HStem: -12 21G<589 642> -4 26 274 38<283 327> 611 35 628 20G<156 165>
LayerCount: 2
Fore
SplineSet
672 -4 m 0x70
 663 -8 660 -9 657 -10 c 0
 653 -12 648 -12 636 -12 c 0xb0
 542 -12 483 3 429 87 c 0
 408 120 397 159 382 195 c 0
 364 238 359 249 350 267 c 0
 349 269 347 277 337 277 c 0
 319 276 306 275 286 274 c 0
 280 274 271 270 270 263 c 2
 239 114 l 2
 236 102 232 90 232 78 c 0
 232 46 253 35 303 32 c 2
 319 31 l 2
 323 30 328 25 324 10 c 0
 323 6 320 -4 314 -4 c 2
 305 -4 l 2
 237 -4 100 -2 30 -4 c 0
 11 -4 21 35 36 33 c 1
 43 34 l 2
 108 43 127 46 142 116 c 2
 230 532 l 2
 234 553 236 561 236 568 c 0
 236 594 216 611 175 611 c 2
 156 611 l 2x70
 141 611 147 648 165 648 c 0x68
 231 646 364 646 430 646 c 0
 547 645 627 583 627 484 c 0
 627 390 556 318 446 294 c 0
 438 292 445 283 448 278 c 0
 451 271 457 261 462 250 c 0
 477 217 492 184 508 151 c 0
 533 101 557 77 589 52 c 0
 612 33 640 23 670 22 c 0
 684 22 680 -1 672 -4 c 0x70
490 579 m 0
 471 594 447 602 422 605 c 0
 397 608 386 608 362 608 c 0
 350 608 341 599 340 593 c 2
 287 341 l 2
 284 328 282 312 290 312 c 0
 364 312 381 312 445 349 c 0
 518 391 562 521 490 579 c 0
EndSplineSet
EndChar

StartChar: S
Encoding: 83 83 72
Width: 517
Flags: MW
HStem: -18 37<201 287.5 185.5 308.5> 616 37<287 339 268.5 371>
VStem: 126 78<501 529.5> 389 83<114.5 166.5>
LayerCount: 2
Fore
SplineSet
510 641 m 0
 505 590 496 517 488 474 c 0
 486 467 477 465 472 465 c 0
 465 465 456 468 456 474 c 0
 456 567 415 616 327 616 c 0
 247 616 204 576 204 520 c 0
 204 482 216 453 286 401 c 0
 356 350 392 321 414 299 c 0
 447 266 472 217 472 170 c 0
 472 59 380 -18 237 -18 c 0
 165 -18 87 7 17 46 c 0
 15 48 12 60 13 66 c 0
 18 102 32 156 46 198 c 0
 50 211 78 209 76 196 c 0
 76 184 75 180 75 174 c 0
 75 77 131 19 240 19 c 0
 335 19 389 66 389 133 c 0
 389 200 315 252 262 290 c 0
 156 365 126 418 126 482 c 0
 126 577 210 653 327 653 c 0
 351 653 373 648 393 643 c 0
 412 639 430 634 450 634 c 0
 461 634 471 637 479 645 c 0
 485 657 511 653 510 641 c 0
EndSplineSet
EndChar

StartChar: T
Encoding: 84 84 73
Width: 664
Flags: W
HStem: -5 40 -4 21G<152.5 157> 605 41<233 258 258 342 471 593 471 471> 658 20G<716 721.5> 659 20G<122.5 127.5>
LayerCount: 2
Fore
SplineSet
732 669 m 0xb0
 729 644 719 614 715 582 c 0
 711 550 701 521 697 501 c 0
 695 494 666 488 666 502 c 0
 665 518 666 532 665 545 c 0
 663 558 661 569 657 578 c 0
 649 595 632 605 593 605 c 2
 471 605 l 2
 463 604 455 596 453 585 c 2
 353 114 l 2
 340 53 355 42 403 37 c 0
 414 37 428 41 442 37 c 0
 447 36 452 27 451 20 c 0
 451 8 442 -5 431 -5 c 0xb0
 346 -1 224 -3 157 -4 c 0x70
 148 -4 136 -3 136 8 c 0
 136 13 138 18 139 23 c 0
 142 32 151 37 161 37 c 0
 168 37 173 35 179 35 c 0
 229 39 242 53 256 116 c 2
 357 581 l 2
 362 605 345 605 342 605 c 2
 258 605 l 2
 208 605 180 601 157 583 c 0
 134 564 123 544 103 499 c 0
 98 487 67 494 75 506 c 1
 80 543 97 596 110 671 c 0
 111 677 120 679 125 679 c 0xa8
 130 679 138 677 138 672 c 0
 155 651 166 646 204 646 c 2
 204 646 336 644 407 646 c 0
 478 648 594 646 594 646 c 2
 667 646 679 650 703 673 c 0
 706 677 714 678 718 678 c 0
 725 678 733 674 732 669 c 0xb0
EndSplineSet
EndChar

StartChar: U
Encoding: 85 85 74
Width: 748
Flags: MW
HStem: -18 37<301 397> 610 38<348 348>
LayerCount: 2
Fore
SplineSet
788 648 m 0
 806 650 801 611 783 614 c 1
 728 607 706 596 689 507 c 2
 638 236 l 2
 627 176 617 147 594 110 c 0
 537 17 451 -18 343 -18 c 0
 226 -18 161 15 115 84 c 0
 74 147 81 204 96 272 c 2
 151 527 l 2
 156 549 157 560 157 568 c 0
 157 599 136 612 95 612 c 2
 78 612 l 2
 63 612 70 650 85 648 c 0
 155 646 288 645 348 648 c 0
 356 648 362 645 362 636 c 0
 361 629 358 609 348 610 c 0
 274 614 265 602 249 529 c 2
 192 266 l 2
 184 229 180 195 180 169 c 0
 180 80 242 19 360 19 c 0
 518 19 572 114 597 248 c 2
 647 515 l 2
 650 531 651 541 651 551 c 0
 651 610 609 614 563 614 c 0
 547 614 556 652 570 648 c 1
 603 648 642 646 685 648 c 0
 728 650 743 648 771 648 c 0
 776 650 783 648 788 648 c 0
EndSplineSet
EndChar

StartChar: V
Encoding: 86 86 75
Width: 607
Flags: W
HStem: 612 36 627 20G<64 326> 629 20G<529 537>
VStem: 118 96 132 95<530 548 530 572.5>
LayerCount: 2
Fore
SplineSet
736 648 m 0x90
 752 648 750 617 730 615 c 1
 688 602 660 575 617 524 c 2
 154 -15 l 2
 147 -23 102 -29 105 -8 c 2
 132 531 l 1
 132 548 l 2
 132 597 110 611 67 611 c 2
 62 611 l 2
 46 609 47 647 64 647 c 0
 178 644 261 644 326 647 c 0
 341 648 338 612 320 611 c 0
 316 610 308 611 303 610 c 0
 245 615 231 590 227 530 c 2x48
 202 121 l 2
 202 113 215 116 219 122 c 2
 554 517 l 2
 586 554 593 569 593 584 c 0
 593 603 584 609 568 611 c 0
 556 612 543 612 531 612 c 0x90
 520 612 521 649 537 649 c 0x30
 604 647 643 645 736 648 c 0x90
EndSplineSet
EndChar

StartChar: W
Encoding: 87 87 76
Width: 897
Flags: W
HStem: -16 21G<471 482.5> 611 36<83.5 88>
VStem: 467 101 485 83
LayerCount: 2
Fore
SplineSet
1010 642 m 0xe0
 1012 636 1010 625 1006 619 c 0
 1003 616 997 614 994 614 c 0
 962 606 936 587 896 531 c 2
 510 -9 l 2
 507 -14 488 -16 477 -16 c 0
 465 -16 452 -13 452 -6 c 2
 483 427 l 2
 484 440 468 433 460 423 c 0
 447 406 128 -11 128 -11 c 2
 120 -21 78 -19 79 -7 c 2
 125 540 l 2
 126 546 126 552 126 558 c 0
 126 606 107 610 88 611 c 0
 79 611 70 610 61 612 c 0
 52 613 48 621 50 632 c 0
 52 637 54 647 62 647 c 0
 118 645 235 644 300 647 c 0
 317 648 309 613 298 613 c 0
 233 605 226 595 218 523 c 2
 180 159 l 2
 179 151 191 150 201 163 c 2
 485 525 l 1
 485 560 l 2xd0
 485 603 476 611 414 613 c 0
 398 611 403 647 416 647 c 0
 489 646 589 646 664 647 c 0
 681 647 671 612 660 612 c 0
 587 604 587 601 582 535 c 2
 555 149 l 2
 554 140 576 155 581 162 c 2
 836 520 l 2
 854 545 863 563 863 577 c 0
 863 605 844 611 821 612 c 0
 814 612 804 611 797 611 c 0
 782 611 789 649 804 647 c 0
 860 646 930 646 998 647 c 0
 1002 647 1008 645 1010 642 c 0xe0
EndSplineSet
EndChar

StartChar: X
Encoding: 88 88 77
Width: 704
Flags: W
HStem: -4 32 613 34 626 20G<133 409 409 417>
LayerCount: 2
Fore
SplineSet
769 647 m 0xc0
 791 652 780 617 767 617 c 0
 708 609 665 590 613 536 c 2
 460 377 l 2
 455 371 453 358 463 340 c 0
 500 276 547 185 586 109 c 0
 621 43 637 38 697 28 c 0
 712 26 702 -5 692 -4 c 0
 632 -1 504 0 439 -4 c 0
 430 -4 430 7 431 13 c 0
 432 19 436 29 441 28 c 0
 497 31 522 34 498 81 c 0
 472 133 425 224 389 287 c 0
 385 290 372 287 364 279 c 2
 201 114 l 2
 139 52 163 33 237 28 c 0
 243 27 244 16 242 10 c 0
 240 5 235 -4 230 -4 c 0
 170 -1 52 -1 -6 -4 c 0
 -18 -5 -14 29 0 31 c 0
 16 33 29 33 39 35 c 0
 85 43 98 63 129 94 c 2
 350 318 l 2
 357 325 363 334 359 341 c 2
 244 554 l 2
 222 595 195 610 127 612 c 0
 116 612 121 646 133 646 c 0
 200 644 339 644 409 646 c 0xa0
 425 646 418 612 408 613 c 0
 349 612 338 607 338 590 c 0
 338 578 346 566 351 556 c 2
 422 416 l 2
 424 411 434 406 440 410 c 0
 464 436 510 489 572 548 c 0
 590 565 596 577 596 588 c 0
 596 604 585 612 528 615 c 0
 511 613 517 650 531 647 c 0
 605 645 705 644 769 647 c 0xc0
EndSplineSet
EndChar

StartChar: Y
Encoding: 89 89 78
Width: 653
Flags: MW
HStem: -3 40<186 186 186 464> 627 20G<116 334>
LayerCount: 2
Fore
SplineSet
764 633 m 0
 761 622 755 619 755 618 c 0
 713 602 701 596 660 549 c 2
 410 261 l 1
 380 114 l 2
 377 97 370 75 377 59 c 0
 383 45 400 35 442 36 c 0
 450 36 465 39 472 34 c 0
 481 28 475 -3 464 -3 c 0
 394 0 249 1 167 -3 c 0
 153 -1 157 35 171 36 c 2
 186 37 l 2
 200 38 213 39 224 40 c 0
 234 42 243 45 250 49 c 0
 265 59 275 76 283 116 c 2
 314 264 l 1
 191 545 l 2
 167 599 153 611 123 614 c 0
 111 615 101 614 104 632 c 0
 105 637 110 647 116 647 c 0
 168 644 275 642 334 647 c 0
 340 646 345 641 342 629 c 0
 340 621 337 614 330 615 c 0
 275 610 266 609 293 547 c 2
 392 320 l 2
 393 316 407 322 412 328 c 2
 586 529 l 2
 616 564 623 574 623 586 c 0
 623 603 608 613 565 615 c 0
 553 617 557 649 569 647 c 0
 576 648 583 648 589 646 c 0
 639 645 707 645 753 646 c 0
 761 647 766 639 764 633 c 0
EndSplineSet
EndChar

StartChar: Z
Encoding: 90 90 79
Width: 687
Flags: MW
HStem: -2 43<436 469 436 585> 606 40<339.5 389 389 557>
LayerCount: 2
Fore
SplineSet
723 616 m 1
 555 459 281 179 164 56 c 0
 154 46 177 42 186 42 c 2
 436 41 l 2
 502 41 519 50 553 81 c 0
 581 106 603 136 632 186 c 0
 637 189 652 191 657 189 c 0
 661 188 662 182 660 175 c 0
 649 118 631 64 614 10 c 0
 611 4 594 -2 585 -2 c 2
 11 -2 l 2
 7 -1 6 6 6 13 c 0
 6 24 16 36 23 43 c 0
 162 186 405 432 573 594 c 0
 580 601 563 606 557 606 c 2
 389 606 l 2
 290 606 239 568 201 469 c 0
 199 459 165 458 167 471 c 0
 174 513 193 595 207 637 c 0
 209 643 224 646 228 646 c 0
 352 644 577 645 704 646 c 0
 729 649 728 633 723 616 c 1
EndSplineSet
EndChar

StartChar: bracketleft
Encoding: 91 91 80
Width: 307
Flags: MW
HStem: -228 28<187 238> 652 29<322 334 334 411>
LayerCount: 2
Fore
SplineSet
433 668 m 0
 428 655 424 652 411 652 c 2
 334 652 l 2
 310 652 303 645 298 618 c 2
 143 -165 l 2
 136 -200 148 -199 187 -200 c 0
 201 -200 230 -201 243 -200 c 0
 255 -200 258 -203 260 -208 c 2
 258 -218 l 2
 256 -223 250 -228 238 -228 c 2
 93 -228 l 2
 60 -228 62 -214 62 -209 c 2
 232 661 l 2
 235 669 243 677 257 681 c 1
 421 681 l 2
 432 680 433 676 433 668 c 0
EndSplineSet
EndChar

StartChar: backslash
Encoding: 92 92 81
Width: 223
Flags: MW
HStem: -16 21G<181 182 182 211> 642 20G<99 121 121 121>
LayerCount: 2
Fore
SplineSet
226 22 m 2
 229 -1 228 -12 211 -16 c 1
 182 -16 l 2
 180 -16 160 -17 157 4 c 2
 78 630 l 2
 78 642 85 662 99 662 c 2
 121 662 l 1
 148 657 143 644 151 625 c 1
 226 22 l 2
EndSplineSet
EndChar

StartChar: bracketright
Encoding: 93 93 82
Width: 307
Flags: W
HStem: -228 21G<-24.5 -21> -227 29 653 28<146 152 146 155 146 206> 662 20G<308 322>
LayerCount: 2
Fore
SplineSet
330 655 m 1x50
 160 -208 l 1
 160 -208 156 -227 138 -227 c 2x60
 -21 -228 l 2xa0
 -28 -228 -43 -227 -39 -217 c 1
 -39 -213 l 2
 -36 -197 -23 -198 -19 -198 c 2
 59 -198 l 2
 83 -198 90 -193 96 -164 c 2
 250 619 l 2
 257 654 242 653 206 653 c 2
 155 653 l 2
 127 653 130 664 135 669 c 1
 131 673 140 681 152 681 c 2x60
 308 682 l 2
 336 682 330 655 330 655 c 1x50
EndSplineSet
EndChar

StartChar: asciicircum
Encoding: 94 94 83
Width: 434
Flags: MW
HStem: 331 21G<86.5 99>
LayerCount: 2
Fore
SplineSet
488 360 m 2
 495 348 497 336 482 335 c 2
 464 332 l 2
 451 331 447 331 437 348 c 2
 288 601 l 2
 284 606 278 617 268 601 c 0
 219 528 151 405 117 345 c 0
 109 331 108 331 90 331 c 0
 83 331 82 334 75 333 c 0
 62 333 57 343 65 358 c 0
 129 470 211 608 262 688 c 0
 275 709 289 700 298 685 c 2
 488 360 l 2
EndSplineSet
EndChar

StartChar: underscore
Encoding: 95 95 84
Width: 509
Flags: MW
HStem: -226 46<-5.5 493 20 486>
LayerCount: 2
Fore
SplineSet
518 -209 m 2
 518 -226 500 -226 486 -226 c 2
 1 -226 l 2
 -12 -226 -10 -217 -10 -205 c 2
 -10 -190 l 2
 -10 -178 7 -180 20 -180 c 0
 137 -181 372 -181 493 -180 c 0
 511 -180 518 -183 518 -191 c 2
 518 -209 l 2
EndSplineSet
EndChar

StartChar: grave
Encoding: 193 96 85
Width: 339
Flags: MW
HStem: 637 20G<187 243 243 248>
LayerCount: 2
Fore
SplineSet
313 504 m 0
 317 491 295 492 290 499 c 0
 263 535 210 602 177 635 c 0
 165 647 181 657 187 657 c 2
 243 657 l 2
 253 657 262 656 269 643 c 0
 281 621 303 539 313 504 c 0
EndSplineSet
EndChar

StartChar: a
Encoding: 97 97 86
Width: 420
Flags: MW
HStem: -12 21G<77.5 113.5 264 286.5> 408 20G<378 380.5>
VStem: 32 73<98 150.5>
LayerCount: 2
Fore
SplineSet
395 93 m 0
 396 88 395 85 390 80 c 0
 381 70 361 49 340 28 c 0
 319 8 295 -12 278 -12 c 0
 250 -12 243 17 244 46 c 0
 244 66 246 77 250 95 c 0
 252 104 245 107 241 103 c 0
 210 69 131 -12 96 -12 c 0
 59 -12 32 44 32 99 c 0
 32 202 111 323 217 385 c 0
 270 416 319 427 378 428 c 0
 383 428 386 422 387 413 c 2
 330 130 l 2
 324 100 322 84 322 78 c 0
 322 64 336 68 342 73 c 0
 354 83 364 95 374 107 c 1
 380 122 394 106 395 93 c 0
301 342 m 2
 302 349 300 364 294 363 c 0
 253 358 223 345 197 327 c 0
 141 289 105 206 105 120 c 0
 105 76 120 52 132 52 c 0
 144 52 248 151 264 167 c 1
 301 342 l 2
EndSplineSet
EndChar

StartChar: b
Encoding: 98 98 87
Width: 415
Flags: MW
HStem: -12 34<148.5 217.5 148.5 239.5> 365 68<271 333>
LayerCount: 2
Fore
SplineSet
357 406 m 0
 443 256 317 -12 162 -12 c 0
 62 -12 55 72 68 146 c 0
 100 328 128 487 170 668 c 0
 175 689 171 687 164 684 c 0
 157 681 147 674 137 671 c 0
 110 659 112 688 124 695 c 2
 209 745 l 2
 245 766 263 763 254 723 c 0
 231 624 193 431 177 335 c 0
 175 322 176 303 184 313 c 0
 220 353 293 433 327 433 c 0
 339 433 349 420 357 406 c 0
311 265 m 0
 311 330 296 365 283 365 c 0
 259 365 194 285 167 252 c 0
 161 245 157 234 155 223 c 2
 141 143 l 2
 133 100 121 22 176 22 c 0
 259 22 311 195 311 265 c 0
EndSplineSet
EndChar

StartChar: c
Encoding: 99 99 88
Width: 320
Flags: MW
HStem: -12 55<129.5 166.5> 347 82<292 293.5 210 312>
LayerCount: 2
Fore
SplineSet
334 386 m 0
 334 365 322 347 302 347 c 0
 282 347 270 356 253 365 c 0
 241 372 235 374 228 374 c 0
 210 374 190 354 171 306 c 0
 150 252 82 43 177 43 c 0
 205 43 240 65 271 103 c 0
 279 119 305 95 298 81 c 0
 250 23 189 -12 144 -12 c 0
 89 -12 53 34 53 100 c 0
 53 212 142 429 278 429 c 0
 309 429 334 414 334 386 c 0
EndSplineSet
EndChar

StartChar: d
Encoding: 100 100 89
Width: 450
Flags: MW
HStem: -12 61<92 160.5>
VStem: 49 74<98 155.5 98 170.5> 123 134<14.5 155.5>
LayerCount: 2
Fore
SplineSet
459 718 m 2xe0
 337 78 l 2
 337 66 334 55 344 64 c 0
 353 72 367 89 388 119 c 0
 396 130 415 117 410 98 c 1
 373 39 314 -12 284 -12 c 0
 266 -12 257 4 257 25 c 0
 257 37 259 56 264 81 c 0
 269 102 268 101 269 106 c 0
 271 113 269 121 265 117 c 0
 202 37 143 -12 112 -12 c 0
 72 -12 49 47 49 117 c 0
 49 224 109 336 201 405 c 0
 237 431 283 448 319 415 c 0
 325 410 331 422 332 427 c 2
 374 663 l 2
 378 683 376 682 364 677 c 0
 348 668 337 660 321 652 c 0
 303 640 295 678 313 683 c 1
 417 742 l 2
 436 753 468 764 459 718 c 2xe0
314 337 m 1
 300 373 279 393 256 393 c 0
 233 393 207 371 180 324 c 0
 143 259 123 188 123 123 c 0
 123 73 137 49 151 49 c 0
 170 49 225 104 286 191 c 1
 314 337 l 1
EndSplineSet
EndChar

StartChar: e
Encoding: 101 101 90
Width: 364
Flags: MW
HStem: -12 51 392 39
VStem: 38 76<100 136 100 208> 290 59
LayerCount: 2
Fore
SplineSet
349 356 m 0
 349 297 310 261 261 236 c 0
 237 224 211 214 186 206 c 0
 171 202 157 198 144 194 c 0
 127 189 119 186 117 170 c 0
 114 157 114 143 114 129 c 0
 114 71 145 38 187 39 c 0
 215 40 248 56 296 93 c 0
 313 106 324 79 312 64 c 0
 252 12 186 -12 143 -12 c 0
 82 -12 38 53 38 133 c 0
 38 283 146 431 263 431 c 0
 315 431 349 403 349 356 c 0
290 344 m 0
 292 372 277 393 249 392 c 0
 176 390 146 299 132 240 c 0
 132 235 145 235 150 236 c 0
 184 244 203 250 233 265 c 0
 270 284 289 317 290 344 c 0
EndSplineSet
EndChar

StartChar: f
Encoding: 102 102 91
Width: 283
Flags: MW
HStem: -274 45<-120.5 -45> 374 45<216 261 211 271> 710 48<311.5 386>
LayerCount: 2
Fore
SplineSet
444 699 m 0
 443 672 418 666 397 668 c 0
 364 672 358 711 320 710 c 0
 303 710 281 696 268 675 c 0
 251 649 237 601 223 518 c 2
 210 442 l 2
 208 431 209 420 216 419 c 2
 271 419 l 2
 288 419 275 374 261 374 c 2
 211 374 l 2
 198 371 201 372 196 362 c 2
 152 112 l 2
 131 -7 106 -161 1 -238 c 0
 -29 -260 -62 -274 -99 -274 c 0
 -142 -274 -184 -245 -178 -215 c 0
 -172 -182 -151 -182 -133 -184 c 0
 -118 -185 -106 -201 -95 -211 c 0
 -85 -221 -74 -229 -59 -229 c 0
 -31 -229 0 -206 16 -175 c 0
 37 -132 52 -31 62 19 c 0
 84 134 101 245 120 357 c 0
 121 365 115 374 108 374 c 2
 69 374 l 1
 55 370 58 404 72 405 c 0
 87 406 97 408 106 410 c 0
 114 412 122 415 131 418 c 1
 137 454 150 516 164 556 c 0
 184 615 203 651 229 684 c 0
 266 730 318 758 366 758 c 0
 406 758 445 732 444 699 c 0
EndSplineSet
EndChar

StartChar: g
Encoding: 103 103 92
Width: 398
Flags: MW
HStem: -275 29<73.5 160 73.5 172.5> 390 40
VStem: -83 69<-194 -171> 50 76<166 198 157.5 225.5> 285 79<260 289 247.5 320.5>
LayerCount: 2
Fore
SplineSet
390 359 m 2
 359 362 l 2
 356 363 346 360 349 353 c 0
 361 322 364 302 364 276 c 0
 364 219 337 160 296 124 c 0
 268 99 213 65 176 49 c 0
 147 36 142 27 142 19 c 0
 142 7 155 -7 210 -44 c 0
 299 -105 332 -137 332 -170 c 0
 332 -234 234 -275 111 -275 c 0
 2 -275 -83 -240 -83 -184 c 0
 -83 -158 -61 -132 -23 -107 c 0
 12 -83 47 -63 84 -43 c 0
 91 -39 92 -33 90 -29 c 0
 74 5 90 24 117 44 c 0
 125 50 118 57 115 59 c 0
 74 90 50 139 50 193 c 0
 50 258 99 334 162 386 c 0
 196 414 231 432 276 430 c 0
 314 428 373 421 390 421 c 0
 408 421 411 353 390 359 c 2
285 289 m 0
 285 352 261 390 231 390 c 0
 199 390 171 358 147 287 c 0
 133 247 126 211 126 185 c 0
 126 130 155 89 183 89 c 0
 202 89 223 104 242 132 c 0
 269 173 285 231 285 289 c 0
264 -193 m 0
 264 -185 257 -173 233 -156 c 0
 193 -127 160 -101 124 -70 c 0
 118 -64 107 -64 102 -67 c 0
 16 -116 -14 -142 -14 -174 c 0
 -14 -214 35 -246 112 -246 c 0
 208 -246 264 -220 264 -193 c 0
EndSplineSet
EndChar

StartChar: h
Encoding: 104 104 93
Width: 457
Flags: W
HStem: -12 21G<283 322.5> -7 21G<62 99> 375 56<321 406>
LayerCount: 2
Fore
SplineSet
444 101 m 0x60
 398 38 338 -12 307 -12 c 0xa0
 259 -12 278 78 283 97 c 2
 335 303 l 2
 338 313 355 375 334 375 c 0
 308 375 183 209 156 169 c 1
 138 83 132 51 129 35 c 0
 127 27 122 2 117 -3 c 0
 113 -7 106 -7 99 -7 c 0
 88 -7 78 -8 62 -7 c 0
 49 -8 50 11 52 19 c 0
 86 182 149 504 180 668 c 0
 182 676 178 683 174 681 c 0
 167 679 153 672 134 661 c 0
 117 648 111 683 122 688 c 2
 219 743 l 2
 245 758 273 765 266 728 c 2
 177 276 l 2
 174 262 179 254 184 261 c 0
 274 388 330 431 376 431 c 0
 436 431 417 330 410 302 c 2
 352 74 l 2
 351 71 350 58 357 58 c 0
 366 58 383 76 425 125 c 0
 438 135 450 111 444 101 c 0x60
EndSplineSet
EndChar

StartChar: i
Encoding: 105 105 94
Width: 258
Flags: MW
HStem: -11 21G<99 118.5> 621 20G<215 226.5>
VStem: 165 79<546 614.5>
LayerCount: 2
Fore
SplineSet
244 605 m 0
 243 561 223 519 193 520 c 0
 175 520 165 535 165 557 c 0
 166 597 185 642 215 641 c 0
 238 641 244 624 244 605 c 0
225 88 m 0
 203 60 138 -11 99 -11 c 0
 56 -10 67 51 71 71 c 2
 122 322 l 2
 126 340 129 358 117 348 c 0
 104 336 81 310 76 304 c 0
 67 292 49 317 60 331 c 0
 110 394 158 432 182 432 c 0
 215 431 207 386 203 367 c 2
 146 80 l 2
 143 65 144 52 155 62 c 0
 169 72 196 102 204 114 c 0
 218 133 233 97 225 88 c 0
EndSplineSet
EndChar

StartChar: j
Encoding: 106 106 95
Width: 245
Flags: MW
HStem: -272 21G<-102.5 -52.5> 521 123
LayerCount: 2
Fore
SplineSet
256 579 m 0
 250 547 240 521 210 521 c 0
 192 521 175 536 178 559 c 0
 184 604 194 643 230 644 c 0
 272 645 260 603 256 579 c 0
208 339 m 2
 129 4 l 2
 111 -73 91 -131 49 -189 c 0
 18 -232 -23 -272 -82 -272 c 0
 -123 -272 -147 -240 -145 -216 c 0
 -143 -195 -130 -181 -107 -184 c 0
 -93 -186 -84 -195 -76 -204 c 0
 -71 -211 -65 -221 -58 -226 c 0
 -17 -255 7 -203 26 -132 c 0
 35 -100 37 -82 43 -57 c 2
 133 330 l 2
 140 361 116 336 108 328 c 0
 98 318 88 307 85 304 c 0
 71 292 55 316 65 324 c 0
 115 387 162 423 188 423 c 0
 226 424 213 360 208 339 c 2
EndSplineSet
EndChar

StartChar: k
Encoding: 107 107 96
Width: 459
Flags: MW
HStem: -10 21G<72 105 72 78.5 357.5 366> 202 29<188 258> 375 57<362 363.5>
LayerCount: 2
Fore
SplineSet
452 343 m 0
 459 256 401 201 258 202 c 0
 251 202 251 198 255 193 c 0
 272 176 279 166 289 151 c 2
 312 117 l 2
 337 80 368 54 386 57 c 1
 392 63 426 97 426 99 c 0
 441 115 455 84 449 78 c 0
 425 47 395 11 366 -10 c 1
 349 -10 336 -7 323 2 c 0
 280 32 258 63 231 107 c 0
 205 148 188 173 172 191 c 0
 168 195 163 193 162 187 c 2
 129 18 l 2
 127 8 133 -10 105 -10 c 0
 92 -10 85 -10 72 -10 c 0
 54 -9 51 3 55 15 c 2
 186 671 l 2
 189 686 174 678 169 675 c 0
 161 671 153 666 144 661 c 0
 134 651 114 684 133 690 c 1
 231 748 l 2
 254 762 278 768 270 728 c 2
 186 312 l 2
 184 304 185 289 188 292 c 0
 228 331 336 432 388 432 c 0
 423 432 449 387 452 343 c 0
387 332 m 0
 387 353 374 375 353 375 c 0
 329 375 258 324 182 245 c 0
 173 236 188 231 188 231 c 1
 209 231 219 231 241 231 c 0
 267 231 292 233 314 238 c 0
 358 249 388 271 387 332 c 0
EndSplineSet
EndChar

StartChar: l
Encoding: 108 108 97
Width: 256
Flags: MW
HStem: -13 21G<78.5 117>
LayerCount: 2
Fore
SplineSet
264 720 m 2
 137 63 l 2
 134 47 135 43 141 43 c 0
 148 43 166 57 204 101 c 1
 209 114 230 97 224 81 c 1
 176 22 132 -13 102 -13 c 0
 55 -13 61 41 68 78 c 2
 182 670 l 2
 183 677 182 687 172 680 c 0
 162 676 147 667 126 655 c 0
 110 643 103 681 115 685 c 2
 208 741 l 2
 236 758 275 776 264 720 c 2
EndSplineSet
EndChar

StartChar: m
Encoding: 109 109 98
Width: 681
Flags: W
HStem: -12 21G<107 120 484 516> -11 21G<76.5 88.5 279 294.5 289 321> 361 64 407 20G<176 200.5 357.5 387>
LayerCount: 2
Fore
SplineSet
629 99 m 0x60
 583 34 530 -12 502 -12 c 0xa0
 466 -12 473 32 477 51 c 0
 497 159 513 236 533 339 c 0
 536 357 536 367 516 358 c 0
 502 351 483 330 458 297 c 0
 435 266 425 256 389 189 c 0
 375 162 366 138 362 115 c 2
 342 12 l 2
 339 -1 331 -12 321 -11 c 0
 305 -11 300 -11 289 -11 c 0
 269 -11 270 8 272 18 c 2
 333 332 l 2
 336 345 339 361 333 361 c 0
 293 361 204 219 181 180 c 0
 167 156 158 126 150 86 c 0
 146 64 142 43 139 21 c 0
 138 19 138 16 136 10 c 0x60
 135 1 128 -12 112 -12 c 0xa0
 102 -12 93 -11 84 -11 c 0
 69 -11 62 -4 65 13 c 2
 125 324 l 2
 127 336 124 343 116 336 c 0
 100 322 89 305 76 289 c 0
 69 281 47 279 54 303 c 1
 96 370 164 427 188 427 c 0
 213 427 209 396 207 384 c 2
 182 252 l 2
 181 248 189 250 195 260 c 0
 201 268 206 277 248 328 c 0
 289 379 338 427 377 427 c 0x50
 397 427 408 406 408 379 c 0
 408 345 401 299 395 270 c 0
 393 262 403 269 405 273 c 0
 443 339 513 425 574 425 c 0
 617 425 607 359 603 337 c 2
 552 72 l 2
 549 57 557 57 581 85 c 0
 593 100 605 116 609 121 c 0
 622 138 636 109 629 99 c 0x60
EndSplineSet
EndChar

StartChar: n
Encoding: 110 110 99
Width: 469
Flags: W
HStem: -12 21G<288 325> -11 21G<64.5 71 71 98> 362 67<341.5 342>
LayerCount: 2
Fore
SplineSet
453 108 m 2x60
 443 93 l 2
 397 24 341 -12 309 -12 c 0xa0
 267 -12 270 39 278 69 c 0
 291 122 326 247 341 319 c 0
 343 331 349 362 335 362 c 0
 296 362 180 195 154 159 c 1
 123 11 l 2
 119 -8 116 -11 98 -11 c 2
 71 -11 l 2
 58 -11 45 -5 51 14 c 2
 111 319 l 2
 116 346 102 324 97 319 c 0
 83 303 79 296 66 279 c 0
 53 263 40 291 50 305 c 0
 68 330 145 431 178 429 c 0
 201 428 202 399 197 374 c 2
 197 374 172 250 175 258 c 1
 170 237 185 262 185 262 c 1
 237 333 307 429 376 429 c 0
 435 429 423 340 414 303 c 0
 402 256 384 178 355 76 c 0
 353 71 345 50 352 48 c 0
 357 47 373 57 391 78 c 0
 409 98 427 120 432 126 c 0
 437 134 444 131 448 127 c 0
 452 123 454 115 453 108 c 2x60
EndSplineSet
EndChar

StartChar: o
Encoding: 111 111 100
Width: 401
Flags: MW
HStem: -12 49<109 207.5> 379 50<199.5 301>
VStem: 38 77<118.5 198.5> 299 75<242.5 295>
LayerCount: 2
Fore
SplineSet
374 273 m 0
 374 212 355 153 320 107 c 0
 290 68 238 25 189 4 c 0
 167 -6 147 -12 133 -12 c 0
 85 -12 38 71 38 155 c 0
 38 242 89 327 174 385 c 0
 211 411 252 429 277 429 c 0
 325 429 374 353 374 273 c 0
299 260 m 0
 299 330 265 379 228 379 c 0
 171 379 115 275 115 152 c 0
 115 85 146 37 177 37 c 0
 238 37 299 140 299 260 c 0
EndSplineSet
EndChar

StartChar: p
Encoding: 112 112 101
Width: 445
Flags: W
HStem: -275 34<-56 -56 -56 164> 408 20G<325 368> 409 20G<172.5 196>
VStem: 339 75<208.5 300>
LayerCount: 2
Fore
SplineSet
414 274 m 0xd0
 414 143 288 -49 140 -9 c 0
 135 -8 133 -16 131 -21 c 2
 104 -147 l 2
 99 -170 97 -184 95 -194 c 0
 95 -200 94 -204 94 -208 c 0
 94 -234 103 -238 171 -241 c 0
 184 -241 183 -276 164 -275 c 0
 61 -271 -15 -274 -58 -275 c 0
 -66 -276 -68 -264 -67 -258 c 0
 -66 -253 -62 -244 -55 -242 c 1
 -56 -241 l 2
 -52 -240 -40 -239 -40 -239 c 2
 7 -233 16 -222 27 -166 c 2
 31 -145 l 1
 124 307 l 2
 127 324 140 359 111 334 c 0
 91 317 66 283 58 273 c 0
 50 263 26 279 39 298 c 0
 90 374 158 429 187 429 c 0xb0
 205 429 210 414 210 394 c 0
 210 368 205 341 200 315 c 0
 195 287 210 313 224 334 c 0
 233 347 244 360 255 374 c 0
 280 403 309 428 341 428 c 0
 395 428 414 331 414 274 c 0xd0
339 270 m 0
 339 330 323 366 304 366 c 0
 294 366 272 343 248 310 c 0
 224 277 198 238 179 208 c 1
 147 48 l 2
 146 42 148 37 153 34 c 0
 161 28 174 21 185 21 c 0
 262 21 339 140 339 270 c 0
EndSplineSet
EndChar

StartChar: q
Encoding: 113 113 102
Width: 426
Flags: MW
HStem: -15 64<97.5 165> 363 66<321 393>
VStem: 52 75<95.5 137.5>
LayerCount: 2
Fore
SplineSet
407 400 m 2
 296 -148 l 2
 292 -169 286 -188 286 -209 c 0
 286 -246 323 -241 350 -241 c 0
 371 -238 363 -278 343 -275 c 0
 253 -273 202 -274 125 -275 c 0
 108 -273 119 -238 134 -241 c 1
 199 -235 206 -230 214 -187 c 0
 218 -166 223 -144 268 71 c 0
 269 77 271 103 263 95 c 0
 229 59 156 -15 116 -15 c 0
 79 -15 52 46 52 106 c 0
 52 169 81 236 134 299 c 0
 198 377 283 429 385 429 c 0
 401 429 411 421 407 400 c 2
322 342 m 2
 326 362 323 363 321 363 c 0
 269 360 239 347 212 325 c 0
 161 283 127 200 127 122 c 0
 127 69 140 49 156 49 c 0
 174 49 209 84 290 171 c 1
 322 342 l 2
EndSplineSet
EndChar

StartChar: r
Encoding: 114 114 103
Width: 323
Flags: MW
HStem: -12 21G<61.5 75 70 101> 408 20G<149 178.5 273 309.5>
LayerCount: 2
Fore
SplineSet
341 392 m 0
 345 353 330 324 296 335 c 0
 290 337 285 339 279 341 c 0
 250 336 227 304 207 263 c 0
 186 219 169 179 159 153 c 0
 147 120 141 89 137 72 c 0
 135 60 127 27 125 15 c 0
 123 3 120 -12 101 -12 c 0
 91 -12 80 -12 70 -12 c 0
 53 -12 55 3 57 15 c 0
 72 90 97 235 109 324 c 0
 110 334 112 354 96 339 c 0
 82 326 61 298 58 294 c 0
 47 276 27 299 41 315 c 0
 102 390 137 428 161 428 c 0
 196 428 184 371 181 350 c 0
 176 317 170 286 165 262 c 0
 163 252 163 248 161 242 c 0
 159 228 163 235 167 246 c 0
 194 315 245 428 301 428 c 0
 318 428 339 419 341 392 c 0
EndSplineSet
EndChar

StartChar: s
Encoding: 115 115 104
Width: 320
Flags: W
HStem: -12 44<71 172> 318 111<219.5 289.5> 387 42<190.5 253.5>
LayerCount: 2
Fore
SplineSet
313 357 m 0xa0
 313 336 299 318 280 318 c 0xc0
 267 318 257 328 249 341 c 0
 239 358 222 387 203 387 c 0
 178 387 148 350 148 324 c 0
 148 291 194 245 215 221 c 0
 245 186 258 155 258 122 c 0
 258 40 194 -12 95 -12 c 0
 47 -12 10 6 14 41 c 0
 20 90 63 78 86 64 c 0
 108 50 131 32 158 32 c 0
 186 32 207 53 207 79 c 0
 207 123 156 173 130 205 c 0
 78 268 78 318 136 378 c 0
 166 410 203 429 236 429 c 0
 271 429 313 390 313 357 c 0xa0
EndSplineSet
EndChar

StartChar: t
Encoding: 116 116 105
Width: 294
Flags: MW
HStem: -12 21G<87 118>
LayerCount: 2
Fore
SplineSet
289 396 m 0
 287 385 281 372 272 373 c 2
 213 373 l 2
 210 372 204 371 202 366 c 2
 202 366 135 68 137 74 c 1
 131 48 143 46 154 53 c 0
 170 62 214 96 230 114 c 0
 243 128 261 99 250 87 c 0
 194 24 137 -12 99 -12 c 0
 75 -12 59 5 59 33 c 0
 59 51 65 93 80 154 c 0
 96 223 111 287 128 356 c 0
 130 364 128 372 120 373 c 2
 89 373 l 2
 74 373 70 391 82 397 c 0
 157 435 195 489 233 551 c 0
 240 562 259 568 259 548 c 1
 224 460 216 436 213 425 c 0
 213 423 222 420 225 421 c 2
 281 421 l 2
 289 421 291 408 289 396 c 0
EndSplineSet
EndChar

StartChar: u
Encoding: 117 117 106
Width: 487
Flags: W
HStem: -12 21G<89.5 136 317.5 337.5> 407 20G<168 208> 410 20G<392 427 417.5 427>
LayerCount: 2
Fore
SplineSet
463 106 m 0xa0
 414 42 349 -12 326 -12 c 0
 309 -12 302 5 302 23 c 0
 302 67 310 110 322 158 c 0
 324 166 327 194 319 182 c 0
 245 69 158 -12 114 -12 c 0
 65 -12 85 92 89 114 c 2
 131 323 l 2
 133 331 135 347 125 339 c 0
 111 329 86 300 80 292 c 0
 66 275 50 296 58 307 c 0
 75 330 145 427 191 427 c 0xc0
 225 427 214 373 210 353 c 2
 162 111 l 2
 159 101 153 48 179 71 c 0
 231 119 271 173 310 227 c 0
 330 255 340 275 349 305 c 0
 360 339 365 376 371 411 c 0
 373 423 375 431 392 430 c 0
 407 429 408 430 427 430 c 0
 450 431 447 413 445 401 c 2
 382 85 l 2
 380 75 381 62 405 88 c 0
 417 101 428 115 438 129 c 0
 448 143 468 119 463 106 c 0xa0
EndSplineSet
EndChar

StartChar: v
Encoding: 118 118 107
Width: 406
Flags: W
HStem: -12 60<149 153> 408 20G<153 178.5> 409 20G<357.5 383>
VStem: 313 104<373 380.5 308.5 390>
LayerCount: 2
Fore
SplineSet
417 362 m 0xb0
 417 255 196 -12 110 -12 c 0
 63 -12 83 107 87 134 c 2
 116 316 l 2
 118 327 127 361 106 342 c 0
 95 333 79 314 62 290 c 0
 51 275 30 295 40 309 c 0
 86 373 137 428 169 428 c 0
 188 428 196 410 196 389 c 0
 196 380 192 351 188 327 c 2
 150 91 l 2
 149 85 144 48 154 48 c 0
 218 48 338 271 338 339 c 0xd0
 338 350 337 351 328 356 c 0
 319 361 313 368 313 378 c 0
 313 402 347 429 368 429 c 0
 398 429 417 399 417 362 c 0xb0
EndSplineSet
EndChar

StartChar: w
Encoding: 119 119 108
Width: 610
Flags: W
HStem: -11 58<87.5 171.5> 407 20G<359 369> 408 20G<395 410 564.5 592> 409 20G<147.5 186.5>
VStem: 549 77<315.5 341.5>
LayerCount: 2
Fore
SplineSet
626 366 m 0xa8
 626 265 481 86 404 25 c 0
 381 6 292 -52 292 34 c 0
 292 69 298 104 303 138 c 0
 306 155 301 152 297 148 c 0
 259 88 174 -11 114 -11 c 0
 61 -11 80 84 84 115 c 2
 110 297 l 2
 114 326 115 348 92 324 c 0
 77 308 63 289 57 283 c 0
 48 268 20 291 36 305 c 1
 54 330 127 429 168 429 c 0x98
 205 429 191 357 188 337 c 2
 153 96 l 2
 152 89 144 47 155 47 c 0
 188 47 294 197 323 246 c 1
 346 400 l 2
 348 415 349 427 369 427 c 0xc8
 380 428 390 428 400 428 c 0
 420 428 418 414 417 404 c 0
 401 324 378 169 368 91 c 0
 363 57 363 36 394 58 c 0
 452 101 549 255 549 335 c 0
 549 348 544 353 539 357 c 0
 532 364 526 368 526 379 c 0
 526 409 551 428 578 428 c 0
 606 428 626 399 626 366 c 0xa8
EndSplineSet
EndChar

StartChar: x
Encoding: 120 120 109
Width: 504
Flags: MW
HStem: -12 81<27.5 116.5> 366 63<148.5 199.5>
LayerCount: 2
Fore
SplineSet
505 371 m 0
 505 355 503 347 496 323 c 0
 487 291 475 305 472 323 c 0
 467 347 454 360 434 360 c 0
 410 360 386 342 356 300 c 2
 308 233 l 2
 303 226 304 221 308 210 c 2
 342 119 l 2
 361 68 370 59 380 59 c 0
 399 59 413 84 432 125 c 0
 435 132 442 135 446 134 c 0
 452 134 461 127 463 118 c 0
 464 113 464 109 462 105 c 0
 417 2 385 -12 351 -12 c 0
 320 -12 312 3 289 64 c 2
 257 147 l 2
 254 152 248 156 244 150 c 2
 212 111 l 2
 184 77 110 -12 59 -12 c 0
 -4 -12 37 93 45 114 c 0
 53 133 71 152 75 121 c 0
 77 109 78 95 83 84 c 0
 86 75 92 69 105 69 c 0
 128 69 153 89 193 139 c 2
 231 186 l 2
 233 189 237 198 234 205 c 2
 188 323 l 2
 174 359 167 366 156 366 c 0
 141 366 131 353 94 292 c 0
 79 267 59 293 68 308 c 0
 121 397 147 429 183 429 c 0
 216 429 232 406 254 348 c 2
 284 269 l 2
 285 265 292 267 295 270 c 0
 329 317 357 358 397 400 c 0
 434 437 505 446 505 371 c 0
EndSplineSet
EndChar

StartChar: y
Encoding: 121 121 110
Width: 437
Flags: W
HStem: -276 39<-29.5 -11> 360 68<136.5 137.5> 409 20G<368 394>
VStem: 163 59 335 91<374.5 388.5 357.5 395>
LayerCount: 2
Fore
SplineSet
426 372 m 0xb8
 426 343 417 319 391 271 c 0
 370 231 337 184 306 140 c 0
 275 95 247 53 233 22 c 0
 201 -51 175 -119 143 -192 c 0
 132 -216 118 -238 168 -241 c 2
 177 -242 l 1
 193 -239 189 -279 170 -278 c 0
 113 -275 28 -274 -22 -276 c 0
 -37 -276 -31 -237 -11 -237 c 0
 39 -236 48 -224 61 -197 c 0
 90 -140 117 -81 132 -39 c 0
 144 -4 160 31 163 69 c 0
 172 191 154 360 121 360 c 0
 106 360 84 333 75 320 c 0
 69 312 63 304 57 295 c 0
 48 282 26 303 37 320 c 0
 83 389 123 428 150 428 c 0xd8
 218 428 227 174 222 83 c 0
 221 73 229 80 232 85 c 0
 270 149 355 291 348 344 c 0
 346 359 335 367 335 382 c 0
 335 408 356 429 380 429 c 0
 408 429 426 405 426 372 c 0xb8
EndSplineSet
EndChar

StartChar: z
Encoding: 122 122 111
Width: 488
Flags: MW
HStem: -11 61<315.5 327> 65 45<92 209.5> 370 57<188.5 208>
LayerCount: 2
Fore
SplineSet
496 403 m 0
 496 331 360 239 310 212 c 0
 245 178 175 152 117 108 c 0
 114 106 117 100 127 104 c 0
 144 109 149 110 171 110 c 0
 248 110 290 50 341 50 c 0
 367 50 391 62 415 99 c 0
 428 114 442 92 436 83 c 0
 397 25 347 -11 307 -11 c 0
 245 -11 193 65 113 65 c 0
 71 65 68 48 68 31 c 0
 68 22 69 12 66 3 c 0
 58 -18 17 -19 17 10 c 0
 17 26 32 58 50 81 c 0
 110 160 218 220 301 263 c 0
 341 284 368 298 388 310 c 0
 400 318 402 318 410 325 c 0
 415 329 423 339 413 335 c 0
 278 278 249 370 167 370 c 0
 112 370 111 303 82 319 c 0
 76 323 70 330 76 338 c 0
 121 399 164 427 213 427 c 0
 286 427 334 363 394 363 c 0
 425 363 446 373 451 396 c 0
 454 411 453 424 474 425 c 0
 488 426 496 416 496 403 c 0
EndSplineSet
EndChar

StartChar: braceleft
Encoding: 123 123 112
Width: 403
Flags: W
HStem: -244 21G<340 347.5>
VStem: 147 82<527.5 549> 170 59 170 78<84.5 94.5 33 133.5>
LayerCount: 2
Fore
SplineSet
340 -244 m 0xc0
 227 -229 148 -145 148 -43 c 0
 148 9 170 59 170 110 c 0
 170 157 137 194 73 210 c 0
 65 212 61 215 61 223 c 2
 61 234 l 2
 61 239 64 242 69 243 c 0
 132 258 170 297 170 342 c 0xa0
 170 395 147 444 147 498 c 0
 147 600 227 684 340 699 c 0
 359 701 355 672 340 669 c 0
 268 655 229 613 229 554 c 0xc0
 229 501 248 449 248 396 c 0
 248 351 230 311 195 276 c 0
 173 254 158 244 130 232 c 0
 120 228 131 223 132 223 c 0
 207 186 248 129 248 60 c 0x90
 248 6 229 -45 229 -98 c 0
 229 -156 265 -197 340 -215 c 0
 355 -219 355 -244 340 -244 c 0xc0
EndSplineSet
EndChar

StartChar: bar
Encoding: 124 124 113
Width: 519
Flags: MW
HStem: -19 21G<239.5 249 249 273> 825 20G<248 272 272 272>
VStem: 230 58<5 7 7 818>
LayerCount: 2
Fore
SplineSet
288 7 m 2
 288 3 289 -19 273 -19 c 2
 249 -19 l 2
 230 -19 230 3 230 3 c 1
 230 822 l 2
 233 838 242 844 248 845 c 2
 272 845 l 2
 282 843 285 846 288 818 c 2
 288 7 l 2
EndSplineSet
EndChar

StartChar: braceright
Encoding: 125 125 114
Width: 403
Flags: W
HStem: 680 20G<58 63>
VStem: 154 79<362 371> 174 59 174 81<525.5 550 472.5 581>
LayerCount: 2
Fore
SplineSet
342 213 m 0xa0
 273 201 233 160 233 113 c 0
 233 61 256 11 256 -42 c 0
 256 -145 176 -230 63 -244 c 0
 43 -246 41 -215 63 -214 c 0
 135 -200 174 -158 174 -100 c 0xa0
 174 -46 155 6 155 60 c 0
 155 104 173 144 208 179 c 0
 227 198 241 208 262 219 c 0
 270 222 277 229 268 234 c 0
 195 272 154 328 154 396 c 0xc0
 154 448 174 499 174 552 c 0
 174 610 137 652 63 671 c 0
 42 680 53 700 63 700 c 0
 176 684 255 601 255 499 c 0x90
 255 446 233 397 233 345 c 0
 233 295 270 256 342 242 c 0
 349 239 359 216 342 213 c 0xa0
EndSplineSet
EndChar

StartChar: asciitilde
Encoding: 126 126 115
Width: 551
Flags: MW
HStem: 243 75<449.5 480> 330 72<189 212.5>
LayerCount: 2
Fore
SplineSet
574 396 m 0
 571 309 516 243 444 243 c 0
 404 243 367 257 298 293 c 0
 248 320 223 330 202 330 c 0
 160 330 128 297 124 248 c 1
 119 238 94 236 92 249 c 0
 93 334 152 402 226 402 c 0
 265 402 294 392 362 355 c 0
 410 328 438 318 461 318 c 0
 505 318 534 345 540 396 c 0
 544 412 572 409 574 396 c 0
EndSplineSet
EndChar

StartChar: Adieresis
Encoding: 275 196 116
Width: 693
Flags: W
HStem: -4 21G<206 215 371.5 379 379 658> -3 35<-35.5 -32> 275 53<336 469> 702 107<638 668> 788 20G<475 504.5>
VStem: 436 108<741 770> 488 91 544 54<741.5 770> 598 109<741.5 771>
LayerCount: 2
Fore
SplineSet
707 756 m 0x7580
 707 727 683 702 653 702 c 0
 623 702 598 727 598 756 c 0
 598 786 623 809 653 809 c 0
 683 809 707 786 707 756 c 0x7580
544 755 m 0
 544 727 519 702 490 702 c 0x7580
 460 702 436 727 436 755 c 0
 436 785 460 808 490 808 c 0x6d80
 519 808 544 785 544 755 c 0
676 12 m 0
 675 1 670 -5 658 -4 c 0
 590 -1 450 -3 379 -4 c 0xb580
 364 -4 365 32 383 32 c 0x7580
 469 32 488 46 488 107 c 2
 488 262 l 2
 489 267 475 275 469 275 c 0
 415 278 343 277 295 275 c 0
 285 274 274 269 264 258 c 2
 149 104 l 2
 137 88 134 75 134 65 c 0
 134 35 159 35 185 33 c 0
 194 32 203 33 210 33 c 0
 228 33 224 -4 206 -4 c 0xb280
 137 -3 40 -1 -32 -3 c 0
 -48 -3 -47 32 -24 32 c 0
 25 40 47 53 98 120 c 2
 510 656 l 2
 517 666 579 670 579 653 c 2x7280
 584 83 l 2
 584 43 606 36 629 33 c 0
 637 32 647 34 656 34 c 0
 659 34 661 34 663 34 c 0
 673 33 678 23 676 12 c 0
490 343 m 2
 490 538 l 2
 490 561 483 552 480 549 c 0
 435 492 370 395 331 347 c 0
 328 343 325 328 336 328 c 0
 373 330 438 329 470 328 c 0
 476 328 490 331 490 343 c 2
EndSplineSet
EndChar

StartChar: Aring
Encoding: 276 197 117
Width: 693
Flags: W
HStem: -4 21G<206 215 371.5 379 379 658> -3 35<-35.5 -32> 275 53<336 469> 698 43<539 568.5 539 580.5> 850 43<539 568.5>
VStem: 458 43<780.5 810.5 780.5 822> 488 91 501 107<780.5 810.5> 608 41<780.5 810.5>
LayerCount: 2
Fore
SplineSet
676 12 m 0x7a80
 675 1 670 -5 658 -4 c 0
 590 -1 450 -3 379 -4 c 0xbd80
 364 -4 365 32 383 32 c 0x7d80
 469 32 488 46 488 107 c 2
 488 262 l 2
 489 267 475 275 469 275 c 0
 415 278 343 277 295 275 c 0
 285 274 274 269 264 258 c 2
 149 104 l 2
 137 88 134 75 134 65 c 0
 134 35 159 35 185 33 c 0
 194 32 203 33 210 33 c 0
 228 33 224 -4 206 -4 c 0xba80
 137 -3 40 -1 -32 -3 c 0
 -48 -3 -47 32 -24 32 c 0
 25 40 47 53 98 120 c 2
 510 656 l 2
 517 666 579 670 579 653 c 2
 584 83 l 2
 584 43 606 36 629 33 c 0
 637 32 647 34 656 34 c 0
 659 34 661 34 663 34 c 0
 673 33 678 23 676 12 c 0x7a80
490 343 m 2
 490 538 l 2
 490 561 483 552 480 549 c 0
 435 492 370 395 331 347 c 0
 328 343 325 328 336 328 c 0
 373 330 438 329 470 328 c 0
 476 328 490 331 490 343 c 2
649 795 m 0
 649 741 607 698 554 698 c 0
 502 698 458 741 458 795 c 0
 458 849 502 893 554 893 c 0
 607 893 649 849 649 795 c 0
608 795 m 0
 608 826 583 850 554 850 c 0
 524 850 501 826 501 795 c 0
 501 766 524 741 554 741 c 0
 583 741 608 766 608 795 c 0
EndSplineSet
EndChar

StartChar: Ccedilla
Encoding: 277 199 118
Width: 712
Flags: W
HStem: -211 28<253.5 281.5 252 297.5> -18 21G<350 369> -17 39<323 323> 623 40<394 539 368.5 550.5>
VStem: 29 105<191.5 366.5 191.5 386.5> 335 57<-142 -120.5>
LayerCount: 2
Fore
SplineSet
727 586 m 0xbc
 721 566 709 529 689 457 c 0
 684 441 653 444 657 460 c 0
 660 472 660 475 660 487 c 0
 660 576 608 623 493 623 c 0
 295 623 134 465 134 268 c 0
 134 115 214 22 354 22 c 0xbc
 460 22 546 73 614 171 c 0
 619 182 649 176 643 159 c 2
 592 4 l 2
 589 -4 578 -5 571 0 c 0
 532 12 521 6 480 -2 c 0
 427 -13 388 -18 350 -18 c 1xdc
 340 -39 l 1
 372 -45 392 -74 392 -110 c 0
 392 -174 338 -211 257 -211 c 0
 250 -211 245 -211 228 -209 c 0
 211 -204 219 -182 231 -182 c 0
 246 -183 249 -183 255 -183 c 0
 308 -183 335 -162 335 -129 c 0
 335 -112 326 -100 295 -97 c 0
 288 -96 285 -94 289 -86 c 2
 323 -17 l 1
 160 -7 29 102 29 278 c 0
 29 495 237 663 500 663 c 0
 578 663 643 648 713 621 c 0
 721 618 733 605 727 586 c 0xbc
EndSplineSet
EndChar

StartChar: Eacute
Encoding: 278 201 119
Width: 662
Flags: MW
HStem: -2 43 308 40<270 359 289 351 351 359 359 403> 608 38<341.5 344 344 496>
LayerCount: 2
Fore
SplineSet
562 857 m 0
 526 801 470 743 447 720 c 0
 439 710 422 714 426 727 c 0
 436 759 459 823 466 865 c 0
 470 874 480 876 492 877 c 2
 549 880 l 2
 561 882 569 868 562 857 c 0
658 618 m 2
 632 501 l 1
 633 487 602 489 604 502 c 0
 605 512 605 514 605 519 c 0
 605 582 576 608 496 608 c 2
 344 608 l 2
 339 608 323 605 321 597 c 2
 272 361 l 2
 271 355 277 348 289 348 c 2
 289 348 333 346 359 348 c 0
 384 350 439 348 439 348 c 2
 496 348 520 362 543 413 c 0
 547 425 579 422 572 407 c 0
 561 365 548 274 535 229 c 0
 534 216 500 215 504 230 c 0
 505 236 505 240 505 245 c 0
 505 293 486 308 403 308 c 2
 403 308 383 310 351 308 c 0
 320 307 275 308 275 308 c 2
 265 308 260 305 258 296 c 2
 216 99 l 2
 202 35 261 38 309 38 c 2
 379 38 l 2
 445 38 485 50 523 78 c 0
 554 100 566 109 593 145 c 0
 598 152 602 153 609 153 c 0
 613 153 623 150 621 141 c 0
 607 107 586 42 575 9 c 1
 566 -1 561 -2 533 -2 c 2
 13 -3 l 2
 -6 -5 2 39 25 40 c 0
 36 41 47 40 55 41 c 0
 99 44 110 55 123 116 c 2
 211 531 l 2
 216 553 217 565 217 572 c 0
 217 598 196 611 155 611 c 2
 129 611 l 2
 111 609 120 650 136 646 c 0
 261 645 506 645 638 646 c 0
 661 646 663 641 658 618 c 2
EndSplineSet
EndChar

StartChar: Ntilde
Encoding: 279 209 120
Width: 790
Flags: W
HStem: 613 33 717 63<578.5 649.5> 785 62<440.5 511> 832 20G<704 707>
LayerCount: 2
Fore
SplineSet
858 646 m 0xd0
 877 647 866 616 853 614 c 0
 793 606 766 580 752 512 c 2
 642 -8 l 2
 640 -18 611 -16 605 -10 c 2
 256 517 l 2
 254 520 245 516 241 496 c 2
 172 143 l 2
 169 129 168 114 168 102 c 0
 168 58 183 39 239 32 c 1
 246 32 l 2
 263 32 256 -6 242 -3 c 0
 189 -1 78 0 18 -3 c 0
 2 -4 8 32 22 31 c 0
 84 40 106 60 122 138 c 2
 212 583 l 1
 191 611 158 607 127 611 c 0
 113 611 119 648 132 647 c 0
 168 646 216 645 248 646 c 0
 268 646 278 644 283 636 c 2
 614 144 l 2
 619 137 629 130 631 137 c 2
 711 514 l 2
 714 530 716 542 716 553 c 0
 716 594 694 610 632 613 c 0
 621 614 623 646 638 646 c 0
 695 644 806 645 858 646 c 0xd0
718 846 m 0
 719 840 718 836 717 833 c 0
 702 762 650 717 592 717 c 0
 565 717 536 730 503 756 c 0
 472 782 463 785 450 785 c 0
 431 785 419 774 403 738 c 0
 403 734 400 730 397 720 c 0
 391 712 369 707 370 720 c 0
 392 806 435 847 496 847 c 0xe0
 526 847 547 838 586 807 c 0
 612 786 627 780 639 780 c 0
 660 780 674 792 693 846 c 0
 694 850 701 852 707 852 c 0
 714 853 719 850 718 846 c 0
EndSplineSet
EndChar

StartChar: Odieresis
Encoding: 280 214 121
Width: 819
Flags: W
HStem: -18 39<383 383> 623 39<476 476> 722 107<585 615> 808 20G<421.5 450.5>
VStem: 85 100<201.5 349.5 187.5 389.5> 383 107<761 790> 545 108<761.5 791> 676 100<283.5 443 253.5 458>
LayerCount: 2
Fore
SplineSet
653 776 m 0xef
 653 747 630 722 600 722 c 0
 570 722 545 747 545 776 c 0
 545 806 570 829 600 829 c 0
 630 829 653 806 653 776 c 0xef
490 775 m 0
 490 747 465 722 436 722 c 0xef
 406 722 383 747 383 775 c 0
 383 805 407 828 436 828 c 0xdf
 465 828 490 805 490 775 c 0
776 357 m 0
 776 150 600 -18 383 -18 c 0
 209 -18 85 115 85 288 c 0
 85 491 264 662 475 662 c 0
 649 662 776 529 776 357 c 0
676 388 m 0
 676 528 598 624 476 623 c 0
 286 622 185 437 185 262 c 0
 185 113 258 22 384 21 c 0
 546 19 676 179 676 388 c 0
EndSplineSet
EndChar

StartChar: Udieresis
Encoding: 281 220 122
Width: 748
Flags: W
HStem: -18 37<301 397> 610 38<348 348> 725 107<558 588> 811 20G<395 424.5>
LayerCount: 2
Fore
SplineSet
627 779 m 0xe0
 627 750 603 725 573 725 c 0
 543 725 518 750 518 779 c 0
 518 809 543 832 573 832 c 0
 603 832 627 809 627 779 c 0xe0
464 778 m 0
 464 750 439 725 410 725 c 0xe0
 380 725 356 750 356 778 c 0
 356 808 380 831 410 831 c 0xd0
 439 831 464 808 464 778 c 0
788 648 m 0
 806 650 801 611 783 614 c 1
 728 607 706 596 689 507 c 2
 638 236 l 2
 627 176 617 147 594 110 c 0
 537 17 451 -18 343 -18 c 0
 226 -18 161 15 115 84 c 0
 74 147 81 204 96 272 c 2
 151 527 l 2
 156 549 157 560 157 568 c 0
 157 599 136 612 95 612 c 2
 78 612 l 2
 63 612 70 650 85 648 c 0
 155 646 288 645 348 648 c 0
 356 648 362 645 362 636 c 0
 361 629 357 609 348 610 c 0
 274 614 265 602 249 529 c 2
 192 266 l 2
 184 229 180 195 180 169 c 0
 180 80 242 19 360 19 c 0
 518 19 572 114 597 248 c 2
 647 515 l 2
 650 531 651 541 651 551 c 0
 651 610 609 614 563 614 c 0
 547 614 556 652 570 648 c 1
 603 648 642 646 685 648 c 0
 728 649 743 648 771 648 c 0
 776 650 783 648 788 648 c 0
EndSplineSet
EndChar

StartChar: aacute
Encoding: 282 225 123
Width: 420
Flags: MW
HStem: -12 21G<77.5 114.5 264 286.5> 408 20G<378 380.5>
VStem: 32 73<98 150.5>
LayerCount: 2
Fore
SplineSet
368 638 m 0
 331 582 276 524 252 501 c 0
 244 491 228 495 232 508 c 0
 242 540 265 604 272 646 c 0
 276 655 286 657 298 658 c 2
 355 661 l 2
 367 664 375 649 368 638 c 0
395 93 m 0
 396 88 395 85 390 80 c 0
 381 70 361 49 340 28 c 0
 319 8 295 -12 278 -12 c 0
 250 -12 243 17 244 46 c 0
 244 65 248 83 252 101 c 0
 253 106 251 113 247 109 c 0
 221 81 133 -12 96 -12 c 0
 59 -12 32 44 32 99 c 0
 32 202 111 323 217 385 c 0
 270 416 319 427 378 428 c 0
 383 428 386 422 386 413 c 2
 329 121 l 2
 323 91 321 75 321 69 c 0
 321 52 336 68 342 73 c 0
 354 83 364 95 374 107 c 1
 380 122 394 106 395 93 c 0
303 355 m 2
 304 362 300 364 294 363 c 0
 253 358 223 345 197 327 c 0
 141 289 105 206 105 120 c 0
 105 76 120 52 132 52 c 0
 144 52 248 151 264 167 c 1
 303 355 l 2
EndSplineSet
EndChar

StartChar: agrave
Encoding: 283 224 124
Width: 420
Flags: MW
HStem: -12 21G<77.5 114.5 264 286.5> 408 20G<378 380.5> 637 20G<220 276 276 281>
VStem: 32 73<98 150.5>
LayerCount: 2
Fore
SplineSet
346 504 m 0
 349 491 328 492 322 499 c 0
 295 535 242 601 209 635 c 0
 197 647 213 657 220 657 c 2
 276 657 l 2
 286 657 295 656 302 643 c 0
 313 621 336 539 346 504 c 0
395 93 m 0
 396 88 395 85 390 80 c 0
 381 70 361 49 340 28 c 0
 319 8 295 -12 278 -12 c 0
 250 -12 243 17 244 46 c 0
 244 65 248 83 252 101 c 0
 253 106 251 113 247 109 c 0
 221 81 133 -12 96 -12 c 0
 59 -12 32 44 32 99 c 0
 32 202 111 323 217 385 c 0
 270 416 319 427 378 428 c 0
 383 428 386 422 386 413 c 2
 329 121 l 2
 323 91 321 75 321 69 c 0
 321 52 336 68 342 73 c 0
 354 83 364 95 374 107 c 1
 380 122 394 106 395 93 c 0
303 355 m 2
 304 362 300 364 294 363 c 0
 253 358 223 345 197 327 c 0
 141 289 105 206 105 120 c 0
 105 76 120 52 132 52 c 0
 144 52 248 151 264 167 c 1
 303 355 l 2
EndSplineSet
EndChar

StartChar: acircumflex
Encoding: 284 226 125
Width: 420
Flags: MW
HStem: -12 21G<77.5 114.5 264 286.5> 408 20G<378 380.5> 640 20G<332 372 372 375.5>
VStem: 32 73<98 150.5>
LayerCount: 2
Fore
SplineSet
395 93 m 0
 396 88 395 85 390 80 c 0
 381 70 361 49 340 28 c 0
 319 8 295 -12 278 -12 c 0
 250 -12 243 17 244 46 c 0
 244 65 248 83 252 101 c 0
 253 106 251 113 247 109 c 0
 221 81 133 -12 96 -12 c 0
 59 -12 32 44 32 99 c 0
 32 202 111 323 217 385 c 0
 270 416 319 427 378 428 c 0
 383 428 386 422 386 413 c 2
 329 121 l 2
 323 91 321 75 321 69 c 0
 321 52 336 68 342 73 c 0
 354 83 364 95 374 107 c 1
 380 122 394 106 395 93 c 0
303 355 m 2
 304 362 300 364 294 363 c 0
 253 358 223 345 197 327 c 0
 141 289 105 206 105 120 c 0
 105 76 120 52 132 52 c 0
 144 52 248 151 264 167 c 1
 303 355 l 2
435 500 m 2
 439 490 419 493 416 500 c 0
 398 521 361 567 352 577 c 0
 347 582 330 589 321 583 c 2
 185 500 l 2
 171 491 142 485 168 511 c 2
 309 650 l 2
 317 657 320 658 332 660 c 2
 372 660 l 2
 379 660 389 657 392 648 c 2
 435 500 l 2
EndSplineSet
EndChar

StartChar: adieresis
Encoding: 285 228 126
Width: 420
Flags: W
HStem: -12 62<77 137.5> 408 20G<347 378.5> 496 114<343.5 374 343.5 374.5> 589 20G<180 210>
VStem: 32 71<98.5 150.5> 141 109<538 568.5> 303 111<538.5 569.5 538.5 569.5>
LayerCount: 2
Fore
SplineSet
414 554 m 0xee
 414 523 390 496 359 496 c 0
 328 496 303 522 303 554 c 0
 303 585 328 610 359 610 c 0
 389 610 414 585 414 554 c 0xee
250 553 m 0
 250 522 225 496 195 496 c 0xee
 165 496 141 523 141 553 c 0
 141 584 165 609 195 609 c 0xde
 225 609 250 584 250 553 c 0
392 97 m 0
 395 86 388 83 382 76 c 0
 358 49 306 -12 277 -12 c 0
 231 -12 242 63 251 105 c 0
 252 110 253 117 246 110 c 0
 212 74 129 -12 95 -12 c 0
 59 -12 32 44 32 99 c 0
 32 202 110 323 216 386 c 0
 269 417 318 428 376 428 c 0
 381 428 385 425 385 416 c 2
 328 121 l 2
 322 92 319 75 319 69 c 0
 319 62 321 60 323 60 c 0
 333 60 361 93 370 104 c 0
 374 109 381 111 383 109 c 0
 387 107 391 102 392 97 c 0
302 354 m 2
 303 361 305 367 293 365 c 0
 252 360 222 346 195 328 c 0
 139 290 103 207 103 120 c 0
 103 77 119 50 131 50 c 0
 144 50 247 151 264 166 c 1
 302 354 l 2
EndSplineSet
EndChar

StartChar: atilde
Encoding: 286 227 127
Width: 420
Flags: W
HStem: -12 21G<77.5 114.5 264 286.5> 408 20G<378 380.5> 496 63<330.5 401.5> 564 62<193.5 264> 611 20G<457 460>
VStem: 32 73<98 150.5>
LayerCount: 2
Fore
SplineSet
395 93 m 0xec
 396 88 395 85 390 80 c 0
 381 70 361 49 340 28 c 0
 319 8 295 -12 278 -12 c 0
 250 -12 243 17 244 46 c 0
 244 65 248 83 252 101 c 0
 253 106 251 113 247 109 c 0
 221 81 133 -12 96 -12 c 0
 59 -12 32 44 32 99 c 0
 32 202 111 323 217 385 c 0
 270 416 319 427 378 428 c 0
 383 428 386 422 386 413 c 2
 329 121 l 2
 323 91 321 75 321 69 c 0
 321 52 336 68 342 73 c 0
 354 83 364 95 374 107 c 1
 380 122 394 106 395 93 c 0xec
303 355 m 2
 304 362 300 364 294 363 c 0
 253 358 223 345 197 327 c 0
 141 289 105 206 105 120 c 0
 105 76 120 52 132 52 c 0
 144 52 248 151 264 167 c 1
 303 355 l 2
470 625 m 0
 471 619 470 615 470 612 c 0
 455 541 402 496 344 496 c 0
 317 496 288 509 256 535 c 0
 224 561 216 564 203 564 c 0
 184 564 171 553 156 517 c 0
 155 513 152 509 149 499 c 0
 143 491 121 486 122 499 c 0
 144 585 188 626 249 626 c 0xf4
 279 626 300 617 338 586 c 0
 365 565 379 559 391 559 c 0
 412 559 426 571 445 625 c 0
 446 629 454 631 460 631 c 0
 466 632 471 629 470 625 c 0
EndSplineSet
EndChar

StartChar: aring
Encoding: 287 229 128
Width: 420
Flags: MW
HStem: -12 21G<77.5 114.5 264 286.5> 408 20G<378 380.5> 472 43<294 323.5 294 335.5> 624 43<294 323.5>
VStem: 32 73<98 150.5> 213 43<554.5 584.5 554.5 596> 363 41<554.5 584.5>
LayerCount: 2
Fore
SplineSet
395 93 m 0
 396 88 395 85 390 80 c 0
 381 70 361 49 340 28 c 0
 319 8 295 -12 278 -12 c 0
 250 -12 243 17 244 46 c 0
 244 65 248 83 252 101 c 0
 253 106 251 113 247 109 c 0
 221 81 133 -12 96 -12 c 0
 59 -12 32 44 32 99 c 0
 32 202 111 323 217 385 c 0
 270 416 319 427 378 428 c 0
 383 428 386 422 386 413 c 2
 329 121 l 2
 323 91 321 75 321 69 c 0
 321 52 336 68 342 73 c 0
 354 83 364 95 374 107 c 1
 380 122 394 106 395 93 c 0
303 355 m 2
 304 362 300 364 294 363 c 0
 253 358 223 345 197 327 c 0
 141 289 105 206 105 120 c 0
 105 76 120 52 132 52 c 0
 144 52 248 151 264 167 c 1
 303 355 l 2
404 569 m 0
 404 515 362 472 309 472 c 0
 257 472 213 515 213 569 c 0
 213 623 257 667 309 667 c 0
 362 667 404 623 404 569 c 0
363 569 m 0
 363 600 338 624 309 624 c 0
 279 624 256 600 256 569 c 0
 256 540 279 515 309 515 c 0
 338 515 363 540 363 569 c 0
EndSplineSet
EndChar

StartChar: ccedilla
Encoding: 288 231 129
Width: 320
Flags: W
HStem: -12 21G<148.5 153> 347 82<292 293.5 210 312>
VStem: 53 140 146 47<-124 -100>
LayerCount: 2
Fore
SplineSet
334 386 m 0xe0
 334 365 322 347 302 347 c 0
 282 347 270 356 253 365 c 0
 241 372 235 374 228 374 c 0
 210 374 190 354 171 306 c 0
 150 252 82 43 177 43 c 0
 205 43 240 65 271 103 c 0
 279 119 305 95 298 81 c 0
 253 27 196 -8 153 -12 c 0
 144 -12 145 -10 141 -16 c 2
 139 -21 l 2
 137 -25 141 -28 145 -29 c 0
 174 -34 193 -58 193 -92 c 0
 193 -156 135 -192 46 -190 c 0
 41 -189 35 -187 36 -183 c 2
 38 -177 l 2
 39 -173 43 -171 47 -171 c 0
 114 -174 146 -148 146 -111 c 0xd0
 146 -89 133 -80 106 -77 c 0
 102 -76 99 -68 101 -62 c 2
 122 -21 l 2
 124 -16 124 -10 120 -9 c 0
 78 1 53 43 53 100 c 0
 53 212 142 429 278 429 c 0
 309 429 334 414 334 386 c 0xe0
EndSplineSet
EndChar

StartChar: eacute
Encoding: 289 233 130
Width: 364
Flags: MW
HStem: -12 51 392 39
VStem: 38 76<100 136 100 208> 290 59
LayerCount: 2
Fore
SplineSet
341 638 m 0
 305 582 250 524 226 501 c 0
 218 491 202 495 206 508 c 0
 217 540 238 604 245 646 c 0
 249 655 259 657 271 658 c 2
 328 661 l 2
 340 664 348 649 341 638 c 0
349 356 m 0
 349 297 310 261 261 236 c 0
 237 224 211 214 186 206 c 0
 171 202 157 198 144 194 c 0
 127 189 119 186 117 170 c 0
 114 157 114 143 114 129 c 0
 114 71 145 38 187 39 c 0
 215 40 248 56 296 93 c 0
 313 106 324 79 312 64 c 0
 252 12 186 -12 143 -12 c 0
 82 -12 38 53 38 133 c 0
 38 283 146 431 263 431 c 0
 315 431 349 403 349 356 c 0
290 344 m 0
 292 372 277 393 249 392 c 0
 176 390 146 299 132 240 c 0
 132 235 145 235 150 236 c 0
 184 244 202 250 233 265 c 0
 270 284 289 317 290 344 c 0
EndSplineSet
EndChar

StartChar: egrave
Encoding: 290 232 131
Width: 364
Flags: MW
HStem: -12 51 392 39 637 20G<194 250 250 254.5>
VStem: 38 76<100 136 100 208> 290 59
LayerCount: 2
Fore
SplineSet
319 504 m 0
 323 491 301 492 296 499 c 0
 269 535 216 601 183 635 c 0
 171 647 187 657 194 657 c 2
 250 657 l 2
 259 657 268 656 275 643 c 0
 287 621 309 539 319 504 c 0
349 356 m 0
 349 297 310 261 261 236 c 0
 237 224 211 214 186 206 c 0
 171 202 157 198 144 194 c 0
 127 189 119 186 117 170 c 0
 114 157 114 143 114 129 c 0
 114 71 145 38 187 39 c 0
 215 40 248 56 296 93 c 0
 313 106 324 79 312 64 c 0
 252 12 186 -12 143 -12 c 0
 82 -12 38 53 38 133 c 0
 38 283 146 431 263 431 c 0
 315 431 349 403 349 356 c 0
290 344 m 0
 292 372 277 393 249 392 c 0
 176 390 146 299 132 240 c 0
 132 235 145 235 150 236 c 0
 184 244 202 250 233 265 c 0
 270 284 289 317 290 344 c 0
EndSplineSet
EndChar

StartChar: ecircumflex
Encoding: 291 234 132
Width: 364
Flags: MW
HStem: -12 51 392 39 642 20G<299 346 346 349.5>
VStem: 38 76<100 136 100 208> 290 59
LayerCount: 2
Fore
SplineSet
349 356 m 0
 349 297 310 261 261 236 c 0
 237 224 211 214 186 206 c 0
 171 202 157 198 144 194 c 0
 127 189 119 186 117 170 c 0
 114 157 114 143 114 129 c 0
 114 71 145 38 187 39 c 0
 215 40 248 56 296 93 c 0
 313 106 324 79 312 64 c 0
 252 12 186 -12 143 -12 c 0
 82 -12 38 53 38 133 c 0
 38 283 146 431 263 431 c 0
 315 431 349 403 349 356 c 0
290 344 m 0
 292 372 277 393 249 392 c 0
 176 390 146 299 132 240 c 0
 132 235 145 235 150 236 c 0
 184 244 202 250 233 265 c 0
 270 284 289 317 290 344 c 0
402 499 m 2
 406 489 386 492 383 499 c 0
 365 520 328 566 319 576 c 0
 314 581 297 588 288 582 c 2
 152 499 l 2
 138 490 109 484 135 510 c 2
 276 652 l 2
 283 660 287 660 299 662 c 2
 346 662 l 2
 353 662 364 659 366 650 c 2
 402 499 l 2
EndSplineSet
EndChar

StartChar: edieresis
Encoding: 292 235 133
Width: 364
Flags: W
HStem: -12 51 392 39 506 101<166 194 321 349.5>
VStem: 38 76<100 136 100 208> 129 102<542.5 570> 283 66 283 103<543 571>
LayerCount: 2
Fore
SplineSet
386 557 m 0xfa
 386 529 364 506 335 506 c 0
 307 506 283 529 283 557 c 0
 283 585 307 607 335 607 c 0
 364 607 386 585 386 557 c 0xfa
231 556 m 0
 231 529 208 506 180 506 c 0
 152 506 129 529 129 556 c 0
 129 584 152 607 180 607 c 0
 208 607 231 584 231 556 c 0
349 356 m 0xfc
 349 297 310 261 261 236 c 0
 237 224 211 214 186 206 c 0
 171 202 157 198 144 194 c 0
 127 189 119 186 117 170 c 0
 114 157 114 143 114 129 c 0
 114 71 145 38 187 39 c 0
 215 40 248 56 296 93 c 0
 313 106 324 79 312 64 c 0
 252 12 186 -12 143 -12 c 0
 82 -12 38 53 38 133 c 0
 38 283 146 431 263 431 c 0
 315 431 349 403 349 356 c 0xfc
290 344 m 0
 292 372 277 393 249 392 c 0
 176 390 146 299 132 240 c 0
 132 235 145 235 150 236 c 0
 184 244 202 250 233 265 c 0
 270 284 289 317 290 344 c 0
EndSplineSet
EndChar

StartChar: iacute
Encoding: 293 237 134
Width: 258
Flags: MW
HStem: -11 21G<99 118.5>
LayerCount: 2
Fore
SplineSet
289 638 m 0
 252 582 197 524 173 501 c 0
 165 491 149 495 153 508 c 0
 164 540 185 604 193 646 c 0
 196 655 206 657 218 658 c 2
 276 661 l 2
 287 664 296 649 289 638 c 0
225 88 m 0
 203 60 138 -11 99 -11 c 0
 56 -10 67 51 71 71 c 2
 122 322 l 2
 126 340 129 358 117 348 c 0
 104 336 81 310 76 304 c 0
 67 292 49 317 60 331 c 0
 110 394 158 432 182 432 c 0
 215 431 207 386 203 367 c 2
 146 80 l 2
 143 65 144 52 155 62 c 0
 169 72 196 102 204 114 c 0
 218 133 233 97 225 88 c 0
EndSplineSet
EndChar

StartChar: igrave
Encoding: 294 236 135
Width: 258
Flags: MW
HStem: -11 21G<99 118.5> 637 20G<104 160 160 164.5>
LayerCount: 2
Fore
SplineSet
229 504 m 0
 233 491 212 492 206 499 c 0
 179 535 126 601 93 635 c 0
 81 647 97 657 104 657 c 2
 160 657 l 2
 169 657 178 656 185 643 c 0
 197 621 219 539 229 504 c 0
225 88 m 0
 203 60 138 -11 99 -11 c 0
 56 -10 67 51 71 71 c 2
 122 322 l 2
 126 340 129 358 117 348 c 0
 104 336 81 310 76 304 c 0
 67 292 49 317 60 331 c 0
 110 394 158 432 182 432 c 0
 215 431 207 386 203 367 c 2
 146 80 l 2
 143 65 144 52 155 62 c 0
 169 72 196 102 204 114 c 0
 218 133 233 97 225 88 c 0
EndSplineSet
EndChar

StartChar: icircumflex
Encoding: 295 238 136
Width: 258
Flags: MW
HStem: -11 21G<99 118.5> 642 20G<209 249 249 252.5>
LayerCount: 2
Fore
SplineSet
225 88 m 0
 203 60 138 -11 99 -11 c 0
 56 -10 67 51 71 71 c 2
 122 322 l 2
 126 340 129 358 117 348 c 0
 104 336 81 310 76 304 c 0
 67 292 49 317 60 331 c 0
 110 394 158 432 182 432 c 0
 215 431 207 386 203 367 c 2
 146 80 l 2
 143 65 144 52 155 62 c 0
 169 72 196 102 204 114 c 0
 218 133 233 97 225 88 c 0
303 499 m 2
 307 489 287 492 284 499 c 2
 221 585 l 2
 218 590 213 594 204 588 c 2
 73 499 l 2
 59 490 32 483 56 510 c 2
 186 652 l 2
 194 659 197 660 209 662 c 2
 249 662 l 2
 256 662 267 659 269 650 c 2
 303 499 l 2
EndSplineSet
EndChar

StartChar: idieresis
Encoding: 296 239 137
Width: 258
Flags: W
HStem: -11 21G<99 118.5> 504 106<263 293> 589 20G<101 130.5>
VStem: 62 108<542 571> 223 109<542.5 572>
LayerCount: 2
Fore
SplineSet
332 557 m 0xd8
 332 528 308 504 278 504 c 0
 248 504 223 528 223 557 c 0
 223 587 248 610 278 610 c 0
 308 610 332 587 332 557 c 0xd8
170 556 m 0
 170 528 145 504 116 504 c 0xd8
 86 504 62 528 62 556 c 0
 62 586 86 609 116 609 c 0xb8
 145 609 170 586 170 556 c 0
225 88 m 0
 203 60 138 -11 99 -11 c 0
 56 -10 67 51 71 71 c 2
 122 322 l 2
 126 340 129 358 117 348 c 0
 104 336 81 310 76 304 c 0
 67 292 49 317 60 331 c 0
 110 394 158 432 182 432 c 0
 215 431 207 386 203 367 c 2
 146 80 l 2
 143 65 144 52 155 62 c 0
 169 72 196 102 204 114 c 0
 218 133 233 97 225 88 c 0
EndSplineSet
EndChar

StartChar: ntilde
Encoding: 297 241 138
Width: 469
Flags: W
HStem: -12 21G<287 324> -11 21G<63.5 70 70 97> 362 67<340.5 341> 496 63<335.5 406.5> 564 62<198.5 269> 611 20G<462 465>
LayerCount: 2
Fore
SplineSet
475 625 m 0x74
 476 619 475 615 475 612 c 0
 460 541 407 496 349 496 c 0
 322 496 293 509 261 535 c 0
 229 561 221 564 208 564 c 0
 189 564 176 553 161 517 c 0
 160 513 157 509 154 499 c 0
 148 491 126 486 127 499 c 0
 149 585 193 626 254 626 c 0x78
 284 626 305 617 343 586 c 0
 370 565 384 559 396 559 c 0
 417 559 431 571 450 625 c 0
 451 629 459 631 465 631 c 0
 471 632 476 629 475 625 c 0x74
452 108 m 2
 442 93 l 2
 396 24 340 -12 308 -12 c 0xb8
 266 -12 269 39 277 69 c 0
 290 122 325 247 340 319 c 0
 342 331 348 362 334 362 c 0
 295 362 179 195 153 159 c 1
 122 11 l 2
 118 -8 115 -11 97 -11 c 2
 70 -11 l 2
 57 -11 44 -5 50 14 c 2
 108 304 l 2
 116 346 101 324 96 319 c 0
 82 302 78 296 65 279 c 0
 52 263 39 291 49 305 c 0
 67 330 144 431 177 429 c 0
 200 428 201 399 196 374 c 2
 196 374 171 250 173 258 c 1
 169 237 194 269 194 269 c 1
 246 340 306 429 375 429 c 0
 434 429 422 340 413 303 c 0
 401 256 383 178 354 76 c 0
 352 71 344 50 351 48 c 0
 356 47 372 57 390 78 c 0
 408 98 426 120 431 126 c 0
 436 134 443 131 447 127 c 0
 451 123 453 115 452 108 c 2
EndSplineSet
EndChar

StartChar: oacute
Encoding: 298 243 139
Width: 401
Flags: MW
HStem: -12 49<109 207.5> 379 50<199.5 301>
VStem: 38 77<118.5 198.5> 299 75<242 295>
LayerCount: 2
Fore
SplineSet
368 638 m 0
 331 582 276 524 252 501 c 0
 244 491 228 495 232 508 c 0
 242 540 265 604 272 646 c 0
 276 655 286 657 298 658 c 2
 355 661 l 2
 367 664 375 649 368 638 c 0
374 273 m 0
 374 211 355 153 320 107 c 0
 290 68 238 25 189 4 c 0
 167 -6 147 -12 133 -12 c 0
 85 -12 38 71 38 155 c 0
 38 242 89 327 174 385 c 0
 211 411 252 429 277 429 c 0
 325 429 374 353 374 273 c 0
299 260 m 0
 299 330 265 379 228 379 c 0
 171 379 115 275 115 152 c 0
 115 85 146 37 177 37 c 0
 238 37 299 140 299 260 c 0
EndSplineSet
EndChar

StartChar: ograve
Encoding: 299 242 140
Width: 401
Flags: MW
HStem: -12 49<109 207.5> 379 50<199.5 301> 637 20G<203 259 259 264>
VStem: 38 77<118.5 198.5> 299 75<242 295>
LayerCount: 2
Fore
SplineSet
329 504 m 0
 332 491 311 492 305 499 c 0
 278 535 225 601 192 635 c 0
 180 647 196 657 203 657 c 2
 259 657 l 2
 269 657 278 656 285 643 c 0
 296 621 319 539 329 504 c 0
374 273 m 0
 374 211 355 153 320 107 c 0
 290 68 238 25 189 4 c 0
 167 -6 147 -12 133 -12 c 0
 85 -12 38 71 38 155 c 0
 38 242 89 327 174 385 c 0
 211 411 252 429 277 429 c 0
 325 429 374 353 374 273 c 0
299 260 m 0
 299 330 265 379 228 379 c 0
 171 379 115 275 115 152 c 0
 115 85 146 37 177 37 c 0
 238 37 299 140 299 260 c 0
EndSplineSet
EndChar

StartChar: ocircumflex
Encoding: 300 244 141
Width: 401
Flags: MW
HStem: -12 49<109 207.5> 379 50<199.5 301> 627 20G<301 349 349 352.5>
VStem: 38 77<118.5 198.5> 299 75<242 295>
LayerCount: 2
Fore
SplineSet
374 273 m 0
 374 211 355 153 320 107 c 0
 290 68 238 25 189 4 c 0
 167 -6 147 -12 133 -12 c 0
 85 -12 38 71 38 155 c 0
 38 242 89 327 174 385 c 0
 211 411 252 429 277 429 c 0
 325 429 374 353 374 273 c 0
299 260 m 0
 299 330 265 379 228 379 c 0
 171 379 115 275 115 152 c 0
 115 85 146 37 177 37 c 0
 238 37 299 140 299 260 c 0
405 484 m 2
 409 474 389 477 386 484 c 2
 313 570 l 2
 309 575 305 579 296 573 c 2
 154 484 l 2
 140 475 111 469 137 495 c 2
 278 637 l 2
 285 645 289 645 301 647 c 2
 349 647 l 2
 356 647 367 644 369 635 c 2
 405 484 l 2
EndSplineSet
EndChar

StartChar: odieresis
Encoding: 301 246 142
Width: 401
Flags: W
HStem: -12 49<109 207.5> 379 50<199.5 301> 494 106<338 368> 579 20G<175 204.5>
VStem: 38 77<118.5 198.5> 136 107<532 561> 299 75<242 295> 299 108
LayerCount: 2
Fore
SplineSet
407 547 m 0xed
 407 518 383 494 353 494 c 0
 323 494 298 518 298 547 c 0
 298 577 323 600 353 600 c 0
 383 600 407 577 407 547 c 0xed
243 546 m 0
 243 518 219 494 190 494 c 0xee
 160 494 136 518 136 546 c 0
 136 576 160 599 190 599 c 0xde
 219 599 243 576 243 546 c 0
374 273 m 0
 374 211 355 153 320 107 c 0
 290 68 238 25 189 4 c 0
 167 -6 147 -12 133 -12 c 0
 85 -12 38 71 38 155 c 0
 38 242 89 327 174 385 c 0
 211 411 252 429 277 429 c 0
 325 429 374 353 374 273 c 0
299 260 m 0
 299 330 265 379 228 379 c 0
 171 379 115 275 115 152 c 0
 115 85 146 37 177 37 c 0
 238 37 299 140 299 260 c 0
EndSplineSet
EndChar

StartChar: otilde
Encoding: 302 245 143
Width: 401
Flags: W
HStem: -12 49<109 207.5> 379 50<199.5 301> 496 63<324.5 395.5> 564 62<187.5 258> 611 20G<451 454>
VStem: 38 77<118.5 198.5> 299 75<242 295>
LayerCount: 2
Fore
SplineSet
374 273 m 0xee
 374 211 355 153 320 107 c 0
 290 68 238 25 189 4 c 0
 167 -6 147 -12 133 -12 c 0
 85 -12 38 71 38 155 c 0
 38 242 89 327 174 385 c 0
 211 411 252 429 277 429 c 0
 325 429 374 353 374 273 c 0xee
299 260 m 0
 299 330 265 379 228 379 c 0
 171 379 115 275 115 152 c 0
 115 85 146 37 177 37 c 0
 238 37 299 140 299 260 c 0
464 625 m 0
 465 619 464 615 464 612 c 0
 449 541 396 496 338 496 c 0
 311 496 282 509 250 535 c 0
 218 561 210 564 197 564 c 0
 178 564 165 553 150 517 c 0
 149 513 146 509 143 499 c 0
 137 491 115 486 116 499 c 0
 138 585 182 626 243 626 c 0xf6
 273 626 294 617 332 586 c 0
 359 565 373 559 385 559 c 0
 406 559 420 571 439 625 c 0
 440 629 448 631 454 631 c 0
 460 632 465 629 464 625 c 0
EndSplineSet
EndChar

StartChar: uacute
Encoding: 303 250 144
Width: 487
Flags: W
HStem: -12 21G<89.5 136 317.5 337.5> 407 20G<168 208> 410 20G<392 427 417.5 427>
LayerCount: 2
Fore
SplineSet
405 638 m 0xa0
 368 582 313 524 289 501 c 0
 281 491 265 495 269 508 c 0
 280 540 301 604 309 646 c 0
 312 655 322 657 334 658 c 2
 392 661 l 2
 403 664 412 649 405 638 c 0xa0
463 106 m 0
 414 42 349 -12 326 -12 c 0
 309 -12 302 5 302 23 c 0
 302 67 312 120 324 169 c 0
 326 176 330 199 322 187 c 0
 248 74 158 -12 114 -12 c 0
 65 -12 85 92 89 114 c 2
 131 324 l 2
 133 332 135 347 125 339 c 0
 111 329 86 300 80 292 c 0
 66 275 50 296 58 307 c 0
 75 330 145 427 191 427 c 0xc0
 225 427 214 373 210 353 c 2
 162 111 l 2
 159 101 153 47 179 71 c 0
 230 118 271 173 310 227 c 0
 330 254 340 275 349 305 c 0
 360 339 365 376 371 411 c 0
 373 423 375 431 392 430 c 0
 407 429 408 430 427 430 c 0
 450 431 447 413 445 401 c 2
 382 85 l 2
 380 75 381 62 405 88 c 0
 416 101 428 115 438 129 c 0
 448 143 468 119 463 106 c 0
EndSplineSet
EndChar

StartChar: ugrave
Encoding: 304 249 145
Width: 487
Flags: W
HStem: -12 21G<89.5 136 317.5 337.5> 407 20G<168 208> 410 20G<392 427 417.5 427> 637 20G<217 273 273 277.5>
LayerCount: 2
Fore
SplineSet
342 504 m 0xb0
 346 491 325 492 319 499 c 0
 292 535 239 601 206 635 c 0
 194 647 210 657 217 657 c 2
 273 657 l 2
 282 657 291 656 298 643 c 0
 310 621 332 539 342 504 c 0xb0
463 106 m 0
 414 42 349 -12 326 -12 c 0
 309 -12 302 5 302 23 c 0
 302 67 312 120 324 169 c 0
 326 176 330 199 322 187 c 0
 248 74 158 -12 114 -12 c 0
 65 -12 85 92 89 114 c 2
 133 336 l 2
 135 344 135 347 125 339 c 0
 111 329 86 300 80 292 c 0
 66 275 50 296 58 307 c 0
 75 330 145 427 191 427 c 0xd0
 225 427 214 373 210 353 c 2
 162 111 l 2
 159 101 153 47 179 71 c 0
 230 118 271 173 310 227 c 0
 330 254 340 275 349 305 c 0
 360 339 365 376 371 411 c 0
 373 423 375 431 392 430 c 0
 407 429 408 430 427 430 c 0
 450 431 447 413 445 401 c 2
 382 85 l 2
 380 75 381 62 405 88 c 0
 416 101 428 115 438 129 c 0
 448 143 468 119 463 106 c 0
EndSplineSet
EndChar

StartChar: ucircumflex
Encoding: 305 251 146
Width: 487
Flags: W
HStem: -12 21G<89.5 136 317.5 337.5> 407 20G<168 208> 410 20G<392 427 417.5 427> 647 20G<344 384 384 387.5>
LayerCount: 2
Fore
SplineSet
463 106 m 0xb0
 414 42 349 -12 326 -12 c 0
 309 -12 302 5 302 23 c 0
 302 67 312 120 324 169 c 0
 326 176 330 199 322 187 c 0
 248 74 158 -12 114 -12 c 0
 65 -12 85 92 89 114 c 2
 133 336 l 2
 135 344 135 347 125 339 c 0
 111 329 86 300 80 292 c 0
 66 275 50 296 58 307 c 0
 75 330 145 427 191 427 c 0xd0
 225 427 214 373 210 353 c 2
 162 111 l 2
 159 101 153 47 179 71 c 0
 230 118 271 173 310 227 c 0
 330 254 340 275 349 305 c 0
 360 339 365 376 371 411 c 0
 373 423 375 431 392 430 c 0
 407 429 408 430 427 430 c 0
 450 431 447 413 445 401 c 2
 382 85 l 2
 380 75 381 62 405 88 c 0
 416 101 428 115 438 129 c 0
 448 143 468 119 463 106 c 0xb0
447 507 m 2
 451 497 431 500 428 507 c 0
 410 529 373 575 363 585 c 0
 359 590 341 597 332 591 c 2
 197 507 l 2
 183 498 154 493 180 518 c 2
 321 657 l 2
 329 664 332 665 344 667 c 2
 384 667 l 2
 391 667 401 664 404 655 c 2
 447 507 l 2
EndSplineSet
EndChar

StartChar: udieresis
Encoding: 306 252 147
Width: 487
Flags: W
HStem: -12 21G<89.5 136 317.5 337.5> 407 20G<168 208> 410 20G<392 427 417.5 427> 505 106<385.5 415 385.5 415.5> 590 20G<222 251.5>
VStem: 184 107<543 572> 346 108<543.5 573>
LayerCount: 2
Fore
SplineSet
454 558 m 0xb6
 454 529 431 505 400 505 c 0
 371 505 346 529 346 558 c 0
 346 588 371 611 400 611 c 0
 430 611 454 588 454 558 c 0xb6
291 557 m 0
 291 529 266 505 237 505 c 0xb6
 207 505 184 529 184 557 c 0
 184 587 207 610 237 610 c 0xae
 266 610 291 587 291 557 c 0
463 106 m 0
 414 42 349 -12 326 -12 c 0
 309 -12 302 5 302 23 c 0
 302 67 312 120 324 169 c 0
 326 176 330 199 322 187 c 0
 248 74 158 -12 114 -12 c 0
 65 -12 85 92 89 114 c 2
 133 336 l 2
 135 344 135 347 125 339 c 0
 111 329 86 300 80 292 c 0
 66 275 50 296 58 307 c 0
 75 330 145 427 191 427 c 0xd6
 225 427 214 373 210 353 c 2
 162 111 l 2
 159 101 153 47 179 71 c 0
 230 118 271 173 310 227 c 0
 330 254 340 275 349 305 c 0
 360 339 365 376 371 411 c 0
 373 423 375 431 392 430 c 0
 407 429 408 430 427 430 c 0
 450 431 447 413 445 401 c 2
 382 85 l 2
 380 75 381 62 405 88 c 0
 416 101 428 115 438 129 c 0
 448 143 468 119 463 106 c 0
EndSplineSet
EndChar

StartChar: dagger
Encoding: 178 8224 148
Width: 487
Flags: MW
HStem: -243 21G<151.5 190.5> 680 20G<323.5 357>
LayerCount: 2
Fore
SplineSet
501 432 m 0
 501 417 496 400 493 385 c 0
 488 357 475 359 453 362 c 2
 332 380 l 2
 316 382 311 385 309 373 c 2
 231 -177 l 1
 225 -214 l 2
 220 -242 212 -243 169 -243 c 0
 134 -243 119 -242 119 -221 c 0
 119 -213 125 -192 127 -185 c 2
 265 372 l 2
 268 382 264 383 252 381 c 2
 120 362 l 2
 104 360 78 357 78 380 c 0
 78 393 82 410 84 420 c 0
 87 440 95 452 111 452 c 0
 114 452 119 451 128 450 c 2
 265 428 l 2
 275 426 277 429 278 440 c 2
 298 656 l 2
 301 692 308 700 339 700 c 0
 375 700 394 697 394 674 c 0
 394 669 392 660 389 650 c 2
 323 438 l 2
 320 427 324 428 333 429 c 2
 464 450 l 2
 478 452 501 453 501 432 c 0
EndSplineSet
EndChar

StartChar: degree
Encoding: 307 176 149
Width: 403
Flags: MW
HStem: 349 53<257 313 257 327.5> 610 53<257 313>
VStem: 131 52<477.5 535 477.5 549.5> 387 52<477.5 535>
LayerCount: 2
Fore
SplineSet
439 506 m 0
 439 419 370 349 285 349 c 0
 201 349 131 419 131 506 c 0
 131 593 201 663 285 663 c 0
 370 663 439 593 439 506 c 0
387 506 m 0
 387 564 341 610 285 610 c 0
 229 610 183 564 183 506 c 0
 183 449 229 402 285 402 c 0
 341 402 387 449 387 506 c 0
EndSplineSet
EndChar

StartChar: cent
Encoding: 162 162 150
Width: 276
Flags: MW
HStem: 407 20G<260.5 281>
VStem: 40 74<94 141 94 154.5>
LayerCount: 2
Fore
SplineSet
321 384 m 0
 321 363 310 347 291 347 c 0
 276 347 267 350 241 365 c 0
 229 371 226 369 224 360 c 2
 166 47 l 2
 164 38 167 35 177 37 c 0
 201 41 229 60 258 94 c 0
 262 99 268 101 271 97 c 2
 278 92 l 2
 283 88 284 82 280 78 c 0
 242 32 203 3 166 -10 c 0
 160 -12 155 -15 154 -22 c 2
 118 -221 l 2
 116 -230 113 -237 103 -235 c 2
 98 -234 l 2
 90 -232 87 -232 89 -220 c 2
 125 -26 l 2
 127 -18 123 -16 118 -15 c 0
 69 -8 40 34 40 96 c 0
 40 213 115 362 201 410 c 0
 206 413 209 424 210 429 c 2
 252 660 l 2
 253 668 258 671 265 670 c 2
 270 669 l 2
 276 668 281 665 280 657 c 2
 238 433 l 2
 236 426 238 424 247 426 c 0
 253 427 257 427 264 427 c 0
 298 427 321 413 321 384 c 0
195 353 m 2
 197 362 196 368 190 362 c 0
 184 357 179 349 173 340 c 0
 142 288 114 175 114 107 c 0
 114 81 120 63 131 51 c 0
 135 47 140 50 141 57 c 2
 195 353 l 2
EndSplineSet
EndChar

StartChar: sterling
Encoding: 163 163 151
Width: 742
Flags: W
HStem: -243 21G<70 90.5> -242 53<539 562> -133 38<200 303.5> -1 21G<624 649.5> 58 37<137.5 239 154 238 360 468> 596 104<658.5 749.5> 654 46<635.5 712>
VStem: 599 84<-53.5 -53 -118.5 -30.5> 625 58<-118.5 -105.5>
LayerCount: 2
Fore
SplineSet
778 635 m 0xbb
 778 613 761 596 738 596 c 0x7d
 712 596 701 616 688 634 c 0
 678 648 666 654 649 654 c 0
 622 654 593 634 569 597 c 0
 541 554 526 523 476 403 c 0
 434 303 407 241 373 169 c 0
 360 141 353 127 344 110 c 0
 336 95 352 94 360 95 c 0
 387 97 433 97 468 95 c 0
 494 93 497 92 495 82 c 2
 493 72 l 2
 490 57 487 59 468 58 c 0
 430 56 362 57 330 58 c 0
 316 58 312 50 308 43 c 0
 284 1 260 -45 230 -83 c 0
 220 -96 255 -95 269 -95 c 0
 338 -95 367 -104 444 -150 c 0
 492 -178 523 -189 555 -189 c 0
 595 -189 625 -160 625 -122 c 0x7a80
 625 -89 599 -66 599 -41 c 0
 599 -20 614 -1 634 -1 c 0
 665 -1 683 -33 683 -73 c 0
 683 -164 606 -242 518 -242 c 0x7d
 449 -242 396 -209 341 -175 c 0
 291 -143 257 -133 205 -133 c 0
 195 -133 190 -135 185 -142 c 0
 142 -204 103 -243 78 -243 c 0
 62 -243 48 -229 48 -214 c 0
 48 -175 104 -129 162 -112 c 1
 198 -66 223 -13 245 41 c 0
 250 54 253 58 238 58 c 0
 215 57 170 55 147 58 c 0
 128 58 118 56 121 70 c 2
 124 84 l 2
 125 91 130 95 154 95 c 0
 178 95 210 96 239 95 c 0
 252 95 268 99 272 110 c 0
 310 209 369 345 402 411 c 0
 448 504 490 573 535 624 c 0
 580 674 630 700 687 700 c 0
 737 700 778 673 778 635 c 0xbb
EndSplineSet
EndChar

StartChar: section
Encoding: 167 167 152
Width: 487
Flags: W
HStem: -243 53<33 151.5> -243 107<-10 85> 592 108<415 515.5> 648 52<357.5 469.5>
VStem: 111 58<283 383 283 392.5> 224 52<-29 27.5> 250 50<499.5 516> 358 57<66.5 129.5>
LayerCount: 2
Fore
SplineSet
544 648 m 0x9d
 544 620 527 592 504 592 c 0xad
 490 592 476 599 457 614 c 0
 422 641 407 648 380 648 c 0
 335 648 300 600 300 528 c 0
 300 471 318 410 356 322 c 0
 406 205 415 172 415 109 c 0
 415 -5 343 -115 227 -188 c 0
 171 -223 110 -243 60 -243 c 0
 6 -243 -39 -223 -39 -189 c 0
 -39 -170 -21 -136 1 -136 c 0x5b
 14 -136 27 -143 47 -156 c 0
 93 -188 100 -190 124 -190 c 0
 179 -190 224 -126 224 -41 c 0
 224 96 111 193 111 342 c 0
 111 443 171 557 261 629 c 0
 317 673 385 700 445 700 c 0
 494 700 544 680 544 648 c 0x9d
358 103 m 0
 358 156 346 200 309 287 c 0
 278 359 250 423 250 505 c 0xab
 250 527 247 552 236 536 c 0
 191 475 169 412 169 354 c 0
 169 212 276 115 276 -22 c 0
 276 -36 275 -50 273 -63 c 0
 270 -79 278 -90 284 -83 c 0
 334 -30 358 30 358 103 c 0
EndSplineSet
EndChar

StartChar: bullet
Encoding: 183 8226 153
Width: 323
Flags: MW
HStem: 234 21G<139 195.5> 423 20G<139 195.5>
LayerCount: 2
Fore
SplineSet
270 339 m 0
 270 281 224 234 167 234 c 0
 111 234 65 281 65 339 c 0
 65 396 111 443 167 443 c 0
 224 443 270 396 270 339 c 0
EndSplineSet
EndChar

StartChar: paragraph
Encoding: 182 182 154
Width: 456
Flags: MW
HStem: -245 21G<229 236 236 256 365 369 369 385> 589 54<214 284 214 335>
VStem: 221 50 352 49<-236 -230>
LayerCount: 2
Fore
SplineSet
468 613 m 2
 468 602 461 601 452 601 c 2
 414 601 l 2
 402 601 401 592 401 583 c 2
 401 -229 l 2
 401 -243 400 -245 385 -245 c 2
 369 -245 l 2
 361 -245 352 -243 352 -230 c 2
 353 573 l 2
 353 583 348 589 335 589 c 2
 284 589 l 2
 273 589 271 579 271 571 c 2
 272 -233 l 2
 272 -242 268 -245 256 -245 c 2
 236 -245 l 2
 222 -245 221 -240 221 -229 c 2
 221 233 l 2
 221 243 217 248 203 248 c 0
 97 250 39 283 6 346 c 0
 -10 376 -17 409 -17 444 c 0
 -17 569 71 642 214 643 c 0
 275 643 397 640 451 644 c 0
 463 645 468 638 468 630 c 2
 468 613 l 2
EndSplineSet
EndChar

StartChar: germandbls
Encoding: 251 223 155
Width: 446
Flags: W
HStem: -243 44<-121 -43.5> -243 93<-164.5 -77.5> -16 39<207.5 282> -16 78<207.5 211.5 187 243.5> 666 33<318 354.5>
VStem: 344 78<208.5 252.5> 401 74<556 606 541.5 608>
LayerCount: 2
Fore
SplineSet
475 570 m 0xaa
 475 513 438 455 382 426 c 0
 366 417 364 415 347 410 c 0
 338 407 331 400 338 397 c 0
 395 367 422 317 422 245 c 0
 422 172 391 97 338 42 c 0
 302 5 263 -16 224 -16 c 0
 191 -16 164 0 164 29 c 0
 164 47 178 62 196 62 c 0x9c
 227 62 240 23 260 23 c 0
 304 23 344 108 344 225 c 0xac
 344 280 327 329 299 358 c 0
 288 369 281 374 259 387 c 0
 256 388 253 393 254 397 c 2
 255 408 l 2
 256 413 260 416 265 416 c 0
 304 424 317 428 339 446 c 0
 376 476 401 529 401 583 c 0
 401 633 373 666 336 666 c 0
 300 666 258 635 238 590 c 0
 193 490 160 235 145 149 c 0
 125 32 96 -106 9 -195 c 0
 -22 -227 -58 -243 -97 -243 c 0
 -145 -243 -190 -219 -190 -184 c 0
 -190 -165 -174 -150 -155 -150 c 0x6a
 -138 -150 -125 -157 -104 -174 c 0
 -80 -194 -68 -199 -54 -199 c 0
 -33 -199 -5 -177 10 -143 c 0
 25 -109 36 -66 48 1 c 0
 69 126 97 367 147 509 c 0
 178 598 251 699 356 699 c 0
 423 699 475 642 475 570 c 0xaa
EndSplineSet
EndChar

StartChar: registered
Encoding: 308 174 156
Width: 796
Flags: MW
HStem: -16 42<311.5 488.5 311.5 499.5> 125 29<526 608.5> 541 34<363 398> 671 42<311.5 488.5>
VStem: 39 42<259 437.5 259 449> 250 83<217 312 379 383 383 477 477 504.5> 466 91<428 476.5> 720 42<259 437.5>
LayerCount: 2
Fore
SplineSet
762 348 m 0
 762 147 599 -16 400 -16 c 0
 200 -16 39 147 39 348 c 0
 39 550 200 713 400 713 c 0
 599 713 762 550 762 348 c 0
720 348 m 0
 720 527 577 671 400 671 c 0
 223 671 81 527 81 348 c 0
 81 170 223 26 400 26 c 0
 577 26 720 170 720 348 c 0
612 143 m 2
 612 143 614 137 611 131 c 0
 609 126 606 124 595 125 c 0
 569 127 547 126 526 125 c 0
 519 124 509 127 507 131 c 2
 363 330 l 1
 344 330 l 2
 336 330 333 322 333 312 c 2
 333 216 l 1
 333 179 l 2
 333 164 344 154 386 153 c 0
 392 153 393 148 393 144 c 2
 393 133 l 2
 393 127 388 125 381 125 c 0
 329 127 253 127 210 125 c 0
 204 125 198 128 198 132 c 2
 198 145 l 2
 198 151 203 153 210 154 c 0
 246 155 250 162 250 217 c 2
 250 477 l 2
 250 532 247 545 213 546 c 0
 208 546 204 552 204 558 c 2
 204 564 l 2
 204 572 212 576 228 575 c 0
 271 574 355 574 403 575 c 0
 494 576 557 528 557 456 c 0
 557 400 524 364 459 343 c 0
 453 341 452 336 457 330 c 2
 550 196 l 2
 572 164 583 155 606 154 c 0
 611 154 612 149 612 143 c 2
466 450 m 0
 466 503 426 541 370 541 c 0
 356 541 349 540 333 535 c 1
 333 383 l 2
 333 375 335 363 343 363 c 0
 423 363 466 396 466 450 c 0
EndSplineSet
EndChar

StartChar: copyright
Encoding: 309 169 157
Width: 773
Flags: MW
HStem: -12 42<346.5 521.5 346.5 532.5> 118 41<402.5 476> 550 34<401 470 382 481.5> 668 42<346.5 521.5>
VStem: 76 42<260.5 437.5 260.5 448.5> 200 94<295 414> 751 41<260.5 437.5>
LayerCount: 2
Fore
SplineSet
792 349 m 0
 792 150 631 -12 434 -12 c 0
 236 -12 76 150 76 349 c 0
 76 548 236 710 434 710 c 0
 631 710 792 548 792 349 c 0
751 349 m 0
 751 526 609 668 434 668 c 0
 259 668 118 526 118 349 c 0
 118 172 259 30 434 30 c 0
 609 30 751 172 751 349 c 0
628 217 m 0
 578 150 516 118 436 118 c 0
 303 118 200 216 200 346 c 0
 200 482 310 584 454 584 c 0
 486 584 497 581 547 565 c 0
 556 562 561 561 564 561 c 0
 572 561 576 563 585 584 c 1
 599 584 l 2
 604 584 612 582 613 573 c 2
 622 456 l 2
 623 443 622 432 613 432 c 2
 604 432 l 2
 594 432 591 441 587 452 c 0
 561 518 515 550 448 550 c 0
 354 550 294 479 294 360 c 0
 294 230 352 159 453 159 c 0
 513 159 560 181 599 233 c 0
 602 237 609 242 616 238 c 2
 623 233 l 2
 628 231 632 222 628 217 c 0
EndSplineSet
EndChar

StartChar: trademark
Encoding: 310 8482 158
Width: 996
Flags: W
HStem: 272 26<114 129 114 287> 629 20G 660 27<437 440>
VStem: 161 90<360 361 361 628> 486 38<360 361 361 558> 838 91<360 361 361 570 570 571> 838 147<279 570>
LayerCount: 2
Fore
SplineSet
971 272 m 0xfa
 928 272 843 274 800 272 c 0
 781 271 779 272 779 286 c 0
 779 294 781 296 783 297 c 0
 785 298 786 298 789 298 c 0
 791 298 793 298 796 298 c 0
 833 302 838 315 838 360 c 2
 838 570 l 2
 838 572 838 576 837 578 c 0
 836 579 835 580 833 579 c 0
 832 578 831 577 830 574 c 2
 697 281 l 2
 693 273 690 272 685 272 c 2
 676 272 l 2
 672 272 671 272 666 282 c 0
 633 361 559 529 534 568 c 0
 532 573 530 570 528 568 c 0
 526 566 524 564 524 558 c 2
 524 361 l 2
 524 305 531 297 567 297 c 0
 574 297 579 297 582 297 c 0
 586 297 588 297 589 297 c 0
 590 296 590 296 590 294 c 0
 591 292 591 290 591 286 c 0
 591 277 589 274 586 273 c 0
 582 271 573 272 569 272 c 0
 518 274 502 275 446 272 c 0
 436 271 432 272 431 273 c 0
 430 274 430 275 430 277 c 0
 429 280 429 283 429 287 c 0
 429 296 433 297 441 298 c 0
 480 299 486 311 486 360 c 2
 486 595 l 2
 486 649 481 658 441 660 c 0
 433 660 431 661 430 663 c 0
 430 664 429 665 429 667 c 0
 429 670 429 673 429 676 c 0
 429 687 432 687 440 687 c 0
 470 686 538 684 569 686 c 0
 577 686 579 684 582 678 c 2
 702 425 l 2
 707 413 719 422 722 429 c 2
 840 687 l 1
 871 686 931 687 966 687 c 0
 978 687 984 687 984 673 c 0
 984 661 984 661 971 660 c 0
 935 658 929 646 929 596 c 2
 929 361 l 2xfc
 929 310 933 302 972 298 c 0
 975 298 978 298 980 298 c 0
 981 298 982 297 983 297 c 0
 984 296 985 293 985 284 c 0
 985 274 983 272 971 272 c 0xfa
402 585 m 0
 402 582 402 581 401 580 c 0
 400 578 398 577 391 577 c 2
 377 577 l 1
 369 632 347 649 285 649 c 0
 278 649 273 649 269 649 c 0
 264 649 261 648 258 647 c 0
 253 645 251 639 251 628 c 2
 251 361 l 2
 251 311 257 302 294 298 c 0
 296 298 299 298 300 298 c 0
 301 298 302 298 303 298 c 0
 304 297 305 295 305 284 c 0
 305 281 305 278 304 276 c 0
 304 275 304 274 303 273 c 0
 301 272 297 272 287 272 c 0
 239 274 162 273 129 272 c 0
 112 272 110 273 110 286 c 0
 110 292 110 295 111 297 c 0
 112 297 112 297 114 298 c 0
 115 298 117 298 120 298 c 0
 157 303 161 312 161 360 c 2
 161 629 l 2
 161 645 158 649 143 649 c 0
 139 649 134 649 127 649 c 0
 67 649 46 632 35 577 c 1
 20 577 l 2
 10 577 10 579 12 599 c 2
 20 672 l 2
 22 685 25 687 40 687 c 0
 117 685 282 685 369 687 c 0
 387 688 390 686 393 667 c 2
 401 595 l 2
 401 591 401 587 402 585 c 0
EndSplineSet
EndChar

StartChar: acute
Encoding: 194 180 159
Width: 339
Flags: W
LayerCount: 2
Fore
SplineSet
335 638 m 0
 299 582 244 524 220 501 c 0
 212 491 195 495 199 508 c 0
 210 540 232 604 239 646 c 0
 243 655 253 657 265 658 c 2
 322 661 l 2
 334 664 342 649 335 638 c 0
EndSplineSet
EndChar

StartChar: dieresis
Encoding: 200 168 160
Width: 339
Flags: W
HStem: 484 106<312 342> 569 20G<149 178.5>
VStem: 110 108<522 551> 273 108<522.5 552>
LayerCount: 2
Fore
SplineSet
381 537 m 0xb0
 381 508 357 484 327 484 c 0
 297 484 273 508 273 537 c 0
 273 567 297 590 327 590 c 0
 357 590 381 567 381 537 c 0xb0
218 536 m 0
 218 508 193 484 164 484 c 0xb0
 134 484 110 508 110 536 c 0
 110 566 134 589 164 589 c 0x70
 193 589 218 566 218 536 c 0
EndSplineSet
EndChar

StartChar: AE
Encoding: 225 198 161
Width: 965
Flags: W
HStem: -5 21G<-14 -9 -8 178> -4 33 252 38<282.5 462 323 447> 309 37<586 778 603 738> 608 41
LayerCount: 2
Fore
SplineSet
973 627 m 0x78
 971 586 954 535 949 511 c 0
 945 491 939 494 930 494 c 0
 919 494 918 498 918 504 c 2
 918 515 l 2
 918 583 891 608 818 608 c 2
 676 608 l 2
 661 608 634 611 631 594 c 2
 585 363 l 2
 584 356 589 346 603 346 c 2
 778 346 l 2
 821 346 850 364 867 403 c 0
 873 417 866 415 882 415 c 0
 893 415 902 417 899 403 c 0
 889 359 872 276 867 237 c 0
 864 218 863 223 842 223 c 0
 833 223 834 228 834 241 c 0
 834 293 817 309 738 309 c 2
 591 309 l 2
 581 309 574 306 571 290 c 2
 532 97 l 2
 531 92 530 86 530 79 c 0
 530 47 546 36 618 36 c 0
 705 36 758 29 832 79 c 0
 859 97 873 110 892 137 c 0
 899 148 901 150 918 152 c 0
 929 152 933 153 928 134 c 0
 919 103 897 41 885 17 c 0
 881 4 871 -4 856 -4 c 0
 703 -2 529 -2 352 -4 c 0
 345 -4 339 1 339 8 c 2
 339 21 l 2
 339 33 350 31 361 32 c 0
 414 34 431 50 444 116 c 2
 467 232 l 2
 470 245 462 252 447 252 c 2
 289 252 l 2
 276 252 269 253 261 243 c 2
 162 117 l 2
 137 85 132 74 132 60 c 0
 132 41 139 32 188 29 c 0x78
 202 28 199 25 200 19 c 1
 200 20 201 14 200 9 c 0
 198 -2 191 -5 178 -5 c 0
 133 -3 -10 -5 -8 -5 c 1xb8
 -20 -5 -24 -3 -22 7 c 2
 -19 19 l 2
 -17 27 -11 29 -6 29 c 0
 20 33 41 42 61 60 c 0
 79 76 97 94 113 113 c 0
 237 269 359 427 483 583 c 0
 507 614 460 611 432 613 c 0
 425 614 416 618 420 627 c 2
 424 637 l 2
 427 648 439 649 446 649 c 0
 590 644 918 650 959 648 c 0
 972 647 976 643 973 627 c 0x78
533 563 m 2
 536 579 533 587 528 585 c 2
 310 304 l 2
 304 297 310 290 323 290 c 2
 462 290 l 2
 475 290 480 296 482 308 c 2
 533 563 l 2
EndSplineSet
EndChar

StartChar: Oslash
Encoding: 233 216 162
Width: 806
Flags: MW
HStem: -19 37<392.5 501.5 392.5 527.5> 626 37<466.5 526.5>
VStem: 110 100<247 315.5 238.5 388.5> 712 100<283 402.5 254 415.5>
LayerCount: 2
Fore
SplineSet
812 358 m 0
 812 150 636 -19 419 -19 c 0
 353 -19 300 -4 250 29 c 0
 247 31 232 38 222 27 c 2
 159 -46 l 2
 156 -49 148 -54 141 -49 c 2
 129 -42 l 2
 124 -38 124 -31 132 -22 c 2
 196 52 l 2
 201 59 201 68 194 76 c 0
 137 137 110 206 110 288 c 0
 110 489 290 663 497 663 c 0
 558 663 610 650 660 620 c 0
 669 615 674 610 685 623 c 2
 729 675 l 2
 736 684 737 684 747 678 c 2
 758 671 l 2
 767 665 763 658 759 653 c 2
 717 604 l 2
 711 597 704 591 716 580 c 0
 779 523 812 447 812 358 c 0
630 559 m 0
 639 568 636 577 629 583 c 0
 591 614 552 626 501 626 c 0
 432 626 365 598 319 550 c 0
 253 481 210 367 210 264 c 0
 210 213 220 167 238 130 c 0
 244 116 256 123 261 130 c 0
 354 244 539 459 630 559 c 0
712 387 m 0
 712 444 701 491 677 530 c 0
 675 534 667 548 653 531 c 2
 283 99 l 2
 278 93 269 81 282 69 c 0
 319 35 365 18 420 18 c 0
 583 18 712 179 712 387 c 0
EndSplineSet
EndChar

StartChar: plusminus
Encoding: 311 177 163
Width: 679
Flags: MW
HStem: -32 67<84 92> 383 66<82 86 86 292 292 293 383 388 388 591> 678 20G<320 359 359 364.5>
VStem: 307 66<156 370 370 372 463 662 662 671>
LayerCount: 2
Fore
SplineSet
615 401 m 2
 615 383 610 383 591 383 c 2
 388 383 l 2
 375 383 373 385 373 372 c 2
 373 156 l 2
 373 136 372 136 352 136 c 0
 342 133 330 134 321 136 c 0
 304 136 307 142 307 156 c 2
 307 370 l 2
 307 381 304 383 293 383 c 2
 86 383 l 2
 68 383 65 384 65 402 c 2
 65 428 l 2
 65 445 62 449 82 449 c 2
 292 449 l 2
 305 449 307 451 307 463 c 2
 307 662 l 2
 307 680 304 698 320 698 c 2
 359 698 l 2
 370 698 373 697 373 676 c 2
 373 460 l 2
 372 454 375 448 383 449 c 2
 595 449 l 2
 614 449 615 444 615 432 c 2
 615 401 l 2
615 -10 m 2
 615 -31 602 -31 582 -31 c 0
 468 -32 204 -33 92 -32 c 0
 65 -32 65 -27 65 -8 c 2
 65 15 l 2
 65 29 66 36 84 35 c 0
 118 32 420 31 596 35 c 0
 612 35 615 32 615 16 c 2
 615 -10 l 2
EndSplineSet
EndChar

StartChar: yen
Encoding: 165 165 164
Width: 509
Flags: MW
HStem: -4 35<79 91 87 91 87 319> 339 46<182.5 211 182.5 227> 492 45 658 32<296.5 322 322 322.5>
LayerCount: 2
Fore
SplineSet
638 676 m 2
 628 659 l 1
 560 649 562 633 496 543 c 0
 491 536 506 537 513 537 c 0
 534 537 561 536 584 537 c 0
 594 537 589 523 588 517 c 2
 582 501 l 2
 579 492 572 491 566 492 c 0
 557 493 495 493 471 493 c 0
 462 493 454 487 451 482 c 0
 437 461 410 421 392 398 c 0
 381 383 399 384 405 384 c 0
 440 384 502 381 524 384 c 0
 534 384 541 378 539 369 c 2
 534 350 l 2
 531 341 522 336 517 337 c 0
 506 339 424 340 368 339 c 0
 347 339 340 330 334 315 c 2
 283 141 l 2
 273 105 267 80 267 65 c 0
 267 41 276 35 334 31 c 0
 339 31 346 28 344 23 c 2
 338 5 l 2
 336 -1 330 -4 319 -4 c 0
 258 -1 144 -2 81 -4 c 0
 77 -4 71 0 72 7 c 2
 76 22 l 2
 77 29 83 31 91 31 c 0
 118 33 123 32 132 36 c 0
 159 49 162 51 187 135 c 2
 244 328 l 2
 242 335 237 339 227 339 c 0
 166 340 82 340 34 339 c 0
 21 339 13 341 17 353 c 2
 24 376 l 2
 27 386 38 386 43 386 c 0
 89 381 161 385 204 385 c 0
 218 385 224 392 222 398 c 2
 200 480 l 2
 196 495 186 493 177 493 c 0
 156 493 100 492 70 492 c 0
 63 491 55 496 59 505 c 2
 59 505 63 518 66 528 c 0
 69 539 81 536 95 536 c 2
 171 537 l 2
 182 537 182 546 176 564 c 0
 155 628 145 646 117 655 c 0
 106 659 100 658 102 668 c 2
 104 680 l 2
 105 688 105 691 119 690 c 0
 155 689 244 687 322 690 c 0
 331 690 337 687 335 681 c 2
 331 666 l 2
 329 660 325 658 320 658 c 0
 273 658 258 646 258 618 c 0
 258 605 261 586 270 559 c 0
 274 548 278 538 292 537 c 0
 327 535 386 535 425 537 c 0
 431 537 438 539 443 546 c 0
 459 570 493 619 493 635 c 0
 493 647 486 655 440 658 c 0
 433 658 429 660 431 667 c 2
 434 681 l 2
 435 688 444 689 451 689 c 0
 527 691 535 684 625 690 c 0
 634 691 641 684 638 676 c 2
397 482 m 0
 402 490 400 493 383 493 c 2
 308 493 l 2
 294 493 290 493 294 479 c 2
 319 382 l 2
 321 373 328 381 333 387 c 0
 348 406 380 454 397 482 c 0
EndSplineSet
EndChar

StartChar: mu
Encoding: 312 181 165
Width: 509
Flags: MW
HStem: -225 21G<-9.5 21> -17 61<364 434.5>
VStem: 315 87<36 93>
LayerCount: 2
Fore
SplineSet
517 103 m 0
 499 47 483 30 454 8 c 0
 434 -7 407 -17 385 -17 c 0
 343 -17 315 13 315 59 c 0
 315 72 313 79 308 72 c 0
 292 49 278 36 255 19 c 0
 221 -5 196 -17 166 -17 c 0
 133 -17 111 -7 94 19 c 0
 92 22 87 25 84 14 c 0
 71 -30 69 -50 62 -135 c 0
 57 -193 39 -225 3 -225 c 0
 -22 -225 -39 -205 -39 -179 c 0
 -39 -161 -35 -153 0 -84 c 0
 20 -44 38 5 55 68 c 0
 69 119 50 50 160 433 c 0
 164 447 175 448 186 448 c 1
 178 448 223 448 223 448 c 2
 239 448 249 444 245 430 c 2
 176 185 l 2
 169 160 156 123 156 97 c 0
 156 60 172 42 199 42 c 0
 229 42 263 62 292 101 c 0
 331 153 334 161 361 254 c 2
 413 436 l 2
 417 450 421 448 441 448 c 2
 475 448 l 2
 486 448 503 451 497 431 c 2
 418 151 l 2
 411 126 402 106 402 80 c 0
 402 54 411 44 424 44 c 0
 445 44 458 56 484 108 c 0
 489 117 488 117 498 116 c 2
 511 115 l 2
 518 114 519 110 517 103 c 0
EndSplineSet
EndChar

StartChar: ordfeminine
Encoding: 227 170 166
Width: 265
Flags: MW
HStem: 399 21G<130.5 151.5 252 267.5> 642 20G<312 326 326 329>
VStem: 100 51<465.5 497>
LayerCount: 2
Fore
SplineSet
332 652 m 2
 294 479 l 2
 292 471 290 462 289 453 c 0
 289 447 291 447 298 452 c 0
 306 458 317 469 326 478 c 0
 329 482 331 474 331 473 c 2
 331 453 l 2
 328 450 326 448 323 445 c 0
 296 417 275 399 260 399 c 0
 244 399 236 415 236 432 c 0
 236 439 237 448 238 459 c 0
 239 464 241 473 234 466 c 0
 190 422 160 399 143 399 c 0
 118 399 100 433 100 466 c 0
 100 528 151 600 219 637 c 0
 247 652 285 662 312 662 c 2
 326 662 l 2
 332 662 333 657 332 652 c 2
270 608 m 1
 271 607 l 2
 271 611 272 620 267 619 c 0
 243 617 226 611 210 601 c 0
 176 578 151 529 151 478 c 0
 151 453 160 441 166 441 c 0
 168 441 174 444 188 455 c 0
 201 466 218 483 244 504 c 2
 250 509 l 1
 270 608 l 1
EndSplineSet
EndChar

StartChar: ordmasculine
Encoding: 235 186 167
Width: 265
Flags: MW
HStem: 399 33<157 221.5> 629 33<217.5 285>
VStem: 112 53<477.5 525.5> 279 51<533.5 581>
LayerCount: 2
Fore
SplineSet
330 568 m 0
 330 499 285 439 211 408 c 0
 197 402 184 399 175 399 c 0
 139 399 112 450 112 499 c 0
 112 552 145 603 200 637 c 0
 223 652 250 662 267 662 c 0
 303 662 330 617 330 568 c 0
279 561 m 0
 279 601 258 629 234 629 c 0
 201 629 165 569 165 497 c 0
 165 458 184 432 203 432 c 0
 240 432 279 490 279 561 c 0
EndSplineSet
EndChar

StartChar: ae
Encoding: 241 230 168
Width: 583
Flags: W
HStem: -14 48<349 434> -14 63 -13 21G<103.5 124> 392 32 405 20G<491 534.5>
VStem: 37 74<103.5 173.5 103.5 186> 531 66<334 361>
LayerCount: 2
Fore
SplineSet
597 350 m 0x8e
 597 303 559 260 496 233 c 0
 453 214 407 197 371 188 c 0
 368 187 360 185 359 178 c 0
 354 153 353 144 353 123 c 0
 353 70 383 34 421 34 c 0
 447 34 471 47 527 82 c 0
 532 85 538 82 541 79 c 2
 549 72 l 2
 553 67 551 60 546 56 c 0
 476 9 416 -14 375 -14 c 0x96
 323 -14 283 36 277 98 c 0
 277 105 274 112 267 106 c 0
 230 71 140 -13 108 -13 c 0
 99 -13 89 -9 79 -1 c 0
 51 21 37 59 37 104 c 0
 37 268 208 424 387 424 c 0x36
 397 424 402 416 401 408 c 2
 396 387 l 2
 393 376 404 381 408 385 c 0
 442 413 472 425 510 425 c 0
 559 425 597 394 597 350 c 0x8e
531 348 m 0
 531 374 514 392 491 392 c 0
 440 392 396 337 369 228 c 0
 367 220 379 220 384 222 c 0
 419 232 459 249 488 270 c 0
 514 288 531 320 531 348 c 0
318 341 m 2
 320 352 320 367 314 366 c 0
 270 360 250 353 219 335 c 0
 153 295 111 217 111 130 c 0
 111 77 127 49 142 49 c 0x56
 163 49 199 76 281 159 c 1
 318 341 l 2
EndSplineSet
EndChar

StartChar: oslash
Encoding: 249 248 169
Width: 403
Flags: MW
HStem: -14 48<130 214.5> 375 50<207 294>
VStem: 46 76<144 182.5> 305 76<239 258>
LayerCount: 2
Fore
SplineSet
401 413 m 2
 405 409 401 402 397 398 c 2
 371 370 l 2
 366 365 363 356 366 350 c 0
 376 326 381 300 381 270 c 0
 381 208 362 150 327 104 c 0
 297 65 245 23 196 2 c 0
 174 -8 154 -14 140 -14 c 0
 120 -14 102 -3 86 18 c 0
 82 23 77 25 74 21 c 2
 47 -11 l 2
 42 -17 37 -14 35 -11 c 2
 28 -2 l 2
 25 2 26 7 28 10 c 2
 60 48 l 2
 64 53 62 61 61 64 c 0
 51 90 46 120 46 150 c 0
 46 215 75 282 124 334 c 0
 170 383 243 425 284 425 c 0
 304 425 325 411 343 390 c 0
 347 385 351 389 357 396 c 2
 379 422 l 2
 383 427 386 429 390 424 c 2
 401 413 l 2
291 328 m 0
 277 358 257 375 235 375 c 0
 179 375 122 271 122 153 c 0
 122 135 127 126 134 133 c 0
 171 179 247 269 285 312 c 0
 290 317 293 324 291 328 c 0
305 256 m 0
 305 260 305 294 294 280 c 0
 256 231 180 143 140 98 c 0
 133 91 132 85 136 77 c 0
 149 49 166 34 184 34 c 0
 245 34 305 137 305 256 c 0
EndSplineSet
EndChar

StartChar: questiondown
Encoding: 191 191 170
Width: 403
Flags: MW
HStem: -243 86<155 186.5 155 223> 308 117<297 317>
VStem: 50 46<-103 -62.5 -103 21>
LayerCount: 2
Fore
SplineSet
355 372 m 0
 355 336 333 308 301 308 c 0
 275 308 258 329 258 359 c 2
 258 366 l 2
 261 399 283 425 311 425 c 0
 338 425 355 401 355 372 c 0
295 236 m 0
 288 160 271 102 249 71 c 0
 237 55 219 42 181 21 c 0
 118 -15 96 -43 96 -82 c 0
 96 -124 131 -157 179 -157 c 0
 194 -157 215 -153 238 -146 c 0
 248 -143 255 -141 261 -141 c 0
 281 -141 291 -162 291 -185 c 0
 291 -221 248 -243 198 -243 c 0
 112 -243 50 -176 50 -80 c 0
 50 122 189 79 241 175 c 0
 253 197 256 208 264 241 c 0
 267 255 269 253 280 253 c 2
 289 253 l 2
 295 253 296 248 295 236 c 0
EndSplineSet
EndChar

StartChar: exclamdown
Encoding: 161 161 171
Width: 297
Flags: MW
HStem: 308 117<209.5 230>
LayerCount: 2
Fore
SplineSet
267 372 m 0
 267 336 245 308 215 308 c 0
 180 308 172 337 172 366 c 0
 175 398 196 425 223 425 c 0
 250 425 267 402 267 372 c 0
210 240 m 2
 152 -202 l 2
 147 -239 139 -249 109 -245 c 2
 92 -243 l 2
 69 -240 57 -240 57 -220 c 0
 57 -215 57 -209 60 -201 c 2
 179 241 l 2
 182 254 185 254 194 254 c 2
 201 254 l 2
 212 254 210 245 210 240 c 2
EndSplineSet
EndChar

StartChar: logicalnot
Encoding: 313 172 172
Width: 679
Flags: MW
HStem: 182 21G<545 609 545 545> 422 65<69 545 69 609>
VStem: 545 64<182 422 422 422>
LayerCount: 2
Fore
SplineSet
609 182 m 1
 545 182 l 1
 545 422 l 1
 69 422 l 1
 69 487 l 1
 609 487 l 1
 609 182 l 1
EndSplineSet
EndChar

StartChar: guillemotleft
Encoding: 171 171 173
Width: 446
Flags: MW
HStem: 35 21G<204 225 204 204> 401 20G<290 317 317 319.5>
LayerCount: 2
Fore
SplineSet
450 388 m 2
 345 226 l 1
 372 71 l 2
 373 64 377 59 367 59 c 2
 342 59 l 1
 271 210 l 2
 264 226 266 231 279 245 c 2
 421 398 l 1
 447 398 l 2
 453 398 454 394 450 388 c 2
316 411 m 2
 177 226 l 1
 235 43 l 2
 237 37 235 35 225 35 c 2
 204 35 l 1
 107 206 l 2
 95 227 97 231 113 247 c 2
 290 421 l 1
 317 421 l 2
 322 421 321 417 316 411 c 2
EndSplineSet
EndChar

StartChar: guillemotright
Encoding: 187 187 174
Width: 446
Flags: MW
HStem: 36 21G<227.5 230 230 257> 402 20G<322 343 343 343>
LayerCount: 2
Fore
SplineSet
97 69 m 2
 202 231 l 1
 175 386 l 2
 173 393 169 398 180 398 c 2
 205 398 l 1
 275 247 l 2
 283 230 281 226 268 212 c 2
 126 59 l 1
 100 59 l 2
 94 59 93 63 97 69 c 2
230 46 m 2
 370 231 l 1
 311 414 l 2
 309 420 311 422 322 422 c 2
 343 422 l 1
 440 251 l 2
 452 230 450 226 434 210 c 2
 257 36 l 1
 230 36 l 2
 225 36 226 40 230 46 c 2
EndSplineSet
EndChar

StartChar: ellipsis
Encoding: 188 8230 175
Width: 1017
Flags: MW
HStem: -14 110<162 185 497 520.5 830.5 855.5>
VStem: 125 98<30.5 50.5> 460 99<30 50.5> 795 99<35 37 36.5 37>
LayerCount: 2
Fore
SplineSet
894 47 m 0
 894 13 871 -14 840 -14 c 0
 813 -14 795 6 795 35 c 0
 795 36 795 36 795 37 c 0
 796 68 812 96 849 96 c 0
 876 96 894 76 894 47 c 0
559 47 m 0
 559 13 536 -14 505 -14 c 0
 477 -14 460 7 460 35 c 0
 460 66 480 96 514 96 c 0
 541 96 559 76 559 47 c 0
223 47 m 0
 223 14 201 -14 169 -14 c 0
 141 -14 125 7 125 35 c 0
 125 66 145 96 179 96 c 0
 206 96 223 75 223 47 c 0
EndSplineSet
EndChar

StartChar: Agrave
Encoding: 315 192 177
Width: 693
Flags: W
HStem: -4 21G<206 215 371.5 379 379 658> -3 35<-35.5 -32> 275 53<336 469> 856 20G<473 529 529 534>
VStem: 488 91
LayerCount: 2
Fore
SplineSet
599 723 m 0x78
 602 710 581 711 575 718 c 0
 548 754 495 820 462 854 c 0
 450 866 467 876 473 876 c 2
 529 876 l 2
 539 876 548 875 555 862 c 0
 566 840 589 758 599 723 c 0x78
676 12 m 0
 675 1 670 -5 658 -4 c 0
 590 -1 450 -3 379 -4 c 0xb8
 364 -4 365 32 383 32 c 0x78
 469 32 488 46 488 107 c 2
 488 262 l 2
 489 267 475 275 469 275 c 0
 415 278 343 277 295 275 c 0
 285 274 274 269 264 258 c 2
 149 104 l 2
 137 88 134 75 134 65 c 0
 134 35 159 35 185 33 c 0
 194 32 203 33 210 33 c 0
 228 33 224 -4 206 -4 c 0xb8
 137 -3 40 -1 -32 -3 c 0
 -48 -3 -47 32 -24 32 c 0
 25 40 47 53 98 120 c 2
 510 656 l 2
 517 666 579 670 579 653 c 2
 584 83 l 2
 584 43 606 36 629 33 c 0
 637 32 647 34 656 34 c 0
 659 34 661 34 663 34 c 0
 673 33 678 23 676 12 c 0
490 343 m 2
 490 538 l 2
 490 561 483 552 480 549 c 0
 435 492 370 395 331 347 c 0
 328 343 325 328 336 328 c 0
 373 330 438 329 470 328 c 0
 476 328 490 331 490 343 c 2
EndSplineSet
EndChar

StartChar: Atilde
Encoding: 316 195 178
Width: 693
Flags: W
HStem: -4 21G<206 215 371.5 379 379 658> -3 35<-35.5 -32> 275 53<336 469> 713 63<588.5 659.5> 781 62<450.5 521> 828 20G<714 717>
VStem: 488 91
LayerCount: 2
Fore
SplineSet
676 12 m 0x7a
 675 1 670 -5 658 -4 c 0
 590 -1 450 -3 379 -4 c 0xb6
 364 -4 365 32 383 32 c 0x7a
 469 32 488 46 488 107 c 2
 488 262 l 2
 489 267 475 275 469 275 c 0
 415 278 343 277 295 275 c 0
 285 274 274 269 264 258 c 2
 149 104 l 2
 137 88 134 75 134 65 c 0
 134 35 159 35 185 33 c 0
 194 32 203 33 210 33 c 0
 228 33 224 -4 206 -4 c 0xba
 137 -3 40 -1 -32 -3 c 0
 -48 -3 -47 32 -24 32 c 0
 25 40 47 53 98 120 c 2
 510 656 l 2
 517 666 579 670 579 653 c 2
 584 83 l 2
 584 43 606 36 629 33 c 0
 637 32 647 34 656 34 c 0
 659 34 661 34 663 34 c 0
 673 33 678 23 676 12 c 0x7a
490 343 m 2
 490 538 l 2
 490 561 483 552 480 549 c 0
 435 492 370 395 331 347 c 0
 328 343 325 328 336 328 c 0
 373 330 438 329 470 328 c 0
 476 328 490 331 490 343 c 2
728 842 m 0
 729 836 728 832 727 829 c 0
 712 758 660 713 602 713 c 0
 575 713 545 726 513 752 c 0
 482 778 473 781 460 781 c 0
 441 781 429 770 413 734 c 0
 413 730 410 726 407 716 c 0
 401 708 379 703 380 716 c 0
 402 802 445 843 506 843 c 0x7a
 536 843 557 834 596 803 c 0
 622 782 637 776 649 776 c 0
 670 776 684 788 703 842 c 0
 704 846 711 848 717 848 c 0
 724 849 729 846 728 842 c 0
EndSplineSet
EndChar

StartChar: Otilde
Encoding: 317 213 179
Width: 819
Flags: W
HStem: -18 39<383 383> 623 39<476 476> 720 63<552.5 623.5> 788 62<414.5 485> 835 20G<678 681>
VStem: 85 100<201.5 349.5 187.5 389.5> 676 100<283.5 443 253.5 458>
LayerCount: 2
Fore
SplineSet
776 357 m 0xee
 776 150 600 -18 383 -18 c 0
 209 -18 85 115 85 288 c 0
 85 491 264 662 475 662 c 0
 649 662 776 529 776 357 c 0xee
676 388 m 0
 676 528 598 624 476 623 c 0
 286 622 185 437 185 262 c 0
 185 113 258 22 384 21 c 0
 546 19 676 179 676 388 c 0
692 849 m 0
 693 843 692 839 691 836 c 0
 676 765 624 720 566 720 c 0
 539 720 509 733 477 759 c 0
 446 785 437 788 424 788 c 0
 405 788 393 777 377 741 c 0
 377 737 374 733 371 723 c 0
 365 715 343 710 344 723 c 0
 366 809 409 850 470 850 c 0xf6
 500 850 521 841 560 810 c 0
 586 789 601 783 613 783 c 0
 634 783 648 795 667 849 c 0
 668 853 675 855 681 855 c 0
 688 856 693 853 692 849 c 0
EndSplineSet
EndChar

StartChar: OE
Encoding: 234 338 180
Width: 1049
Flags: W
HStem: -6 37<337.5 416> -2 21G<504 526 526 926> 308 37<695 817 690 856> 609 38<749.5 754 754 897> 631 20G<491.5 545.5>
VStem: 93 98<197.5 310.5 193.5 365.5>
LayerCount: 2
Fore
SplineSet
1052 630 m 0xb4
 1049 579 1031 511 1026 502 c 0
 1022 492 1003 496 1000 502 c 2
 1000 515 l 2
 1000 584 972 609 897 609 c 2
 754 609 l 2
 745 609 724 605 722 591 c 0
 711 531 688 411 675 356 c 0
 673 350 686 343 695 345 c 2
 856 345 l 2
 903 345 934 364 949 410 c 1
 956 416 964 415 971 413 c 0
 977 411 977 404 975 397 c 0
 964 347 953 266 942 228 c 0
 938 220 914 216 912 230 c 0
 912 233 913 236 913 239 c 0
 913 292 895 308 817 308 c 2
 690 308 l 2
 679 305 665 306 663 296 c 0
 653 236 634 144 623 97 c 0
 610 42 660 36 710 36 c 2
 761 36 l 2
 824 36 867 48 911 78 c 0
 940 98 957 113 977 144 c 0
 981 148 988 149 993 149 c 0
 998 150 1006 147 1005 139 c 0
 1000 106 966 42 954 13 c 0
 950 3 945 -2 926 -2 c 2
 526 -2 l 2x74
 482 -2 438 -6 394 -6 c 0
 213 -6 93 109 93 286 c 0
 93 445 202 589 356 631 c 0
 406 645 459 651 524 651 c 0xac
 567 651 611 648 654 647 c 0
 745 644 973 651 1039 647 c 0
 1048 646 1055 643 1052 630 c 0xb4
621 547 m 0
 621 590 586 615 504 615 c 0
 415 615 342 580 282 509 c 0
 224 442 191 354 191 267 c 0
 191 120 272 31 403 31 c 0xb4
 508 31 529 74 549 171 c 2
 617 508 l 2
 620 521 621 536 621 547 c 0
EndSplineSet
EndChar

StartChar: oe
Encoding: 250 339 181
Width: 581
Flags: W
HStem: -15 47 -14 21G<356.5 400.5> 379 45<197 285> 392 32<474 495>
VStem: 33 75<120 159 159 168 120 187.5> 286 60 528 64<325 358.5>
LayerCount: 2
Fore
SplineSet
592 346 m 0xae
 592 304 559 266 503 238 c 0
 457 215 406 197 363 186 c 0
 358 185 350 181 349 171 c 0
 347 155 346 145 346 129 c 0
 346 63 372 32 418 32 c 0x9e
 465 32 498 57 533 84 c 0
 544 96 559 66 548 55 c 0
 485 6 424 -14 377 -14 c 0x6e
 336 -14 305 12 286 58 c 0
 284 64 277 70 271 64 c 0
 251 43 238 34 217 20 c 0
 187 1 150 -15 127 -15 c 0
 74 -15 33 58 33 138 c 0
 33 237 82 327 171 388 c 0
 205 411 237 424 265 424 c 0
 305 424 331 398 347 347 c 0
 350 336 355 341 360 348 c 0
 397 398 445 424 503 424 c 0
 556 424 592 394 592 346 c 0xae
528 345 m 0
 528 372 509 392 481 392 c 0
 425 392 384 343 358 226 c 0
 356 217 368 219 376 222 c 0
 477 250 528 294 528 345 c 0
286 265 m 0
 286 334 258 379 227 379 c 0xae
 167 379 108 288 108 168 c 2
 108 159 l 2
 108 81 136 36 178 36 c 0
 230 36 286 144 286 265 c 0
EndSplineSet
EndChar

StartChar: endash
Encoding: 177 8211 182
Width: 591
Flags: MW
HStem: 195 59<53 534 59 530>
LayerCount: 2
Fore
SplineSet
548 241 m 2
 546 204 l 2
 545 197 539 195 530 195 c 0
 318 197 229 197 55 195 c 0
 51 195 45 202 45 208 c 2
 47 243 l 2
 47 248 54 253 59 254 c 0
 234 257 301 254 534 254 c 0
 542 254 548 246 548 241 c 2
EndSplineSet
EndChar

StartChar: emdash
Encoding: 208 8212 183
Width: 814
Flags: MW
HStem: 202 58<103 726 99 727>
LayerCount: 2
Fore
SplineSet
742 251 m 0
 746 236 741 230 740 213 c 0
 738 209 733 201 726 202 c 2
 99 202 l 2
 92 201 82 205 83 215 c 0
 83 226 85 231 86 241 c 0
 86 247 86 260 103 260 c 2
 727 260 l 2
 734 258 740 257 742 251 c 0
EndSplineSet
EndChar

StartChar: quotedblleft
Encoding: 170 8220 184
Width: 509
Flags: W
HStem: 393 21G<247.5 277.5 444 474>
VStem: 204 77<446.5 544> 204 104<446.5 450.5 429.5 504> 401 76<446.5 544> 401 104<446.5 450.5 429.5 504>
LayerCount: 2
Fore
SplineSet
562 630 m 0xc8
 498 589 477 561 477 527 c 0xb0
 477 513 480 505 490 488 c 0
 500 472 505 458 505 443 c 0
 505 416 487 393 461 393 c 0
 427 393 401 426 401 467 c 0
 401 541 458 612 548 657 c 0
 560 663 574 635 562 630 c 0xc8
366 631 m 0
 302 589 281 561 281 527 c 0xd0
 281 513 283 505 293 488 c 0
 303 472 308 458 308 443 c 0
 308 416 290 393 265 393 c 0
 230 393 204 426 204 467 c 0
 204 541 263 612 352 657 c 0
 362 660 377 640 366 631 c 0
EndSplineSet
EndChar

StartChar: quotedblright
Encoding: 186 8221 185
Width: 509
Flags: W
HStem: 637 20G<254.5 284.5 451 481>
VStem: 224 102<600 604 545.5 621> 420 101<600 604 545.5 621>
LayerCount: 2
Fore
SplineSet
521 583 m 0
 521 508 466 438 377 393 c 0
 366 387 348 415 363 420 c 0
 427 461 448 490 448 524 c 0xe0
 448 538 445 545 435 561 c 0
 425 578 420 593 420 607 c 0
 420 635 438 657 464 657 c 0
 498 657 521 625 521 583 c 0
326 583 m 0
 326 508 269 438 180 393 c 0
 165 387 158 414 166 419 c 0
 230 461 251 490 251 524 c 0xe0
 251 538 249 546 239 561 c 0
 228 578 224 593 224 607 c 0
 224 635 242 657 267 657 c 0
 302 657 326 625 326 583 c 0
EndSplineSet
EndChar

StartChar: quoteleft
Encoding: 96 8216 186
Width: 297
Flags: W
HStem: 393 21G<231.5 261>
VStem: 191 73<446.5 544> 191 100<446.5 450.5 429.5 504.5>
LayerCount: 2
Fore
SplineSet
346 630 m 0xa0
 285 589 264 561 264 527 c 0xc0
 264 513 266 505 276 488 c 0
 287 471 291 458 291 443 c 0
 291 416 274 393 248 393 c 0
 215 393 191 426 191 467 c 0
 191 542 247 612 334 657 c 0
 344 660 360 635 346 630 c 0xa0
EndSplineSet
EndChar

StartChar: quoteright
Encoding: 39 8217 187
Width: 273
Flags: W
HStem: 624 20G<219.5 248>
VStem: 189 101<587 593 534.5 608.5>
LayerCount: 2
Fore
SplineSet
290 572 m 0
 290 497 233 427 146 381 c 0
 132 374 123 400 133 407 c 0
 195 449 216 477 216 511 c 0xc0
 216 526 214 533 204 549 c 0
 193 566 189 580 189 594 c 0
 189 623 207 644 232 644 c 0
 264 644 290 614 290 572 c 0
EndSplineSet
EndChar

StartChar: divide
Encoding: 318 247 188
Width: 680
Flags: MW
HStem: 89 83<327.5 350.5> 302 63<78.5 592 88 590> 498 83<328 350 328 350>
VStem: 297 83<119 142>
LayerCount: 2
Fore
SplineSet
380 541 m 0
 380 518 361 498 339 498 c 0
 315 498 296 519 297 543 c 0
 298 565 317 581 339 581 c 0
 361 581 380 564 380 541 c 0
612 344 m 2
 610 318 l 2
 609 304 609 302 590 302 c 2
 88 302 l 2
 69 302 67 302 68 314 c 2
 70 352 l 2
 71 363 71 365 88 365 c 2
 592 365 l 2
 611 365 613 360 612 344 c 2
380 130 m 0
 380 108 362 89 339 89 c 0
 316 89 297 108 297 130 c 0
 297 154 316 172 339 172 c 0
 362 172 380 154 380 130 c 0
EndSplineSet
EndChar

StartChar: ydieresis
Encoding: 319 255 189
Width: 437
Flags: W
HStem: -276 37<-29.5 -11> 360 68<136.5 137.5> 409 20G<368 394> 486 101<193 221 348 376.5>
VStem: 163 59 163 95 310 103<523 551> 335 91<374.5 388.5 357.5 395>
LayerCount: 2
Fore
SplineSet
413 537 m 0xd6
 413 509 391 486 362 486 c 0
 334 486 310 509 310 537 c 0
 310 565 334 587 362 587 c 0
 391 587 413 565 413 537 c 0xd6
258 536 m 0
 258 509 235 486 207 486 c 0
 179 486 156 509 156 536 c 0
 156 564 179 587 207 587 c 0
 235 587 258 564 258 536 c 0
426 372 m 0xb9
 426 343 417 319 391 271 c 0
 370 231 337 184 306 140 c 0
 275 95 247 53 233 22 c 0
 201 -51 175 -119 143 -192 c 0
 132 -216 124 -241 174 -241 c 2
 187 -241 l 2
 202 -239 195 -279 176 -278 c 0
 119 -275 28 -274 -22 -276 c 0
 -37 -276 -31 -239 -11 -239 c 0
 39 -238 48 -224 61 -197 c 0
 90 -140 117 -81 132 -39 c 0
 144 -4 160 31 163 69 c 0
 172 191 154 360 121 360 c 0
 106 360 84 333 75 320 c 0
 69 312 63 304 57 295 c 0
 48 282 26 303 37 320 c 0
 83 389 123 428 150 428 c 0xd9
 218 428 227 174 222 83 c 0
 221 69 226 75 232 85 c 0
 270 149 355 291 348 344 c 0
 346 359 335 367 335 382 c 0
 335 408 356 429 380 429 c 0
 408 429 426 405 426 372 c 0xb9
EndSplineSet
EndChar

StartChar: Ydieresis
Encoding: 320 376 190
Width: 653
Flags: W
HStem: -3 40<186 186 186 463> 626 20G<116 334 334 337 589 753> 702 107<539 569> 788 20G<376 405.5>
VStem: 337 108<741 770> 500 108<741.5 771>
LayerCount: 2
Fore
SplineSet
608 756 m 0xec
 608 727 584 702 554 702 c 0
 524 702 500 727 500 756 c 0
 500 786 524 809 554 809 c 0
 584 809 608 786 608 756 c 0xec
445 755 m 0
 445 727 420 702 391 702 c 0xec
 361 702 337 727 337 755 c 0
 337 785 361 808 391 808 c 0xdc
 420 808 445 785 445 755 c 0
764 633 m 0
 761 622 755 618 754 618 c 0
 713 602 701 596 660 549 c 2
 410 261 l 1
 380 114 l 2
 377 97 370 75 377 59 c 0
 383 45 400 35 442 36 c 0
 450 36 465 39 472 34 c 0
 481 28 475 -3 463 -3 c 0
 394 0 249 1 166 -3 c 0
 153 -1 157 35 171 36 c 2
 186 37 l 2
 200 38 213 39 224 40 c 0
 234 42 243 45 250 49 c 0
 264 59 275 76 283 116 c 2
 314 264 l 1
 191 545 l 2
 167 599 153 611 123 614 c 0
 111 615 101 614 104 632 c 0
 105 637 110 647 116 646 c 0
 167 644 275 642 334 646 c 0
 340 646 345 640 342 629 c 0
 340 621 337 614 330 615 c 0
 275 610 266 609 293 547 c 2
 392 320 l 2
 393 316 403 317 408 323 c 2
 586 529 l 2
 616 564 623 574 623 586 c 0
 623 603 608 613 565 615 c 0
 553 617 557 649 569 647 c 0
 576 648 583 648 589 646 c 0
 639 645 707 645 753 646 c 0
 761 647 766 639 764 633 c 0
EndSplineSet
EndChar

StartChar: fraction
Encoding: 164 8260 191
Width: 191
Flags: MW
HStem: 669 20G<477 480>
LayerCount: 2
Fore
SplineSet
496 672 m 2
 -129 -28 l 2
 -142 -38 -157 -41 -168 -40 c 0
 -178 -38 -190 -31 -184 -22 c 2
 442 679 l 2
 456 690 462 688 477 689 c 0
 483 689 488 688 492 687 c 0
 498 684 500 678 496 672 c 2
EndSplineSet
EndChar

StartChar: Euro
Encoding: 321 8364 192
Width: 463
Flags: MW
HStem: -18 36<256 307> 224 39<15.5 85 27 85 27 86 182 367> 337 39<38.5 101 50 92 195 390> 576 37<327.5 396.5 309.5 414>
VStem: 86 96<224 224>
LayerCount: 2
Fore
SplineSet
373 263 m 2
 384 263 387 258 387 252 c 0
 387 241 379 224 367 224 c 2
 182 224 l 1
 183 118 216 18 296 18 c 0
 349 18 413 50 448 140 c 0
 452 151 459 151 466 151 c 0
 474 151 480 149 477 137 c 0
 466 97 454 32 448 -2 c 1
 441 1 419 2 414 2 c 0
 385 2 340 -18 274 -18 c 0
 173 -18 96 71 86 224 c 1
 21 224 l 2
 10 224 7 229 7 235 c 0
 7 246 15 263 27 263 c 2
 85 263 l 1
 85 288 88 313 92 337 c 1
 44 337 l 2
 33 337 30 342 30 348 c 0
 30 359 38 376 50 376 c 2
 101 376 l 1
 136 500 246 613 373 613 c 0
 420 613 484 600 527 572 c 0
 531 569 536 561 532 545 c 0
 524 514 516 469 509 429 c 0
 508 422 501 423 495 423 c 0
 487 423 479 424 479 439 c 0
 479 531 455 576 373 576 c 0
 282 576 221 499 195 376 c 1
 396 376 l 2
 407 376 410 371 410 365 c 0
 410 354 402 337 390 337 c 2
 188 337 l 1
 185 313 183 289 182 263 c 1
 373 263 l 2
EndSplineSet
EndChar

StartChar: guilsinglleft
Encoding: 172 8249 193
Width: 730
Flags: W
HStem: -275 45<-119.5 -44.5> -16 21G<566 608> 368 48<222 308 359 360 482 493.5> 705 45 733 20G<607 651>
LayerCount: 2
Fore
SplineSet
456 352 m 2xf0
 413 110 l 2
 391 -8 367 -162 262 -239 c 0
 232 -261 199 -275 162 -275 c 0
 119 -275 78 -246 84 -216 c 0
 90 -183 110 -183 128 -185 c 0
 143 -186 156 -202 166 -212 c 0
 177 -222 187 -230 202 -230 c 0
 230 -230 262 -207 277 -176 c 0
 298 -133 313 -33 323 17 c 0
 345 132 359 226 378 338 c 0
 380 350 373 368 359 368 c 0
 328 369 359 368 318 369 c 0
 207 370 222 368 222 368 c 2
 211 367 196 362 193 345 c 2
 151 109 l 2
 130 -9 106 -163 2 -239 c 0
 -28 -261 -62 -275 -98 -275 c 0
 -141 -275 -183 -246 -177 -216 c 0
 -171 -184 -150 -184 -132 -185 c 0
 -117 -186 -105 -202 -95 -212 c 0
 -84 -222 -73 -230 -58 -230 c 0
 -31 -230 0 -207 16 -176 c 0
 25 -159 32 -133 39 -100 c 0
 46 -67 54 -27 62 17 c 0
 85 132 101 238 120 350 c 0
 121 358 119 368 110 367 c 2
 68 370 l 2
 54 367 57 395 70 401 c 1
 108 404 122 408 130 413 c 1
 137 449 149 511 163 551 c 0
 184 610 203 646 229 678 c 0
 267 724 330 750 377 750 c 0xf0
 474 750 477 638 408 645 c 0
 374 649 362 701 325 701 c 0
 308 701 280 689 267 669 c 0
 251 644 237 596 223 513 c 2
 209 432 l 2
 206 423 222 417 232 416 c 0
 254 415 292 416 308 416 c 0
 325 416 341 416 341 416 c 2
 379 416 394 413 399 446 c 0
 405 482 411 513 425 553 c 0
 445 612 463 648 490 681 c 0
 526 727 583 753 631 753 c 0xe8
 671 753 715 724 714 691 c 0
 713 655 690 645 662 652 c 0
 630 660 623 705 585 705 c 0
 568 704 542 693 528 672 c 0
 512 646 498 598 484 515 c 2
 471 439 l 2
 469 428 475 417 482 416 c 0
 504 415 541 416 563 416 c 0
 591 417 607 418 620 419 c 0
 633 421 643 424 658 427 c 0
 664 429 685 432 685 421 c 2
 624 59 l 2
 623 54 620 40 629 40 c 0
 635 40 658 52 696 100 c 0
 706 113 726 96 721 79 c 1
 669 12 627 -16 589 -16 c 0
 543 -16 545 32 550 60 c 0
 568 165 582 238 598 337 c 0
 602 365 589 367 583 367 c 0
 547 368 509 368 478 368 c 0
 461 367 461 362 456 352 c 2xf0
EndSplineSet
EndChar

StartChar: guilsinglright
Encoding: 173 8250 194
Width: 737
Flags: W
HStem: -275 45<-119.5 -44.5> -275 90 -16 21G<566.5 613> 368 48<328 351 351 367.5 328 348> 701 49<316.5 425.5>
LayerCount: 2
Fore
SplineSet
748 747 m 1xb8
 631 71 l 2
 630 65 628 47 637 47 c 0
 649 47 662 53 701 102 c 0
 711 114 737 94 726 80 c 0
 673 12 632 -16 594 -16 c 0
 539 -16 554 54 560 89 c 2
 607 343 l 2
 609 350 610 370 598 370 c 0
 536 372 496 369 466 369 c 0
 458 368 451 361 449 349 c 2
 408 109 l 2
 388 -9 362 -163 258 -239 c 0
 228 -261 195 -275 158 -275 c 0
 115 -275 74 -246 79 -216 c 0
 85 -184 106 -184 124 -185 c 0x78
 140 -186 151 -202 162 -212 c 0
 172 -222 183 -230 198 -230 c 0xb8
 226 -230 257 -207 272 -176 c 0
 281 -159 288 -133 295 -100 c 0
 302 -67 310 -27 318 17 c 0
 341 133 357 237 376 350 c 0
 377 356 375 366 369 368 c 0
 338 369 368 368 328 368 c 0
 217 370 222 367 222 367 c 2
 211 367 196 362 193 345 c 2
 151 109 l 2
 130 -9 106 -163 2 -239 c 0
 -28 -261 -62 -275 -98 -275 c 0
 -141 -275 -183 -246 -177 -216 c 0
 -171 -184 -150 -184 -132 -185 c 0x78
 -117 -186 -105 -202 -95 -212 c 0
 -84 -222 -73 -230 -58 -230 c 0
 -31 -230 0 -207 16 -176 c 0
 25 -159 32 -133 39 -100 c 0
 46 -67 53 -27 62 17 c 0
 84 132 101 238 120 350 c 0
 121 358 119 368 110 367 c 2
 68 370 l 2
 54 367 57 395 70 401 c 1
 108 404 122 408 130 413 c 1
 137 449 149 511 163 551 c 0
 184 610 203 646 229 678 c 0
 267 724 330 750 377 750 c 0
 474 750 477 638 408 645 c 0
 374 649 362 701 325 701 c 0
 308 701 280 689 267 669 c 0
 251 644 237 596 223 513 c 2
 209 432 l 2
 206 423 222 416 232 416 c 0
 254 415 301 416 318 416 c 0
 335 416 351 416 351 416 c 2
 384 416 390 428 391 437 c 0
 398 472 409 518 420 551 c 0
 440 610 458 646 485 679 c 0
 528 730 618 778 684 737 c 0
 690 734 696 733 701 736 c 0
 710 740 717 745 725 750 c 0
 733 760 746 760 748 747 c 1xb8
666 649 m 1
 632 708 563 731 523 669 c 0
 507 644 493 596 479 513 c 2
 466 438 l 2
 463 430 466 415 472 415 c 0
 506 415 563 414 602 415 c 0
 610 415 622 417 625 434 c 2
 666 649 l 1
EndSplineSet
EndChar

StartChar: fi
Encoding: 174 64257 195
Width: 504
Flags: MW
HStem: -275 45<-91.5 -16.5> -16 21G<333 375> 367 49 701 49<344.5 453.5>
LayerCount: 2
Fore
SplineSet
488 79 m 1
 436 12 394 -16 356 -16 c 0
 310 -16 312 32 317 60 c 0
 335 165 351 257 368 356 c 0
 368 365 357 370 351 370 c 0
 315 371 272 370 240 369 c 0
 227 369 223 359 221 345 c 2
 179 109 l 2
 158 -9 134 -163 30 -239 c 0
 0 -261 -34 -275 -70 -275 c 0
 -113 -275 -155 -246 -149 -216 c 0
 -143 -184 -122 -184 -104 -185 c 0
 -89 -186 -77 -202 -67 -212 c 0
 -56 -222 -45 -230 -30 -230 c 0
 -3 -230 28 -207 44 -176 c 0
 53 -159 60 -133 67 -100 c 0
 74 -67 81 -27 90 17 c 0
 112 132 129 238 148 350 c 0
 149 358 147 368 138 367 c 2
 96 370 l 2
 82 367 85 395 98 401 c 1
 136 404 150 408 158 413 c 1
 165 449 177 511 191 551 c 0
 212 610 230 646 257 678 c 0
 294 724 358 750 405 750 c 0
 502 750 505 638 436 645 c 0
 402 649 390 701 353 701 c 0
 336 701 308 689 295 669 c 0
 279 644 265 596 251 513 c 2
 237 432 l 2
 235 425 242 416 249 416 c 0
 271 415 308 416 330 416 c 0
 358 417 374 415 387 417 c 0
 400 418 410 421 426 425 c 0
 432 426 452 432 452 421 c 2
 391 59 l 2
 390 54 387 40 396 40 c 0
 402 40 425 52 463 100 c 0
 473 113 493 96 488 79 c 1
EndSplineSet
EndChar

StartChar: fl
Encoding: 175 64258 196
Width: 487
Flags: MW
HStem: -275 45<-113.5 -38> -16 21G<316.5 363> 369 46<222 231>
LayerCount: 2
Fore
SplineSet
498 747 m 1
 379 59 l 2
 378 53 378 47 387 47 c 0
 399 47 412 53 451 102 c 0
 461 114 487 94 476 80 c 0
 423 12 382 -16 344 -16 c 0
 289 -16 304 54 310 89 c 2
 357 343 l 2
 359 350 360 370 348 370 c 0
 286 372 246 369 216 369 c 0
 208 368 201 361 199 349 c 2
 158 109 l 2
 138 -9 112 -163 8 -239 c 0
 -22 -261 -55 -275 -92 -275 c 0
 -135 -275 -176 -246 -171 -216 c 0
 -165 -184 -144 -184 -126 -185 c 0
 -110 -186 -99 -202 -88 -212 c 0
 -78 -222 -67 -230 -52 -230 c 0
 -24 -230 7 -207 22 -176 c 0
 31 -159 38 -133 45 -100 c 0
 52 -67 59 -27 68 17 c 0
 90 133 107 237 126 350 c 0
 127 356 125 366 119 368 c 2
 70 370 l 2
 54 371 55 397 75 399 c 0
 103 403 117 407 137 414 c 1
 143 450 156 511 170 551 c 0
 190 610 208 646 235 679 c 0
 278 730 368 778 434 737 c 0
 440 734 446 733 451 736 c 0
 460 740 467 745 475 750 c 0
 483 760 496 760 498 747 c 1
416 649 m 1
 382 708 313 731 273 669 c 0
 257 644 243 596 229 513 c 2
 216 438 l 2
 213 430 216 415 222 415 c 0
 256 415 313 414 352 415 c 0
 360 415 372 417 375 434 c 2
 416 649 l 1
EndSplineSet
EndChar

StartChar: daggerdbl
Encoding: 179 8225 197
Width: 508
Flags: W
HStem: -275 45<-119.5 -44.5> 368 51 706 44 734 20G<609 653>
LayerCount: 2
Fore
SplineSet
222 367 m 2xe0
 211 367 196 362 193 345 c 2
 151 109 l 2
 130 -9 106 -163 2 -239 c 0
 -28 -261 -62 -275 -98 -275 c 0
 -141 -275 -183 -246 -177 -216 c 0
 -171 -184 -150 -184 -132 -185 c 0
 -117 -186 -105 -202 -95 -212 c 0
 -84 -222 -73 -230 -58 -230 c 0
 -31 -230 0 -207 16 -176 c 0
 25 -159 32 -133 39 -100 c 0
 46 -67 53 -27 62 17 c 0
 84 132 101 238 120 350 c 0
 121 358 119 368 110 367 c 2
 68 370 l 2
 54 367 57 395 70 401 c 1
 108 404 122 408 130 413 c 1
 137 449 149 511 163 551 c 0
 184 610 203 646 229 678 c 0
 267 724 330 750 377 750 c 0xe0
 474 750 477 638 408 645 c 0
 374 649 362 701 325 701 c 0
 308 701 280 689 267 669 c 0
 251 644 237 596 223 513 c 2
 209 432 l 2
 206 423 222 416 232 416 c 0
 254 415 298 416 315 416 c 0
 332 416 348 416 348 416 c 2
 386 416 401 412 406 446 c 0
 412 482 418 513 432 553 c 0
 452 612 470 648 497 681 c 0
 533 727 585 754 633 754 c 0xd0
 673 754 712 728 711 695 c 0
 710 669 685 662 664 665 c 0
 631 668 625 707 587 706 c 0
 570 706 549 692 535 672 c 0
 519 645 505 598 491 515 c 2
 478 439 l 2
 476 428 477 420 484 419 c 2
 540 419 l 2
 557 419 543 367 529 367 c 1
 528 363 485 367 485 367 c 2
 474 367 468 361 463 352 c 2
 420 110 l 2
 399 -8 374 -162 269 -239 c 0
 239 -261 206 -275 169 -275 c 0
 126 -275 85 -246 91 -216 c 0
 97 -183 117 -184 135 -185 c 0
 150 -187 163 -202 173 -212 c 0
 184 -222 194 -230 209 -230 c 0
 237 -230 268 -207 284 -176 c 0
 305 -134 320 -33 330 17 c 0
 352 132 366 226 385 338 c 0
 387 350 380 368 366 368 c 0
 335 369 365 368 325 368 c 0
 214 370 222 367 222 367 c 2xe0
EndSplineSet
EndChar

StartChar: periodcentered
Encoding: 180 183 198
Width: 297
Flags: MW
HStem: 284 107<153 182>
VStem: 115 105<323.5 352.5>
LayerCount: 2
Fore
SplineSet
220 338 m 0
 220 309 197 284 167 284 c 0
 139 284 115 309 115 338 c 0
 115 367 139 391 167 391 c 0
 197 391 220 367 220 338 c 0
EndSplineSet
EndChar

StartChar: quotesinglbase
Encoding: 184 8218 199
Width: 297
Flags: W
HStem: 76 20G<160 190>
VStem: 128 101<36.5 40.5 -26.5 58.5>
LayerCount: 2
Fore
SplineSet
229 19 m 0
 229 -72 160 -130 94 -169 c 0
 85 -175 74 -168 72 -160 c 0
 71 -157 72 -150 75 -148 c 0
 138 -105 156 -78 156 -42 c 0xc0
 156 -29 154 -20 144 -3 c 0
 133 14 128 29 128 44 c 0
 128 73 147 96 173 96 c 0
 207 96 229 62 229 19 c 0
EndSplineSet
EndChar

StartChar: quotedblbase
Encoding: 185 8222 200
Width: 509
Flags: W
HStem: 76 20G<134 164.5 336.5 367>
VStem: 102 103<37 40.5 -19 58.5> 304 103<37 40.5 -19 58.5>
LayerCount: 2
Fore
SplineSet
407 19 m 0
 407 -57 353 -129 260 -177 c 0
 256 -180 244 -175 244 -170 c 0
 241 -163 244 -152 248 -149 c 0
 312 -107 333 -78 333 -42 c 0xe0
 333 -29 331 -20 320 -3 c 0
 309 14 304 30 304 44 c 0
 304 73 323 96 350 96 c 0
 384 96 407 62 407 19 c 0
205 19 m 0
 205 -57 154 -128 61 -176 c 1
 62 -176 l 2
 57 -178 47 -177 44 -170 c 0
 39 -161 44 -152 47 -149 c 0
 111 -106 131 -78 131 -42 c 0xe0
 131 -29 129 -20 118 -3 c 0
 107 14 102 30 102 44 c 0
 102 73 121 96 147 96 c 0
 182 96 205 62 205 19 c 0
EndSplineSet
EndChar

StartChar: perthousand
Encoding: 189 8240 201
Width: 1017
Flags: MW
HStem: -22 21G<110 113 113 148> 17 33<483.5 522.5 483.5 538 803 842.5> 282 33<116 155.5 116 171> 343 33<541.5 581 861.5 900.5> 608 33<174.5 214>
LayerCount: 2
Fore
SplineSet
988 195 m 0
 969 97 897 17 819 17 c 0
 737 17 695 100 714 198 c 0
 733 296 807 376 885 376 c 0
 965 376 1007 293 988 195 c 0
669 195 m 0
 650 97 577 17 499 17 c 0
 418 17 376 100 395 198 c 0
 414 296 488 376 565 376 c 0
 646 376 688 293 669 195 c 0
578 628 m 2
 148 -22 l 1
 113 -22 l 2
 107 -22 96 -12 105 -4 c 0
 516 619 459 534 524 630 c 0
 530 639 533 643 545 643 c 2
 571 643 l 2
 583 645 579 631 578 628 c 2
302 460 m 0
 283 362 210 282 132 282 c 0
 50 282 8 366 27 464 c 0
 46 562 120 641 198 641 c 0
 279 641 321 558 302 460 c 0
915 198 m 0
 936 306 919 343 882 343 c 0
 841 343 808 301 787 195 c 0
 766 87 784 50 822 50 c 0
 863 50 895 92 915 198 c 0
596 198 m 0
 617 306 600 343 562 343 c 0
 521 343 488 301 468 195 c 0
 447 87 465 50 502 50 c 0
 543 50 575 92 596 198 c 0
228 464 m 0
 249 572 233 608 195 608 c 0
 154 608 121 566 101 460 c 0
 80 352 97 315 135 315 c 0
 176 315 208 358 228 464 c 0
EndSplineSet
EndChar

StartChar: Acircumflex
Encoding: 322 194 202
Width: 693
Flags: W
HStem: -4 21G<206 215 371.5 379 379 658> -3 35<-35.5 -32> 275 53<336 469> 838 20G<567 607 607 610.5>
VStem: 488 91
LayerCount: 2
Fore
SplineSet
676 12 m 0x78
 675 1 670 -5 658 -4 c 0
 590 -1 450 -3 379 -4 c 0xb8
 364 -4 365 32 383 32 c 0x78
 469 32 488 46 488 107 c 2
 488 262 l 2
 489 267 475 275 469 275 c 0
 415 278 343 277 295 275 c 0
 285 274 274 269 264 258 c 2
 149 104 l 2
 137 88 134 75 134 65 c 0
 134 35 159 35 185 33 c 0
 194 32 203 33 210 33 c 0
 228 33 224 -4 206 -4 c 0xb8
 137 -3 40 -1 -32 -3 c 0
 -48 -3 -47 32 -24 32 c 0
 25 40 47 53 98 120 c 2
 510 656 l 2
 517 666 579 670 579 653 c 2
 584 83 l 2
 584 43 606 36 629 33 c 0
 637 32 647 34 656 34 c 0
 659 34 661 34 663 34 c 0
 673 33 678 23 676 12 c 0x78
490 343 m 2
 490 538 l 2
 490 561 483 552 480 549 c 0
 435 492 370 395 331 347 c 0
 328 343 325 328 336 328 c 0
 373 330 438 329 470 328 c 0
 476 328 490 331 490 343 c 2
670 698 m 2
 674 688 654 691 651 698 c 0
 633 719 596 765 587 775 c 0
 582 780 565 787 555 781 c 2
 420 698 l 2
 406 689 377 683 403 709 c 2
 544 848 l 2
 552 855 555 856 567 858 c 2
 607 858 l 2
 614 858 625 854 627 846 c 2
 670 698 l 2
EndSplineSet
EndChar

StartChar: Ecircumflex
Encoding: 323 202 203
Width: 662
Flags: MW
HStem: -2 43 308 40<270 359 289 351 351 359 359 403> 608 38<341.5 344 344 496> 838 20G<457 497 497 500.5>
LayerCount: 2
Fore
SplineSet
658 618 m 2
 632 501 l 1
 633 487 602 489 604 502 c 0
 605 512 605 514 605 519 c 0
 605 582 576 608 496 608 c 2
 344 608 l 2
 339 608 323 605 321 597 c 2
 272 361 l 2
 271 355 277 348 289 348 c 2
 289 348 333 346 359 348 c 0
 384 350 439 348 439 348 c 2
 496 348 520 362 543 413 c 0
 547 425 579 422 572 407 c 0
 561 365 548 274 535 229 c 0
 534 216 500 215 504 230 c 0
 505 236 505 240 505 245 c 0
 505 293 486 308 403 308 c 2
 403 308 383 310 351 308 c 0
 320 307 275 308 275 308 c 2
 265 308 260 305 258 296 c 2
 216 99 l 2
 202 35 261 38 309 38 c 2
 379 38 l 2
 445 38 485 50 523 78 c 0
 554 100 566 109 593 145 c 0
 598 152 602 153 609 153 c 0
 613 153 623 150 621 141 c 0
 607 107 586 42 575 9 c 1
 566 -1 561 -2 533 -2 c 2
 13 -3 l 2
 -6 -5 2 39 25 40 c 0
 36 41 47 40 55 41 c 0
 99 44 110 55 123 116 c 2
 211 531 l 2
 216 553 217 565 217 572 c 0
 217 598 196 611 155 611 c 2
 129 611 l 2
 111 609 120 650 136 646 c 0
 261 645 506 645 638 646 c 0
 661 646 663 641 658 618 c 2
560 698 m 2
 564 688 544 691 541 698 c 0
 523 719 486 765 477 775 c 0
 472 780 455 787 445 781 c 2
 310 698 l 2
 296 689 267 683 293 709 c 2
 434 848 l 2
 442 855 445 856 457 858 c 2
 497 858 l 2
 504 858 514 855 517 846 c 2
 560 698 l 2
EndSplineSet
EndChar

StartChar: Aacute
Encoding: 324 193 204
Width: 693
Flags: W
HStem: -4 21G<206 215 371.5 379 379 658> -3 35<-35.5 -32> 275 53<336 469>
VStem: 488 91
LayerCount: 2
Fore
SplineSet
671 857 m 0x70
 634 801 579 743 556 720 c 0
 547 710 531 714 535 727 c 0
 545 759 568 823 575 865 c 0
 579 874 589 876 601 877 c 2
 658 880 l 2
 670 882 678 868 671 857 c 0x70
676 12 m 0
 675 1 670 -5 658 -4 c 0
 590 -1 450 -3 379 -4 c 0xb0
 364 -4 365 32 383 32 c 0x70
 469 32 488 46 488 107 c 2
 488 262 l 2
 489 267 475 275 469 275 c 0
 415 278 343 277 295 275 c 0
 285 274 274 269 264 258 c 2
 149 104 l 2
 137 88 134 75 134 65 c 0
 134 35 159 35 185 33 c 0
 194 32 203 33 210 33 c 0
 228 33 224 -4 206 -4 c 0xb0
 137 -3 40 -1 -32 -3 c 0
 -48 -3 -47 32 -24 32 c 0
 25 40 47 53 98 120 c 2
 510 656 l 2
 517 666 579 670 579 653 c 2
 584 83 l 2
 584 43 606 36 629 33 c 0
 637 32 647 34 656 34 c 0
 659 34 661 34 663 34 c 0
 673 33 678 23 676 12 c 0
490 343 m 2
 490 538 l 2
 490 561 483 552 480 549 c 0
 435 492 370 395 331 347 c 0
 328 343 325 328 336 328 c 0
 373 330 438 329 470 328 c 0
 476 328 490 331 490 343 c 2
EndSplineSet
EndChar

StartChar: Edieresis
Encoding: 325 203 205
Width: 662
Flags: W
HStem: -2 43 308 40<270 359 289 351 351 359 359 403> 608 38<341.5 344 344 496> 702 107<510 540> 788 20G<347 376.5>
LayerCount: 2
Fore
SplineSet
579 756 m 0xf0
 579 727 555 702 525 702 c 0
 495 702 471 727 471 756 c 0
 471 786 495 809 525 809 c 0
 555 809 579 786 579 756 c 0xf0
416 755 m 0
 416 727 391 702 362 702 c 0xf0
 332 702 308 727 308 755 c 0
 308 785 332 808 362 808 c 0xe8
 391 808 416 785 416 755 c 0
658 618 m 2
 632 501 l 1
 633 487 602 489 604 502 c 0
 605 512 605 514 605 519 c 0
 605 582 576 608 496 608 c 2
 344 608 l 2
 339 608 323 605 321 597 c 2
 272 361 l 2
 271 355 277 348 289 348 c 2
 289 348 333 346 359 348 c 0
 384 350 439 348 439 348 c 2
 496 348 520 362 543 413 c 0
 547 425 579 422 572 407 c 0
 561 365 548 274 535 229 c 0
 534 216 500 215 504 230 c 0
 505 236 505 240 505 245 c 0
 505 293 486 308 403 308 c 2
 403 308 383 310 351 308 c 0
 320 307 275 308 275 308 c 2
 265 308 260 305 258 296 c 2
 216 99 l 2
 202 35 261 38 309 38 c 2
 379 38 l 2
 445 38 485 50 523 78 c 0
 554 100 566 109 593 145 c 0
 598 152 602 153 609 153 c 0
 613 153 623 150 621 141 c 0
 607 107 586 42 575 9 c 1
 566 -1 561 -2 533 -2 c 2
 13 -3 l 2
 -6 -5 2 39 25 40 c 0
 36 41 47 40 55 41 c 0
 99 44 110 55 123 116 c 2
 211 531 l 2
 216 553 217 565 217 572 c 0
 217 598 196 611 155 611 c 2
 129 611 l 2
 111 609 120 650 136 646 c 0
 261 645 506 645 638 646 c 0
 661 646 663 641 658 618 c 2
EndSplineSet
EndChar

StartChar: Egrave
Encoding: 326 200 206
Width: 662
Flags: MW
HStem: -2 43 308 40<270 359 289 351 351 359 359 403> 608 38<341.5 344 344 496> 856 20G<344 400 400 405>
LayerCount: 2
Fore
SplineSet
470 723 m 0
 473 710 452 711 447 718 c 0
 420 754 367 820 333 854 c 0
 321 866 338 876 344 876 c 2
 400 876 l 2
 410 876 419 875 426 862 c 0
 437 840 460 758 470 723 c 0
658 618 m 2
 632 501 l 1
 633 487 602 489 604 502 c 0
 605 512 605 514 605 519 c 0
 605 582 576 608 496 608 c 2
 344 608 l 2
 339 608 323 605 321 597 c 2
 272 361 l 2
 271 355 277 348 289 348 c 2
 289 348 333 346 359 348 c 0
 384 350 439 348 439 348 c 2
 496 348 520 362 543 413 c 0
 547 425 579 422 572 407 c 0
 561 365 548 274 535 229 c 0
 534 216 500 215 504 230 c 0
 505 236 505 240 505 245 c 0
 505 293 486 308 403 308 c 2
 403 308 383 310 351 308 c 0
 320 307 275 308 275 308 c 2
 265 308 260 305 258 296 c 2
 216 99 l 2
 202 35 261 38 309 38 c 2
 379 38 l 2
 445 38 485 50 523 78 c 0
 554 100 566 109 593 145 c 0
 598 152 602 153 609 153 c 0
 613 153 623 150 621 141 c 0
 607 107 586 42 575 9 c 1
 566 -1 561 -2 533 -2 c 2
 13 -3 l 2
 -6 -5 2 39 25 40 c 0
 36 41 47 40 55 41 c 0
 99 44 110 55 123 116 c 2
 211 531 l 2
 216 553 217 565 217 572 c 0
 217 598 196 611 155 611 c 2
 129 611 l 2
 111 609 120 650 136 646 c 0
 261 645 506 645 638 646 c 0
 661 646 663 641 658 618 c 2
EndSplineSet
EndChar

StartChar: Iacute
Encoding: 327 205 207
Width: 355
Flags: MW
HStem: -3 37<34 39 30.5 300> 612 34
LayerCount: 2
Fore
SplineSet
409 857 m 0
 372 801 317 743 293 720 c 0
 285 710 269 714 273 727 c 0
 283 759 305 823 313 865 c 0
 316 874 326 876 339 877 c 2
 396 880 l 2
 407 882 416 868 409 857 c 0
417 646 m 0
 437 646 425 614 415 613 c 0
 412 612 408 611 404 612 c 0
 344 609 331 600 316 529 c 2
 228 114 l 2
 226 103 223 93 223 82 c 0
 223 34 256 32 302 33 c 0
 320 33 314 -2 300 -3 c 0
 215 0 119 0 34 -3 c 0
 15 -4 22 34 39 34 c 0
 104 33 120 55 133 116 c 2
 220 532 l 2
 224 553 226 566 226 574 c 0
 226 599 209 607 167 609 c 0
 163 609 154 609 150 610 c 0
 136 614 140 631 147 640 c 0
 152 647 155 646 165 646 c 0
 240 645 348 644 417 646 c 0
EndSplineSet
EndChar

StartChar: Icircumflex
Encoding: 328 206 208
Width: 355
Flags: MW
HStem: -3 37<34 39 30.5 300> 612 34 846 20G<335 375 375 378.5>
LayerCount: 2
Fore
SplineSet
417 646 m 0
 437 646 425 614 415 613 c 0
 412 612 408 611 404 612 c 0
 344 609 331 600 316 529 c 2
 228 114 l 2
 226 103 223 93 223 82 c 0
 223 34 256 32 302 33 c 0
 320 33 314 -2 300 -3 c 0
 215 0 119 0 34 -3 c 0
 15 -4 22 34 39 34 c 0
 104 33 120 55 133 116 c 2
 220 532 l 2
 224 553 226 566 226 574 c 0
 226 599 209 607 167 609 c 0
 163 609 154 609 150 610 c 0
 136 614 140 631 147 640 c 0
 152 647 155 646 165 646 c 0
 240 645 348 644 417 646 c 0
438 706 m 2
 442 696 422 699 419 706 c 0
 401 727 364 773 355 783 c 0
 350 788 333 795 323 789 c 2
 188 706 l 2
 174 697 145 691 171 717 c 2
 312 856 l 2
 320 863 323 864 335 866 c 2
 375 866 l 2
 382 866 393 862 395 854 c 2
 438 706 l 2
EndSplineSet
EndChar

StartChar: Idieresis
Encoding: 329 207 209
Width: 355
Flags: W
HStem: -3 37<34 39 30.5 300> 612 34 702 107<386 415.5 386 416> 788 20G<222 251.5>
VStem: 184 107<741 770> 346 108<741.5 771>
LayerCount: 2
Fore
SplineSet
454 756 m 0xec
 454 727 431 702 401 702 c 0
 371 702 346 727 346 756 c 0
 346 786 371 809 401 809 c 0
 430 809 454 786 454 756 c 0xec
291 755 m 0
 291 727 266 702 237 702 c 0xec
 207 702 184 727 184 755 c 0
 184 785 207 808 237 808 c 0xdc
 266 808 291 785 291 755 c 0
417 646 m 0
 437 646 425 614 415 613 c 0
 412 612 408 611 404 612 c 0
 344 609 331 600 316 529 c 2
 228 114 l 2
 226 103 223 93 223 82 c 0
 223 34 256 32 302 33 c 0
 320 33 314 -2 300 -3 c 0
 215 0 119 0 34 -3 c 0
 15 -4 22 34 39 34 c 0
 104 33 120 55 133 116 c 2
 220 532 l 2
 224 553 226 566 226 574 c 0
 226 599 209 607 167 609 c 0
 163 609 154 609 150 610 c 0
 136 614 140 631 147 640 c 0
 152 647 155 646 165 646 c 0
 240 645 348 644 417 646 c 0
EndSplineSet
EndChar

StartChar: Igrave
Encoding: 330 204 210
Width: 355
Flags: MW
HStem: -3 37<34 39 30.5 300> 612 34 856 20G<211 267 267 271.5>
LayerCount: 2
Fore
SplineSet
336 723 m 0
 340 710 319 711 313 718 c 0
 286 754 233 820 200 854 c 0
 188 866 204 876 211 876 c 2
 267 876 l 2
 276 876 285 875 292 862 c 0
 304 840 326 758 336 723 c 0
417 646 m 0
 437 646 425 614 415 613 c 0
 412 612 408 611 404 612 c 0
 344 609 331 600 316 529 c 2
 228 114 l 2
 226 103 223 93 223 82 c 0
 223 34 256 32 302 33 c 0
 320 33 314 -2 300 -3 c 0
 215 0 119 0 34 -3 c 0
 15 -4 22 34 39 34 c 0
 104 33 120 55 133 116 c 2
 220 532 l 2
 224 553 226 566 226 574 c 0
 226 599 209 607 167 609 c 0
 163 609 154 609 150 610 c 0
 136 614 140 631 147 640 c 0
 152 647 155 646 165 646 c 0
 240 645 348 644 417 646 c 0
EndSplineSet
EndChar

StartChar: Oacute
Encoding: 331 211 211
Width: 819
Flags: MW
HStem: -18 39<383 383> 623 39<476 476>
VStem: 85 100<201.5 349.5 187.5 389.5> 676 100<283.5 443 253.5 458>
LayerCount: 2
Fore
SplineSet
648 857 m 0
 611 801 556 743 532 720 c 0
 524 710 508 714 512 727 c 0
 522 759 545 823 552 865 c 0
 555 874 565 876 578 877 c 2
 635 880 l 2
 646 882 655 868 648 857 c 0
776 357 m 0
 776 150 600 -18 383 -18 c 0
 209 -18 85 115 85 288 c 0
 85 491 264 662 475 662 c 0
 649 662 776 529 776 357 c 0
676 388 m 0
 676 528 598 624 476 623 c 0
 286 622 185 437 185 262 c 0
 185 113 258 22 384 21 c 0
 546 19 676 179 676 388 c 0
EndSplineSet
EndChar

StartChar: Ocircumflex
Encoding: 332 212 212
Width: 819
Flags: MW
HStem: -18 39<383 383> 623 39<476 476> 838 20G<527 567 567 570.5>
VStem: 85 100<201.5 349.5 187.5 389.5> 676 100<283.5 443 253.5 458>
LayerCount: 2
Fore
SplineSet
776 357 m 0
 776 150 600 -18 383 -18 c 0
 209 -18 85 115 85 288 c 0
 85 491 264 662 475 662 c 0
 649 662 776 529 776 357 c 0
676 388 m 0
 676 528 598 624 476 623 c 0
 286 622 185 437 185 262 c 0
 185 113 258 22 384 21 c 0
 546 19 676 179 676 388 c 0
630 698 m 2
 634 688 614 691 611 698 c 0
 593 719 556 765 547 775 c 0
 542 780 525 787 515 781 c 2
 380 698 l 2
 366 689 337 683 363 709 c 2
 504 848 l 2
 512 855 515 856 527 858 c 2
 567 858 l 2
 574 858 585 854 587 846 c 2
 630 698 l 2
EndSplineSet
EndChar

StartChar: Ograve
Encoding: 333 210 213
Width: 819
Flags: MW
HStem: -18 39<383 383> 623 39<476 476> 856 20G<450 506 506 510.5>
VStem: 85 100<201.5 349.5 187.5 389.5> 676 100<283.5 443 253.5 458>
LayerCount: 2
Fore
SplineSet
575 723 m 0
 579 710 558 711 552 718 c 0
 525 754 472 820 439 854 c 0
 427 866 443 876 450 876 c 2
 506 876 l 2
 515 876 524 875 531 862 c 0
 543 840 566 758 575 723 c 0
776 357 m 0
 776 150 600 -18 383 -18 c 0
 209 -18 85 115 85 288 c 0
 85 491 264 662 475 662 c 0
 649 662 776 529 776 357 c 0
676 388 m 0
 676 528 598 624 476 623 c 0
 286 622 185 437 185 262 c 0
 185 113 258 22 384 21 c 0
 546 19 676 179 676 388 c 0
EndSplineSet
EndChar

StartChar: Uacute
Encoding: 334 218 214
Width: 748
Flags: MW
HStem: -18 37<301 397> 610 38<348 348>
LayerCount: 2
Fore
SplineSet
615 857 m 0
 578 801 523 743 500 720 c 0
 491 710 475 714 479 727 c 0
 489 759 512 823 519 865 c 0
 523 874 533 876 545 877 c 2
 602 880 l 2
 614 882 622 868 615 857 c 0
788 648 m 0
 806 650 801 611 783 614 c 1
 728 607 706 596 689 507 c 2
 638 236 l 2
 627 176 617 147 594 110 c 0
 537 17 451 -18 343 -18 c 0
 226 -18 161 15 115 84 c 0
 74 147 81 204 96 272 c 2
 151 527 l 2
 156 549 157 560 157 568 c 0
 157 599 136 612 95 612 c 2
 78 612 l 2
 63 612 70 650 85 648 c 0
 155 646 288 645 348 648 c 0
 356 648 362 645 362 636 c 0
 361 629 357 609 348 610 c 0
 274 614 265 602 249 529 c 2
 192 266 l 2
 184 229 180 195 180 169 c 0
 180 80 242 19 360 19 c 0
 518 19 572 114 597 248 c 2
 647 515 l 2
 650 531 651 541 651 551 c 0
 651 610 609 614 563 614 c 0
 547 614 556 652 570 648 c 1
 603 648 642 646 685 648 c 0
 728 649 743 648 771 648 c 0
 776 650 783 648 788 648 c 0
EndSplineSet
EndChar

StartChar: Ucircumflex
Encoding: 335 219 215
Width: 748
Flags: MW
HStem: -18 37<301 397> 610 38<348 348> 866 20G<511 559 559 562.5>
LayerCount: 2
Fore
SplineSet
615 724 m 2
 617 714 599 717 595 724 c 2
 522 810 l 2
 519 815 514 818 506 813 c 2
 364 724 l 2
 350 715 321 709 346 734 c 2
 488 877 l 2
 496 883 499 886 511 886 c 2
 559 886 l 2
 566 886 577 884 579 875 c 2
 615 724 l 2
788 648 m 0
 806 650 801 611 783 614 c 1
 728 607 706 596 689 507 c 2
 638 236 l 2
 627 176 617 147 594 110 c 0
 537 17 451 -18 343 -18 c 0
 226 -18 161 15 115 84 c 0
 74 147 81 204 96 272 c 2
 151 527 l 2
 156 549 157 560 157 568 c 0
 157 599 136 612 95 612 c 2
 78 612 l 2
 63 612 70 650 85 648 c 0
 155 646 288 645 348 648 c 0
 356 648 362 645 362 636 c 0
 361 629 357 609 348 610 c 0
 274 614 265 602 249 529 c 2
 192 266 l 2
 184 229 180 195 180 169 c 0
 180 80 242 19 360 19 c 0
 518 19 572 114 597 248 c 2
 647 515 l 2
 650 531 651 541 651 551 c 0
 651 610 609 614 563 614 c 0
 547 614 556 652 570 648 c 1
 603 648 642 646 685 648 c 0
 728 649 743 648 771 648 c 0
 776 650 783 648 788 648 c 0
EndSplineSet
EndChar

StartChar: Ugrave
Encoding: 336 217 216
Width: 748
Flags: MW
HStem: -18 37<301 397> 610 38<348 348> 856 20G<377 433 433 438>
LayerCount: 2
Fore
SplineSet
503 723 m 0
 506 710 485 711 480 718 c 0
 453 754 399 820 366 854 c 0
 354 866 371 876 377 876 c 2
 433 876 l 2
 443 876 452 875 459 862 c 0
 470 840 493 758 503 723 c 0
788 648 m 0
 806 650 801 611 783 614 c 1
 728 607 706 596 689 507 c 2
 638 236 l 2
 627 176 617 147 594 110 c 0
 537 17 451 -18 343 -18 c 0
 226 -18 161 15 115 84 c 0
 74 147 81 204 96 272 c 2
 151 527 l 2
 156 549 157 560 157 568 c 0
 157 599 136 612 95 612 c 2
 78 612 l 2
 63 612 70 650 85 648 c 0
 155 646 288 645 348 648 c 0
 356 648 362 645 362 636 c 0
 361 629 357 609 348 610 c 0
 274 614 265 602 249 529 c 2
 192 266 l 2
 184 229 180 195 180 169 c 0
 180 80 242 19 360 19 c 0
 518 19 572 114 597 248 c 2
 647 515 l 2
 650 531 651 541 651 551 c 0
 651 610 609 614 563 614 c 0
 547 614 556 652 570 648 c 1
 603 648 642 646 685 648 c 0
 728 649 743 648 771 648 c 0
 776 650 783 648 788 648 c 0
EndSplineSet
EndChar

StartChar: dotlessi
Encoding: 245 305 217
Width: 258
Flags: MW
HStem: -14 21G<78 106> 405 20G<165 192.5>
LayerCount: 2
Fore
SplineSet
219 110 m 0
 222 104 225 96 218 87 c 0
 202 66 184 46 163 26 c 0
 135 0 114 -14 98 -14 c 0
 58 -14 65 42 70 67 c 0
 85 136 112 272 119 321 c 0
 123 345 112 344 102 332 c 0
 96 322 80 307 69 300 c 0
 55 293 50 315 54 322 c 0
 113 390 153 425 177 425 c 0
 208 425 202 381 199 361 c 0
 186 277 163 154 144 77 c 1
 138 35 157 60 167 71 c 2
 194 101 l 2
 205 116 211 115 219 110 c 0
EndSplineSet
EndChar

StartChar: circumflex
Encoding: 195 710 218
Width: 339
Flags: MW
HStem: 621 20G<261 309 309 312.5>
LayerCount: 2
Fore
SplineSet
365 478 m 2
 369 468 349 471 346 478 c 2
 273 564 l 2
 269 569 265 573 256 567 c 2
 114 478 l 2
 100 469 71 463 97 489 c 2
 238 631 l 2
 245 639 249 639 261 641 c 2
 309 641 l 2
 316 641 327 638 329 629 c 2
 365 478 l 2
EndSplineSet
EndChar

StartChar: tilde
Encoding: 196 732 219
Width: 339
Flags: W
HStem: 490 70<319.5 347> 556 70<152.5 171>
LayerCount: 2
Fore
SplineSet
404 625 m 0x80
 404 566 384 490 310 490 c 0x80
 244 490 189 556 153 556 c 0
 130 556 120 546 111 491 c 0
 109 479 85 482 85 491 c 0
 90 578 123 626 182 626 c 0x40
 243 626 302 560 337 560 c 0
 359 560 372 574 379 625 c 0
 380 634 402 640 404 625 c 0x80
EndSplineSet
EndChar

StartChar: macron
Encoding: 197 175 220
Width: 339
Flags: MW
HStem: 524 69<134 375>
LayerCount: 2
Fore
SplineSet
406 576 m 2
 394 534 l 2
 392 531 388 523 375 524 c 0
 298 522 189 523 112 524 c 0
 95 527 92 536 93 540 c 2
 106 583 l 2
 112 591 119 593 134 593 c 0
 198 592 322 591 387 593 c 0
 399 592 407 589 406 576 c 2
EndSplineSet
EndChar

StartChar: breve
Encoding: 198 728 221
Width: 339
Flags: MW
HStem: 486 79<223.5 275.5 223.5 278.5>
LayerCount: 2
Fore
SplineSet
422 639 m 0
 378 543 312 486 245 486 c 0
 175 486 136 543 133 639 c 0
 133 650 153 653 158 639 c 0
 168 590 198 565 249 565 c 0
 302 565 348 589 396 639 c 0
 400 648 426 651 422 639 c 0
EndSplineSet
EndChar

StartChar: dotaccent
Encoding: 199 729 222
Width: 339
Flags: MW
HStem: 481 111<231 261.5>
VStem: 192 109<520.5 551.5>
LayerCount: 2
Fore
SplineSet
301 536 m 0
 301 505 277 481 246 481 c 0
 216 481 192 505 192 536 c 0
 192 567 216 592 246 592 c 0
 277 592 301 567 301 536 c 0
EndSplineSet
EndChar

StartChar: ring
Encoding: 202 730 223
Width: 339
Flags: MW
HStem: 462 43<238 267.5 238 279.5> 614 43<238 267.5>
VStem: 157 43<544.5 574.5 544.5 586> 307 41<544.5 574.5>
LayerCount: 2
Fore
SplineSet
348 559 m 0
 348 505 306 462 253 462 c 0
 201 462 157 505 157 559 c 0
 157 613 201 657 253 657 c 0
 306 657 348 613 348 559 c 0
307 559 m 0
 307 590 282 614 253 614 c 0
 223 614 200 590 200 559 c 0
 200 530 223 505 253 505 c 0
 282 505 307 530 307 559 c 0
EndSplineSet
EndChar

StartChar: cedilla
Encoding: 203 184 224
Width: 339
Flags: MW
HStem: -198 28<68.5 96.5 67 112.5> -20 20G<140 168 168 168>
VStem: 150 57<-129 -107.5>
LayerCount: 2
Fore
SplineSet
207 -97 m 0
 207 -161 153 -198 72 -198 c 0
 65 -198 60 -198 43 -196 c 0
 26 -191 34 -169 46 -169 c 0
 61 -170 64 -170 70 -170 c 0
 123 -170 150 -149 150 -116 c 0
 150 -99 141 -87 110 -84 c 0
 103 -83 100 -81 104 -73 c 2
 140 0 l 1
 168 0 l 1
 155 -26 l 1
 187 -32 207 -61 207 -97 c 0
EndSplineSet
EndChar

StartChar: hungarumlaut
Encoding: 205 733 225
Width: 339
Flags: MW
HStem: 640 20G
LayerCount: 2
Fore
SplineSet
437 640 m 1
 300 483 l 1
 289 483 l 2
 285 483 273 483 277 494 c 2
 322 637 l 2
 328 656 335 660 351 660 c 2
 425 660 l 2
 440 660 444 656 437 640 c 1
306 643 m 2
 167 483 l 2
 162 481 153 477 146 481 c 0
 141 485 144 492 145 497 c 2
 191 643 l 1
 191 643 196 660 218 660 c 2
 293 660 l 2
 311 658 311 652 306 643 c 2
EndSplineSet
EndChar

StartChar: ogonek
Encoding: 206 731 226
Width: 339
Flags: MW
HStem: -192 53<137 142.5> -18 20G<49 84 84 84>
VStem: 8 62<-79 -74>
LayerCount: 2
Fore
SplineSet
241 -148 m 0
 190 -184 162 -192 123 -192 c 0
 55 -192 8 -152 8 -91 c 0
 8 -57 20 -29 49 2 c 1
 84 2 l 1
 72 -31 70 -41 70 -55 c 0
 70 -103 110 -139 164 -139 c 0
 182 -139 193 -136 224 -126 c 0
 235 -123 257 -137 241 -148 c 0
EndSplineSet
EndChar

StartChar: caron
Encoding: 207 711 227
Width: 339
Flags: W
LayerCount: 2
Fore
SplineSet
415 629 m 2
 272 485 l 2
 266 481 255 478 241 478 c 2
 199 478 l 2
 189 476 185 486 183 489 c 2
 146 641 l 2
 144 650 162 650 166 641 c 2
 240 552 l 2
 245 547 252 549 260 554 c 2
 398 641 l 2
 407 646 436 651 415 629 c 2
EndSplineSet
EndChar

StartChar: currency
Encoding: 168 164 228
Width: 679
Flags: MW
HStem: 105 65<307.5 368> 497 65<309 368.5 309 384.5>
VStem: 116 64<308.5 365.5> 500 63<300.5 361.5 300.5 379>
LayerCount: 2
Fore
SplineSet
568 121 m 2
 551 103 l 2
 537 89 526 99 515 110 c 0
 506 119 493 133 474 152 c 1
 424 114 398 105 338 105 c 0
 277 105 252 114 205 152 c 1
 159 105 l 2
 150 95 138 92 128 102 c 2
 111 120 l 2
 103 128 103 138 113 148 c 2
 161 197 l 1
 124 253 116 280 116 337 c 0
 116 394 125 421 160 471 c 1
 111 520 l 2
 102 529 100 537 109 545 c 2
 131 569 l 2
 143 583 146 576 157 565 c 2
 205 516 l 1
 253 554 279 562 339 562 c 0
 398 562 425 554 474 516 c 1
 522 565 l 2
 535 579 538 578 550 566 c 2
 566 549 l 2
 579 535 576 529 567 520 c 2
 518 471 l 1
 554 419 563 392 563 331 c 0
 563 270 555 243 518 197 c 1
 568 145 l 2
 579 134 574 126 568 121 c 2
500 333 m 0
 500 425 428 497 341 497 c 0
 252 497 180 425 180 334 c 0
 180 242 250 170 338 170 c 0
 428 170 500 243 500 333 c 0
EndSplineSet
EndChar

StartChar: ff
Encoding: 337 64256 229
Width: 508
Flags: W
HStem: -275 45<-119.5 -44.5> 368 51 706 44 734 20G<609 653>
LayerCount: 2
Fore
SplineSet
222 367 m 2xe0
 211 367 196 362 193 345 c 2
 151 109 l 2
 130 -9 106 -163 2 -239 c 0
 -28 -261 -62 -275 -98 -275 c 0
 -141 -275 -183 -246 -177 -216 c 0
 -171 -184 -150 -184 -132 -185 c 0
 -117 -186 -105 -202 -95 -212 c 0
 -84 -222 -73 -230 -58 -230 c 0
 -31 -230 0 -207 16 -176 c 0
 25 -159 32 -133 39 -100 c 0
 46 -67 53 -27 62 17 c 0
 84 132 101 238 120 350 c 0
 121 358 119 368 110 367 c 2
 68 370 l 2
 54 367 57 395 70 401 c 1
 108 404 122 408 130 413 c 1
 137 449 149 511 163 551 c 0
 184 610 203 646 229 678 c 0
 267 724 330 750 377 750 c 0xe0
 474 750 477 638 408 645 c 0
 374 649 362 701 325 701 c 0
 308 701 280 689 267 669 c 0
 251 644 237 596 223 513 c 2
 209 432 l 2
 206 423 222 416 232 416 c 0
 254 415 298 416 315 416 c 0
 332 416 348 416 348 416 c 2
 386 416 401 412 406 446 c 0
 412 482 418 513 432 553 c 0
 452 612 470 648 497 681 c 0
 533 727 585 754 633 754 c 0xd0
 673 754 712 728 711 695 c 0
 710 669 685 662 664 665 c 0
 631 668 625 707 587 706 c 0
 570 706 549 692 535 672 c 0
 519 645 505 598 491 515 c 2
 478 439 l 2
 476 428 477 420 484 419 c 2
 540 419 l 2
 557 419 543 367 529 367 c 1
 528 363 485 367 485 367 c 2
 474 367 468 361 463 352 c 2
 420 110 l 2
 399 -8 374 -162 269 -239 c 0
 239 -261 206 -275 169 -275 c 0
 126 -275 85 -246 91 -216 c 0
 97 -183 117 -184 135 -185 c 0
 150 -187 163 -202 173 -212 c 0
 184 -222 194 -230 209 -230 c 0
 237 -230 268 -207 284 -176 c 0
 305 -134 320 -33 330 17 c 0
 352 132 366 226 385 338 c 0
 387 350 380 368 366 368 c 0
 335 369 365 368 325 368 c 0
 214 370 222 367 222 367 c 2xe0
EndSplineSet
EndChar

StartChar: ffi
Encoding: 338 64259 230
Width: 730
Flags: W
HStem: -275 45<-119.5 -44.5> -16 21G<566 608> 368 48<222 308 359 360 482 493.5> 705 45 733 20G<607 651>
LayerCount: 2
Fore
SplineSet
456 352 m 2xf0
 413 110 l 2
 391 -8 367 -162 262 -239 c 0
 232 -261 199 -275 162 -275 c 0
 119 -275 78 -246 84 -216 c 0
 90 -183 110 -183 128 -185 c 0
 143 -186 156 -202 166 -212 c 0
 177 -222 187 -230 202 -230 c 0
 230 -230 262 -207 277 -176 c 0
 298 -133 313 -33 323 17 c 0
 345 132 359 226 378 338 c 0
 380 350 373 368 359 368 c 0
 328 369 359 368 318 369 c 0
 207 370 222 368 222 368 c 2
 211 367 196 362 193 345 c 2
 151 109 l 2
 130 -9 106 -163 2 -239 c 0
 -28 -261 -62 -275 -98 -275 c 0
 -141 -275 -183 -246 -177 -216 c 0
 -171 -184 -150 -184 -132 -185 c 0
 -117 -186 -105 -202 -95 -212 c 0
 -84 -222 -73 -230 -58 -230 c 0
 -31 -230 0 -207 16 -176 c 0
 25 -159 32 -133 39 -100 c 0
 46 -67 54 -27 62 17 c 0
 85 132 101 238 120 350 c 0
 121 358 119 368 110 367 c 2
 68 370 l 2
 54 367 57 395 70 401 c 1
 108 404 122 408 130 413 c 1
 137 449 149 511 163 551 c 0
 184 610 203 646 229 678 c 0
 267 724 330 750 377 750 c 0xf0
 474 750 477 638 408 645 c 0
 374 649 362 701 325 701 c 0
 308 701 280 689 267 669 c 0
 251 644 237 596 223 513 c 2
 209 432 l 2
 206 423 222 417 232 416 c 0
 254 415 292 416 308 416 c 0
 325 416 341 416 341 416 c 2
 379 416 394 413 399 446 c 0
 405 482 411 513 425 553 c 0
 445 612 463 648 490 681 c 0
 526 727 583 753 631 753 c 0xe8
 671 753 715 724 714 691 c 0
 713 655 690 645 662 652 c 0
 630 660 623 705 585 705 c 0
 568 704 542 693 528 672 c 0
 512 646 498 598 484 515 c 2
 471 439 l 2
 469 428 475 417 482 416 c 0
 504 415 541 416 563 416 c 0
 591 417 607 418 620 419 c 0
 633 421 643 424 658 427 c 0
 664 429 685 432 685 421 c 2
 624 59 l 2
 623 54 620 40 629 40 c 0
 635 40 658 52 696 100 c 0
 706 113 726 96 721 79 c 1
 669 12 627 -16 589 -16 c 0
 543 -16 545 32 550 60 c 0
 568 165 582 238 598 337 c 0
 602 365 589 367 583 367 c 0
 547 368 509 368 478 368 c 0
 461 367 461 362 456 352 c 2xf0
EndSplineSet
EndChar

StartChar: ffl
Encoding: 339 64260 231
Width: 737
Flags: W
HStem: -275 45<-119.5 -44.5> -275 90 -16 21G<566.5 613> 368 48<328 351 351 367.5 328 348> 701 49<316.5 425.5>
LayerCount: 2
Fore
SplineSet
748 747 m 1xb8
 631 71 l 2
 630 65 628 47 637 47 c 0
 649 47 662 53 701 102 c 0
 711 114 737 94 726 80 c 0
 673 12 632 -16 594 -16 c 0
 539 -16 554 54 560 89 c 2
 607 343 l 2
 609 350 610 370 598 370 c 0
 536 372 496 369 466 369 c 0
 458 368 451 361 449 349 c 2
 408 109 l 2
 388 -9 362 -163 258 -239 c 0
 228 -261 195 -275 158 -275 c 0
 115 -275 74 -246 79 -216 c 0
 85 -184 106 -184 124 -185 c 0x78
 140 -186 151 -202 162 -212 c 0
 172 -222 183 -230 198 -230 c 0xb8
 226 -230 257 -207 272 -176 c 0
 281 -159 288 -133 295 -100 c 0
 302 -67 310 -27 318 17 c 0
 341 133 357 237 376 350 c 0
 377 356 375 366 369 368 c 0
 338 369 368 368 328 368 c 0
 217 370 222 367 222 367 c 2
 211 367 196 362 193 345 c 2
 151 109 l 2
 130 -9 106 -163 2 -239 c 0
 -28 -261 -62 -275 -98 -275 c 0
 -141 -275 -183 -246 -177 -216 c 0
 -171 -184 -150 -184 -132 -185 c 0x78
 -117 -186 -105 -202 -95 -212 c 0
 -84 -222 -73 -230 -58 -230 c 0
 -31 -230 0 -207 16 -176 c 0
 25 -159 32 -133 39 -100 c 0
 46 -67 53 -27 62 17 c 0
 84 132 101 238 120 350 c 0
 121 358 119 368 110 367 c 2
 68 370 l 2
 54 367 57 395 70 401 c 1
 108 404 122 408 130 413 c 1
 137 449 149 511 163 551 c 0
 184 610 203 646 229 678 c 0
 267 724 330 750 377 750 c 0
 474 750 477 638 408 645 c 0
 374 649 362 701 325 701 c 0
 308 701 280 689 267 669 c 0
 251 644 237 596 223 513 c 2
 209 432 l 2
 206 423 222 416 232 416 c 0
 254 415 301 416 318 416 c 0
 335 416 351 416 351 416 c 2
 384 416 390 428 391 437 c 0
 398 472 409 518 420 551 c 0
 440 610 458 646 485 679 c 0
 528 730 618 778 684 737 c 0
 690 734 696 733 701 736 c 0
 710 740 717 745 725 750 c 0
 733 760 746 760 748 747 c 1xb8
666 649 m 1
 632 708 563 731 523 669 c 0
 507 644 493 596 479 513 c 2
 466 438 l 2
 463 430 466 415 472 415 c 0
 506 415 563 414 602 415 c 0
 610 415 622 417 625 434 c 2
 666 649 l 1
EndSplineSet
EndChar
